<svg xmlns="http://www.w3.org/2000/svg" width="167.375" height="47.031"><defs><style>.cls-1 { fill: #fff; } .cls-1, .cls-2 { fill-rule: evenodd; } .cls-2 { fill: none; stroke: #fff; stroke-linecap: round; stroke-linejoin: round; stroke-width: 2.5px; }</style></defs><path id="CRANE" d="M70.55 17.22c-5.73 0-10.07 4.1-10.07 9.55a9.6 9.6 0 0 0 9.9 9.67 11.06 11.06 0 0 0 7.64-3.38l-2.5-2.72a7.3 7.3 0 0 1-4.92 2.2 5.82 5.82 0 0 1 0-11.62 6.84 6.84 0 0 1 4.9 2.45l2.5-3.02a10.75 10.75 0 0 0-7.45-3.13zm24.32 19.03h4.83L95.68 30c2.3-1.06 3.54-3.17 3.54-6.08 0-4.2-2.8-6.56-7.75-6.56h-8.2v18.9h4.26v-5.4h4.35zm-7.34-8.96v-6.4h3.94c2.35 0 3.7 1.04 3.7 3.15 0 2.15-1.35 3.23-3.7 3.23h-3.94zm30.45 5.28l1.5 3.67h4.55l-8.07-18.9h-4.4l-8.2 18.9h4.4l1.48-3.67H118zm-1.37-3.43h-5.96l3-7.34zm29.22 7.1v-18.9h-4.05V29.5l-9.18-12.15h-3.9v18.9h4.08V24.13l9.15 12.12h3.9zm21.25-15.36v-3.55h-14.4v18.9h14.7V32.7h-10.42v-4.17h9.12V25h-9.12v-4.1h10.12z" class="cls-1"/><path d="M12.78 45.77l2.82-40.8 18.1 21.7zM25.66 17.06l8.24-9.8-.3 19.3M33.9 7.36l11.87 4.35-11.87 4.17M15.55 4.95L1.23 1.23l13.4 17.86M6.8 8.67l-5 6.14 12.45 9.3" class="cls-2"/></svg>