<svg xmlns="http://www.w3.org/2000/svg" xmlns:xlink="http://www.w3.org/1999/xlink" width="21" height="24" viewBox="0 0 21 24"><defs><path id="u34va" d="M950.43 935.25h-12.86l-1.3 14.43h15.45zm1.28-1.31L953 951h-18l1.29-17.06h3.85c.13-2.15 1.73-3.94 3.86-3.94s3.73 1.79 3.86 3.94zm-7.71-2.62c-1.42 0-2.45 1.2-2.57 2.62h5.14c-.12-1.43-1.15-2.62-2.57-2.62zm-3.22 5.24c.7 0 1.28.59 1.28 1.31a1.3 1.3 0 0 1-1.28 1.32 1.3 1.3 0 0 1-1.28-1.32c0-.72.57-1.3 1.28-1.3zm6.44 0c.7 0 1.28.59 1.28 1.31a1.3 1.3 0 0 1-1.28 1.32 1.3 1.3 0 0 1-1.28-1.32c0-.72.57-1.3 1.28-1.3z"/></defs><g><g transform="translate(-933 -928)"><use fill="#fff" xlink:href="#u34va"/></g></g></svg>