<svg xmlns="http://www.w3.org/2000/svg" width="215.88" height="46.938"><defs><style>.cls-1 { fill: #65696d; fill-rule: evenodd; }</style></defs><path id="CRANE_THEME" d="M8.3 42.43a1.43 1.43 0 0 0 .25.08 1.7 1.7 0 0 1 .25.08l1.7-4.3a2.17 2.17 0 0 1-.3-.02 2.12 2.12 0 0 0-.3 0zM7.47 25.1l2.16-5.6c-.1.04-.2.06-.32.08l-.3.07-2.27 5.78zm5.36-5.32a1.64 1.64 0 0 1-.28-.1 2.7 2.7 0 0 0-.28-.07L10.6 23.9a2.22 2.22 0 0 1 .3 0 2.4 2.4 0 0 1 .3.06zm.7.25c-.1-.04-.17-.07-.25-.1a2.7 2.7 0 0 0-.3-.1L11.4 24a1.45 1.45 0 0 1 .5.2zm.67.36c-.08-.06-.16-.1-.23-.14s-.16-.1-.25-.14l-1.64 4.2c.08.07.15.14.22.2s.13.15.2.23zm2.22 3.22l-.26.12.4-.94a7.03 7.03 0 0 0-.4-.6l-.72 1.85-.27.12.87-2.15a2.35 2.35 0 0 1-.2-.24 2.46 2.46 0 0 0-.22-.24l-1.17 2.95-.24.1 1.24-3.22c-.08-.08-.15-.15-.2-.2s-.14-.13-.22-.2L13.5 24.9l-.28.13 1.64-4.2a1.6 1.6 0 0 0-.23-.15c-.07-.05-.16-.1-.25-.15l-1.73 4.44a1.1 1.1 0 0 1 .14.25l.43 1.02 4.08-1.8-.44-1a1.57 1.57 0 0 0-.2-.4zm-6.56.45a3 3 0 0 1 .52-.16l1.7-4.32c-.1-.02-.18-.04-.27-.06a1.88 1.88 0 0 0-.27-.04L9.7 24.15zm-1.4.6l2.05-5.22a2.4 2.4 0 0 0-.63.03L7.74 25zm.97-.4l1.88-4.83h-.28c-.1 0-.2 0-.3 0l-2 5.13zm-4.78 4.52a2.22 2.22 0 0 1 1.14-2.95l.7-.3 2.26-5.82a2.76 2.76 0 0 0-.35.1q-.14.08-.32.16h-.03l-2.27 5.83-.12-.27 2.13-5.44-.74.32-1.72 4.4-.1-.27 1.56-4.02-.73.32-1.16 2.98-.1-.24 1-2.6-.72.3-.6 1.58-.1-.26.47-1.2-.73.3-.06.17-.05-.12a6.46 6.46 0 0 0-2.17 1.52A6.67 6.67 0 0 0 .03 28a6.47 6.47 0 0 0 .54 2.57l3.57 8.16c.04.1.08.2.12.28a1.77 1.77 0 0 0 .15.27l.3-.78.25-.13-.4 1.12.35.56.78-2 .26-.12-.9 2.3a2.46 2.46 0 0 1 .2.24 2.24 2.24 0 0 0 .22.24l1.2-3.1.27-.12-1.3 3.35a4.8 4.8 0 0 0 .44.4l1.6-4.07.25-.1-1.68 4.3.45.32 1.7-4.4a1.7 1.7 0 0 1-.2-.36zm2.22 13c.1.05.18.1.25.15a1.5 1.5 0 0 0 .25.12L9 37.9a1.94 1.94 0 0 0-.2-.2 1.85 1.85 0 0 1-.23-.2zm.68.36l.54.22 1.6-4.18a.71.71 0 0 1-.28-.07A2.38 2.38 0 0 1 9.2 38zm8.8-8.8l.07.16 4.5 1.78a1.68 1.68 0 0 0 0-.22.86.86 0 0 1 .04-.22l-4.76-1.84zm2.32-2.22l1.88.74-.12-.3-.1-.23-1.13-.44zm-1 .43l3.15 1.23a3.58 3.58 0 0 0-.13-.46l-2.5-1zm-.98.44l4.26 1.68c0-.14-.03-.3-.06-.46l-3.68-1.44zm3.42-1.1l-.14-.33-.32.14zm.06 6.55a1.54 1.54 0 0 1 .2-.36l-4.2-1.64a.76.76 0 0 1-.26.32zm.32-.7l.15-.37-4.17-1.6a1.67 1.67 0 0 1-.12.35zm-9.36 1.33a2.7 2.7 0 0 1-.42.15l-1.7 4.36c.1 0 .2.04.3.05a1.63 1.63 0 0 0 .26.04l1.8-4.62.18.1-.13.34-.14-.08.08.2-1.6 4.06a4.15 4.15 0 0 0 .6.02l1.43-3.65.18.07-.13.33-.13-.04.1.2-1.22 3.1a2.03 2.03 0 0 0 .32-.04 1.9 1.9 0 0 1 .3-.04l1.03-2.6.16.06-.12.34-.12-.05.1.2-.8 2a1.26 1.26 0 0 0 .33-.07 2.73 2.73 0 0 1 .3-.1l.58-1.4.17.07-.14.34-.1-.05.08.2-.32.76a1.42 1.42 0 0 0 .28-.1c.1-.03.18-.07.28-.12l.15-.06.04-.05h.05l.9-.4.05-.04h.04l.9-.4.05-.05.03.02.9-.4.02-.04h.07l.87-.38-.06-.12.17.06c.1-.04.16-.07.24-.1a1.44 1.44 0 0 0 .25-.15l-.9-.34v-.05l-.03.04-.2-.06.1-.25-.06-.16 1.47.57.4-.26-2.1-.82-.02-.06v.04l-.2-.05.1-.25-.06-.12 2.58 1a.95.95 0 0 1 .17-.15.54.54 0 0 0 .15-.15l-3.14-1.23-.04-.08-.02.04-.2-.04.1-.25-.04-.1 3.62 1.4.27-.34-4.12-1.6-.04-.08-.02.07-.2-.08.1-.25-.06-.12 4.56 1.8a1.38 1.38 0 0 1 .23-.36l-4.38-1.72a2.72 2.72 0 0 1-.4.25zm1.23-.43l.18.1-.13.33-.18-.1zm-.28.7l.17.1-.14.3-.17-.05zm1.33 3.38l-.17-.06.13-.34.16.07zm-.44-1l-.17-.05.13-.34.16.07zm-.44-.98l-.17-.06.12-.35.17.07zm1.14 1.27l-.16-.06.13-.34.16.07zm-.43-1l-.17-.05.13-.34.17.07zm-.43-.98l-.17-.07.13-.33.17.07zm1.57 2.26l-.15-.07.13-.33.17.06zm-.42-1l-.17-.06.15-.33.16.07zm-.43-.98l-.17-.07.13-.33.18.06zm-.43-1l-.17-.06.13-.33.18.1zm1.57 2.27l-.17-.08.13-.33.16.05zm-.44-1l-.17-.07.12-.33.17.06zm-.43-1l-.17-.06.13-.33.16.07zm-.42-.95l-.17-.1.13-.33.18.1zm2 3.22l-.16-.07.1-.32.2.05zm-.43-1l-.17-.06.1-.3.2.04zm-.43-.98l-.17-.08.1-.32.2.05zm-.44-1l-.16-.07.1-.32.2.1zm1.58 2.25l-.2-.05.14-.33.2.05zm-.43-1l-.2-.04.13-.32.2.05zm-.43-.98l-.2-.05.13-.33.2.04zm-.42-.96l-.2-.07.12-.34.2.08zm2 3.23l-.2-.05.13-.34.2.06zm-.44-1l-.2-.04.13-.35.2.06zm-.43-.98l-.2-.05.13-.34.2.06zm-.44-1l-.2-.04.13-.33.2.1zm.8-5.1l.1.2 4.97 1.95a3.7 3.7 0 0 0 0-.46l-4.74-1.84zm4.84 3.68c.02-.06.04-.12.06-.2s.03-.12.05-.2l-4.34-1.66c.02.13.03.28.03.44zm18.53-8.63l-.18-.14-.13.24-.24.08.2-.47-.42-.38-.52 1.12-.27.1.67-1.34-.43-.4-.98 1.98-.27.1 1.1-2.22-.48-.38-1.4 2.84-.26.1 1.52-3.06-.43-.4-1.84 3.7-.26.1L36.6 25l-.43-.38-2.06 4.14.3.28-1.72.57 1.4 4.23L42.53 31l-1.4-4.22zm-15.8 8.97l1.23.62.54-.2-1.97-.97zm.3.93l.45-.15-.6-.3zm5.48-6.53l2.05 1.02-.18-.55-1.33-.66zm-9.7-10.84l-1.92-.96.2.54 1.2.6zM18 20l.14.42.42-.14zm12.98 10.77l-.17-.52-.53.17zm.85-4.65a.7.7 0 0 1 .17-.1.27.27 0 0 0 .12-.06l-.34.7.44.4.82-1.65a1.44 1.44 0 0 0 .34-.27l-1 2.08.4.37 1.97-3.94a6.77 6.77 0 0 0 1.18-2.96 7.2 7.2 0 0 0-1.7-5.75 7.1 7.1 0 0 0-4.8-2.4 6.95 6.95 0 0 0-2.8.36l.16.45-.6-.3-.54.18 1.32.67.15.45-1.94-.96-.54.18 2.66 1.33.16.48-3.3-1.64-.54.2 4.02 2 .16.47-4.66-2.33-.54.2.08.03-.16.32-.2-.1.13-.22-.88.3.08.03-.16.33-.17-.1.1-.2-.87.28.08.05-.15.33-.17-.1.1-.2-.87.28.1.04-.17.32-.18-.1.1-.2-.84.27.4.2.1.24.07-.17.18.1-.16.34-1.07-.54-.54.18 1.76.88.08.24.08-.16.17.1-.17.33L17 16.1l-.3.1.1.24 2.8 1.4.08.24.08-.16.17.1-.17.3-2.8-1.4.17.55 2.8 1.4.1.24.07-.15.16.08-.16.32-2.8-1.4.17.54 2.57 1.27.2-.06.13.44.42-.85.15.07-.5 1.04.26.76 1.1-2.2.17.07-1.18 2.37.24.76 1.8-3.56.15.08-1.87 3.75.26.75 2.43-4.9.2.06-2.55 5.1.25.77 2.8-5.63-.1-.27.22-.07-.28-.14-.1-.28-.07.16-.2-.07.17-.3.96.47.54-.2-1.64-.8-.1-.28-.07.15-.2-.07.16-.32 2.34 1.16.54-.18-3.02-1.5-.1-.27-.06.2-.2-.1.16-.33 3.7 1.84.54-.18-4.38-2.18-.08-.25-.08.17-.2-.1.16-.33 4.82 2.42.06.18a2.67 2.67 0 0 1 1.7 5.06l-3.58 1.2-.16-.45-.3.6-.27.1.5-.96-.26-.76-.98 1.98-.24.08 1.14-2.3-.25-.76-1.63 3.3-.27.1 1.82-3.67-.26-.74-2.32 4.67-.27.1 2.5-5.04-.25-.77-2.8 5.64 1.6 4.82.2-.4.3-.1-.4.77.26.75.88-1.77.27-.1-1.06 2.14.25.74 1.56-3.14.27-.1-1.74 3.5.26.77 2.25-4.5.28-.1-2.28 4.52-.54.17.4.2.17.48-1.05-.52-.54.18 1.77.9.16.45-2.37-1.2-.34.12.07.2 2.8 1.4.17.5-2.8-1.4.17.54 2.8 1.4.18.5-2.82-1.4.18.53 2.63 1.3 4.6-1.54-.36-.2.02-.03-.15-.42.96.48.56-.2-1.73-.85h.03l-.15-.46 2.34 1.16.36-.12-.06-.18-2.86-1.42h.03l-.14-.46 2.82 1.4-.2-.55-2.83-1.4.02-.03-.15-.45 2.8 1.4-.17-.55-2.65-1.32-.27.1.1-.2-.25-.76-.6 1.2-.28.1.78-1.57-.25-.76-1.28 2.6-.27.08 1.46-2.94-.25-.75-1.97 3.93-.24.08 2.1-4.25-.05-.18 3.67-1.24.12-.04.27.2zm-11.36-7.45l-.16-.08.16-.34.16.08zm-.33-1l-.16-.1.16-.34.17.1zm-.33-1.03l-.17-.1.16-.33.17.12zM21.13 19l-.16-.08.16-.32.16.08zm-.35-1.02l-.16-.08.16-.33.17.1zm-.33-1l-.17-.1.16-.34.17.1zm-.34-1l-.16-.12.16-.32.17.1zm1.37 2.35l-.16-.08.17-.32.16.08zm-.33-1l-.18-.1.16-.33.18.1zm-.35-1.02l-.18-.1.16-.32.17.1zm1.35 2.37L22 18.6l.15-.33.16.08zm-.34-1.03l-.15-.08.16-.32.18.1zm-.32-1l-.18-.1.16-.33.18.12zm-.35-1.02l-.17-.1.16-.33.17.1zm1.36 2.36l-.17-.08.16-.32.15.08zm-.34-1l-.17-.1.15-.33.17.1zm-.34-1.02l-.18-.12.16-.32.18.1zm1.35 2.36l-.16-.08.14-.32.2.07zm-.34-1.03l-.16-.1.13-.3.2.1zm-.33-1l-.17-.1.13-.33.2.1zm-.34-1.03l-.18-.1.13-.32.22.1zm1.36 2.36l-.2-.07.16-.32.2.07zm-.34-1l-.2-.1.16-.32.2.1zm-.34-1.02l-.2-.1.16-.32.2.1zm5.6 15.6l.18.08-.16.32-.2-.07zm.33 1.03l.2.07-.17.32-.2-.07zm.33 1l.2.1-.16.32-.2-.1zm.35 1.02l.2.1-.16.32-.2-.1zM28.1 31.9l.18.06-.16.32-.16-.08zm.32 1l.2.1-.16.3-.17-.1zm.34 1.02l.2.1-.16.32-.17-.1zm.35 1.02l.2.1-.15.32-.17-.1zm-1.67-3.4l.16.08-.17.32-.16-.08zm.35 1.03l.16.08-.16.32-.16-.08zm.33 1l.18.1-.16.33-.17-.1zm.35 1.02l.17.1-.16.32-.17-.1zm-1.36-2.37l.15.08-.16.33-.17-.08zm.33 1l.17.1-.16.33-.17-.1zm.34 1.03l.17.1-.16.33-.17-.12zm.34 1.02l.18.1-.16.33-.17-.1zm-1.7-3.4l.17.1-.16.32-.15-.08zm.35 1.04l.16.08-.15.32-.16-.08zm.34 1l.16.1-.16.33-.17-.1zm.33 1.02l.17.1-.16.34-.17-.1zm-1.36-2.36l.16.08-.16.33-.16-.1zm.33 1l.17.1-.16.34-.16-.1zm.35 1.03l.17.12-.16.32-.17-.1zm.34 1.03l.16.1-.16.34-.17-.1zm-1.02.78l-.17-.1.17-.32.17.1zm-.35-1.02l-.17-.1.16-.33.17.1zm-.34-1.02l-.18-.1.16-.33.17.1zm-.35-1.03l-.16-.08.15-.32.16.08zm1.37 2.4l-.17-.1.16-.34.18.1zm-.35-1.03l-.17-.1.16-.33.17.1zm-.34-1.02l-.16-.08.16-.33.16.08zm-.34-1.03l-.17-.08.16-.32.15.08zm7.52-4.9l.46.37 2.03-4.14-.42-.4zM36 24.52l-.44-.4-2.03 4.14.43.36zm28.17-.63l-.17-.77-2.03 3.23.77-.17zm.24 1.05l-.16-.77-1.22 1.94.77-.17zm-.47-2.1l-.18-.78-2.83 4.54.77-.17zm-4.07 4l.78-.18 3.05-4.88-.1-.38-.4.1zm4.62-1.62l-.4.65.52-.12zm-7.84-2.2l-.77.17-.7 1.17.17.77zm-4.3-17.3L45.7 7.27 44.5 25.8l-.28.07.12.08-.2.3-.2-.12.16-.23-.93.22.1.07-.18.3-.2-.13.2-.24-.7.16.16.67.14-.26.2.13-.2.3-.12-.1.22 1 .14-.26.2.1-.2.3-.1-.08.2.95.15-.23.18.1-.2.3-.1-.08.22.96.14-.23.17.1-.2.3-.1-.08.1.43.52-.13.14-.22.18.08-.05.08.78-.18.14-.23.17.1-.04.07.77-.18.14-.23.15.1-.05.07.77-.18.17-.24.15.1-.05.07.77-.18.18-.23.15.1-.05.07.77-.18.18-.24.15.1-.05.08.78-.18.14-.23.18.1-.04.06.77-.16.14-.23.2.1-.06.07.53-.12-.12-.52-.13.22-.18-.08.18-.3.1.03-.2-.93-.15.23-.18-.1.2-.3.1.08-.22-.96-.14.23-.2-.1.2-.3.1.08-.2-.96-.15.26-.2-.12.2-.3.12.08-.13-.56-.56.13.12.07-.2.3-.18-.1.14-.24-.93.2.12.08-.2.3-.2-.12.2-.23-.35.1.15-2.33.1-.02 3.33-5.34-.77.2-2.6 4.14.04-.43 2.3-3.65-.78.18-1.43 2.32v-.43l1.15-1.83-.77.17-.28.46.5-7.36.2-.04 3.42 6.06-.68.15-3.34 5.33.78-.18 3.3-5.25.1.2-3.12 5 .77-.2 2.67-4.26.1.2-2.52 4 .77-.18 2.05-3.27.1.2-1.87 3 .77-.17 1.43-2.3.12.2-1.27 2.03.78-.17.8-1.3.12.2-.65 1.03.78-.18.2-.3 1.25 2.25-.06.02-1.53 2.44.17.76 2.12-3.4.27-.05-2.33 3.74.17.78 2.95-4.7.28-.05-3.15 5.02.05.24.53-.12 3.34-5.33.28-.08-3.34 5.34.77-.18 3.35-5.33.28-.07-3.34 5.34.76-.18 3.34-5.34-.4.1zm-8.73 23.8l.2-.3.18.1-.2.3zm-.24-1.04l.2-.32.18.1-.2.3zm-.24-1.07l.2-.3.18.12-.2.27zm1.13 2.52l.2-.3.18.08-.2.3zM44 28.9l.2-.3.2.07-.2.3zm-.23-1.06l.2-.3.17.08-.2.3zm-.24-1.06l.2-.3.18.12-.18.3zm1.13 2.52l.2-.3.17.08-.2.3zm-.24-1.06l.2-.3.17.1-.2.3zm-.24-1.05l.2-.32.18.12-.2.28zm1.12 2.5l.2-.3.18.1-.2.3zm-.24-1.05l.2-.3.18.08-.2.3zm-.24-1.05l.2-.3.18.08-.2.3zm-.24-1.06l.2-.3.18.12-.2.3zm1.13 2.52l.2-.3.15.1-.16.3zM45.48 28l.2-.3.14.1-.15.3zm-.24-1.05l.2-.3.15.12-.17.27zM45 25.9l.13-.23.12-.03.1.08-.17.3zm1.36 3.56l.2-.3.14.1-.2.3zm-.24-1.05l.2-.3.14.1-.2.3zm-.25-1.05l.2-.3.15.1-.2.3zm-.24-1.05l.2-.3.15.12-.2.3zm1.13 2.5l.2-.3.15.1-.2.3zm-.24-1.04l.2-.3.14.1-.2.3zm-.24-1.05l.2-.3.15.13-.2.27zm-.24-1.05l.14-.23.13-.02.1.07-.2.3zm4.8-.1l-.2.3-.18-.1.2-.3zm.23 1.04l-.2.3-.17-.1.2-.3zm.24 1.04l-.18.3-.18-.1.2-.3zm-1.1-2.48l-.2.3-.2-.12.2-.3zm.23 1.02l-.2.3-.18-.1.2-.3zm.24 1.05l-.2.3-.18-.1.18-.3zm.24 1.04l-.18.3-.18-.08.2-.32zm-3.5.93l.2-.3.15.1-.2.3zm-.23-1.05l.2-.3.14.1-.18.3zm-.24-1.06l.2-.3.14.1-.2.3zm-.24-1.06l.18-.3.16.13-.2.3zm1.1 2.5l.2-.3.16.1-.2.3zm-.23-1.04l.2-.3.15.1-.2.3zm-.24-1.05l.2-.3.15.12-.2.27zm-.24-1.06l.13-.24.13-.02.08.08-.2.3zm1.36 3.56l.2-.3.14.1-.2.3zm-.24-1.05l.2-.3.14.1-.2.3zm-.24-1.05l.2-.3.14.1-.2.3zm-.24-1.05l.2-.3.15.12-.2.3zm1.13 2.5l.2-.3.14.1-.18.3zm-.24-1.04l.2-.3.14.1-.2.3zm-.25-1.05l.2-.3.15.13-.2.27zm-.24-1.05l.15-.23.08-.02.1.07-.18.3zm1.37 3.57l.17-.3.2.1-.2.3zm-.23-1.05l.16-.3.2.08-.2.3zm-.24-1.06l.16-.3.17.1-.2.3zm.76-.8l-.2.26-.2-.1.2-.3zm.22 1l-.2.3-.17-.07.2-.3zm.24 1.06l-.2.3-.17-.08.18-.3zm-1.3-2.18l-.17-.12.15-.3.2.12zm6.66-2.44l-.68.16.16.68zm3.22 3.83l.75-.17 3.33-5.34-.75.17zm10.5-24.5l-6.63.83.56 4.42 2.2-.28.1.67.57-.74.28-.03-.82 1.06.1.78 1.52-1.95.22-.03.2.24-.17-.2-1.74 2.22.1.8 2-2.6 1.6 2-3.16 4.07.1.78 3.42-4.4-.23-.3.37.46-3.53 4.53.1.78 3.8-4.9-.2-.22L80.64 23.6l4.42-.54-.16-1.26-.1-.15.07.1.03-.04-.1-.78-.3.4-.46-.63.34.43.4-.5-.1-.8-.67.86-1.1-1.38 1.47-1.88-.1-.8-1.74 2.2.23.27-.34-.4 1.82-2.33-.1-.8-2.1 2.7-.1-.18 2.17-2.8-.1-.8-2.45 3.16-.1-.18 2.53-3.26-.1-.8-2.82 3.63-.5-.6.4.45 2.9-3.75-.1-.8-3.2 4.1zm1.52 12.4l-.1-.78-3.87 4.96.1.8zm13.77 4.6l-.1-.8-1.02 1.3.4.45zm-.13-1.08l-.1-.8-1.38 1.77.38.47zm-13.9-5.63l-.1-.8-3.87 4.97.1.8zm-4.1 3.1l.1.8 3.87-4.98-.1-.8zm4.28 4.37l-.25.03.86-1.1-.1-.8-1.56 2-.28.03 1.8-2.3-.1-.8-2.5 3.2-.27.04 2.72-3.5-.1-.8-3.42 4.4-.28.03 3.67-4.7-.1-.8-3.87 4.96.07.57-2.2.27.53 4.42 8.83-1.1-.55-4.42-2.2.27-.08-.72zm-.05-6.43l-.1-.78-3.87 4.96.1.8zm-1.46-4.3l-.35-.47-2.82 3.62.1.8zm14.44 2.48l-.08-.8-3.54 4.55.38.46zm-3.73 3.6l3.6-4.65-.08-.78-3.88 4.96v.07zm-14.03-4.26l2.35-3.05-.36-.43-2.1 2.7zM68.78 9l-.34-.45-2.47 3.12.1.8zm7.3-4.34l.07.56 1.1.86.57-.07zm8.54-3.43L84.55.7l-.53.06zM76.27 6.2l.47-.06-.53-.4zm8.48-3.9l-.07-.57-1.17-.9-.56.06zm-2.8-1.22l-.23.28-.14-.14.13-.18-.87.1.07.07-.22.3-.17-.15.14-.17-.88.1.07.06-.22.28-.17-.14.17-.18-.9.12.06.05-.22.3-.18-.15.17-.18-.9.1.34.3.04.27.1-.16.2.13-.23.3-.96-.76-.55.08L78.1 2.9l.04.28.1-.17.18.15-.22.25-2.13-1.66-.34.04.02.22 2.48 1.94.04.28.1-.14.18.1-.22.3-2.5-1.97.06.58L78.35 5l.04.3.1-.14.18.1-.22.3-2.5-1.98.06.57 2.3 1.8.16-.02.05.44.1-.14.2.1-.24.3-.04-.04.1.85.1-.18.2.14-.23.3-.04-.03.1.85.1-.18.18.14-.22.3-.04-.04.1.85.1-.18.2.14-.23.25-.05-.02.1.85.26-.32.3-.02-.18-.1.22-.3.17.12-.7.92.1.8 1.18-1.54.25-.03-.14-.1.2-.3.18.1L79.22 12l.1.78 2.13-2.73.25-.03-.14-.1.22-.3.17.1-2.6 3.34.1.8 3.07-3.94.25-.03-.14-.12.22-.3.14.12-3.5 4.54.1.8 3.85-4.98-.1-.8-.1.12-.15-.1.22-.3-.1-.78-.1.14-.15-.14.22-.28-.1-.8-.12.15-.14-.14.22-.3v.04l-.1-.82-.1.15-.15-.12.23-.28-.04-.3.24-.05-.28-.22-.03-.25-.1.14-.16-.1.23-.3.85.67.56-.08-1.47-1.16-.03-.22-.12.1-.14-.1.22-.3 2.06 1.62.37-.05-.03-.18L82.6 3l-.03-.23-.12.1-.14-.1.23-.3L85 4.43l-.06-.57-2.48-1.94-.03-.2-.1.13-.15-.14.22-.3 2.48 1.95-.07-.57L82.48.95l-.57.07zM79.27 9.1l.22-.3.18.15-.22.3zm-.13-1.08l.22-.28.18.14-.22.28zm-.13-1.07l.22-.28.18.14-.22.3zM78.9 5.9l.2-.27.2.1-.24.3zm-.14-1.06l.22-.3.17.12-.22.28zm-.13-1.08l.22-.28.17.1-.22.3zM78.5 2.7l.22-.3.17.14-.23.3zm1.4 6.87l.2-.3.18.15-.22.25zm-.15-1.08l.22-.3.18.15-.22.28zm-.13-1.08l.22-.28.18.14-.22.28zm-.13-1.04l.2-.28.2.1-.23.3zm-.14-1.07l.22-.28.17.1-.22.3zm-.13-1.07l.22-.28.17.1-.22.3zm-.13-1.07l.22-.28.17.14-.23.25zm-.14-1.07l.23-.3.16.14-.22.3zm1.4 6.86l.22-.28.17.14-.22.28zM80.2 7.9l.22-.3.18.15-.22.28zM80.1 6.8l.2-.3.2.15-.23.3zm-.14-1.04l.22-.3.18.12-.22.28zm-.13-1.08l.22-.28.17.1-.22.3zm-.13-1.07l.22-.28.17.1-.23.3zm-.13-1.07l.22-.3.16.15-.22.3zm1.4 6.88l.2-.3.18.15-.22.24zm-.15-1.08l.23-.28.17.14-.22.28zM80.7 7.3l.2-.3.2.14-.23.3zm-.14-1.05l.23-.3.16.12-.22.28zm-.13-1.08l.22-.28.18.1-.22.28zM80.3 4.1l.22-.28.17.1-.23.3zm-.13-1.07l.22-.3.17.15-.23.25zm-.13-1.06l.22-.3.17.15-.22.3zm1.4 6.88l.2-.3.18.15-.22.28zm-.15-1.08l.22-.28.17.13-.23.28zm-.14-1.07l.22-.28.18.13-.22.3zm-.13-1.04l.22-.3.18.12-.22.28zm-.13-1.08l.22-.28.18.1-.23.3zm-.13-1.07l.22-.27.16.1-.22.3zm-.13-1.06l.22-.3.18.15-.23.28zm1.4 6.88l.2-.3.15.15-.23.26zm-.14-1.08l.22-.28.14.14-.22.28zm-.14-1.07l.22-.28.15.13-.22.28zm-.12-1.04l.22-.3.14.13-.22.28zm-.14-1.08l.22-.28.15.1-.22.3zm-.13-1.07l.22-.28.13.1-.22.3zm-.13-1.07l.22-.27.15.14-.22.25zm-.13-1.06l.23-.3.14.15-.22.28zm1.4 6.87l.22-.27.14.14-.22.3zm-.13-1.06l.22-.28.13.14-.22.28zm-.14-1.07l.22-.3.15.16-.22.28zm-.12-1.04l.23-.3.14.12-.22.3zm-.13-1.08l.22-.28.14.1-.23.3zm-.13-1.07l.22-.28.14.1-.22.3zM81.7 2.3l.23-.28.15.14-.23.3zm6.53 19.36l1.14 1.08.57-.02-1.73-1.63zm-.04-1.08l2.25 2.12.57-.02L88.17 20zm.06 2.16l.03.03.57-.02-.63-.58zm.8-4.45l4.6 4.3.57-.03-4.6-4.3zm-.9 1.2l3.37 3.16.57-.02-3.97-3.7zm-.05-1.17l.02.12 4.46 4.18.57-.02-4.6-4.3zm8.2-9.2l2.7 2.53v-.58l-2.1-1.96zm-1.06.04l3.8 3.57-.02-.58-3.2-3zm3.68-.12h-.45l.46.44zm-1.53.05l1.57 1.47-.02-.57-.98-.92zM87.5.53l.03.63.6-.65zm.9-.03l-.86.95.03.8L89.2.46zm.82 4.42l4.3-4.6-.8.03-4.3 4.6zm.26-4.46l-1.9 2.04.02.8L90.27.42zm1.08-.04L87.6 3.58l.04.8L91.34.4zM99.2 17.6l1.82-1.94-.8.03-1.04 1.1zm-.03-1.05l.8-.85-.8.02-.03.04zM92.43.35l-.8.04-3.98 4.26v.32l.5-.02zM103.06 0l-4.98.17-4.3 4.6h-.28l4.3-4.6-.8.03-4.3 4.6h-.28l4.3-4.6-.8.04-4.3 4.6h-.28l4.3-4.6-.8.04-4.3 4.6h-.25L94.6.3l-.8.03-4.3 4.6h.38l.16 4.6 4.43 4.15-.5.02-3.92-3.65.02.57 3.32 3.1h-.52l-2.8-2.6.03.57 2.2 2.06h-.47l-1.7-1.6.02.58 1.1 1.06-.5.02-.6-.56.18 5.02h-.2l4.6 4.3h.58l-4.6-4.3.52-.03 4.6 4.3h.57l-4.6-4.3.5-.02 4.6 4.3.57-.02-4.6-4.3.5-.02 4.6 4.3.57-.02-4.6-4.3h.5L99 22.4l.95-.05.06-.06.07.07.92-.03.1-.07.06.06.92-.03.1-.07.06.07.92-.04.06-.06.1.06.47-.02v-.35l-.12.12-.17-.12.26-.26h.03l-.04-.83-.12.14-.16-.12.24-.26h.03l-.02-.83-.13.14-.16-.13.25-.26.02.03-.03-.8-.13.12-.17-.16.25-.26.03.03-.03-.83-.18.2h-.3l.47-.48-.02-.8-1.23 1.32h-.3l1.5-1.6v-.67h-.14l-2.15 2.3h-.27l2.14-2.3-.8.04-2.14 2.3-.28.02 2.14-2.3-.8.02-2.08 2.24v.06l-.48.02.5.46v.25l.13-.13.13.15-.22.26-1.05-1-.57.03 1.6 1.5.02.25.12-.13.13.12-.2.26-2.17-2-.58.02 2.73 2.55.02.26.12-.13.13.12-.2.26-3.3-3.04-.56.02 3.84 3.6v.25l.14-.12.13.12-.2.26-4.4-4.08h-.22l-.15-4.44.4-.02-4.6-4.3.52-.02 4.6 4.3.57-.02-4.6-4.3h.5l4.6 4.3.58-.03-4.6-4.3.5-.02 4.6 4.3.57-.02-4.6-4.3h.5l4.58 4.3.32-.02v-.25l-4.34-4.05h-.26l-.15-4.44h.26L98.62.38v.28l-3.76 4.04.8-.03 3-3.23v.3l-2.72 2.9.8-.02 1.96-2.1v.3L97 4.64l.78-.03.95-.98v.25l-.66.7h.7l.07 2.2 4.44-.14zm.03 17.88l.16.15-.25.27-.12-.16zm.03 1.08l.16.15-.25.28-.14-.16zm.03 1.08l.17.12-.25.27-.13-.13zm.04 1.08l.16.12-.24.27-.13-.12zm-.6-2.68l.13.15-.24.26-.14-.16zm.04 1.08l.13.12-.25.26-.13-.12zm.04 1.08l.13.12-.24.26-.13-.12zm.03 1.08l.14.12-.24.27-.13-.13zm-.66-3.76l.14.15-.25.26-.13-.15zm.04 1.08l.13.15-.23.26-.13-.14zm.04 1.08l.13.12-.25.26-.13-.12zm.03 1.08l.14.12-.26.26-.13-.12zm-.63-2.7l.14.17-.25.26-.12-.16zm.04 1.1l.13.12-.25.26-.14-.12zm.04 1.08l.13.12-.25.26-.13-.12zm.03 1.08l.13.12-.24.26-.13-.12zm-.66-3.77l.13.16-.25.27-.13-.15zm.03 1.08l.13.16-.24.25-.14-.15zm.04 1.08l.13.14-.25.26-.13-.12zm.04 1.1l.13.12-.24.26-.13-.12zm-.64-2.7l.14.17-.25.26-.13-.16zm.04 1.1l.13.1-.23.28-.13-.13zm.04 1.07l.13.12-.25.26-.13-.12zm.03 1.08l.14.13-.26.26-.13-.12zM99.9 18l.12.14-.25.27-.13-.15zm.02 1.07l.14.15-.25.27-.12-.17zm.04 1.08l.13.12-.25.27-.14-.13zm.04 1.08l.13.12-.25.27-.13-.13zm26.96-4.15l.05-.57-4-4.83-.06.57zm.1-1.04l.05-.57-4-4.85-.06.57zm-.2 2.12l.05-.57-4-4.85-.06.56zm.4-4.28l.05-.57-4-4.83-.06.57zm-.1 1.08l.05-.57-4-4.85-.06.57zm.2-2.15l.05-.56-4-4.85-.06.56zm-3.87-6.48l-.06.57 4 4.83.07-.57zm5.15 16.64l-.73.6.66.06zm.02-.3l.08-.78-1.9 1.58.8.07zm-7.96-4.24l-.56-.05-.05.57zm5.7 2.16l1.77-1.47-.8-.06-.72.63-.14-.17.63-.5-.35-.02.03-.3-4-4.86-.06.57 3.8 4.56-.2-.02-.17.14-.15-.17h.03-.03l-3.32-4-.06.57 2.8 3.4-.18-.03-.17.14-.12-.17h-.03L122.6 16l-.06.57 1.84 2.2h-.2l-.16.14-.12-.18h-.03l-1.37-1.66-.06.57.86 1.04-.2-.02-.16.14-.1-.18-.44-.52-.04.48-.32-.03-2.07 1.72-.08.8 2.62-2.2.1.18-.27.23-.05-.1v.16l-2.43 2-.08.8 2.62-2.18.1.17-.27.23-.05-.1v.16l-2.43 2-.04.4.4.02 2.2-1.8.1.13-.27.23-.06-.07v.16l-1.67 1.37.8.07 1-.83.1.15-.27.23-.06-.07v.17l-.5.4 1.05.1-.12-.14.28-.23.12.14-.27.23 1.07.1-.1-.14.26-.23.12.14-.28.23 1.08.1-.12-.14.25-.23.14.14-.27.23 1.07.1-.15-.14.28-.23.15.14-.28.23.8.07 2.2-1.84.08-.8-2.5 2.08-.14-.14 2.67-2.2.07-.8-2.48 2.06-.15-.14 2.67-2.2.02-.26-.54-.05-1.9 1.6zm-3.87 1.26l.28-.22.12.13-.27.23zm.1-1.07l.28-.23.12.17-.27.2zm.1-1.08l.28-.24.12.17-.28.23zm.3 2.73l.26-.23.1.14-.27.23zm.1-1.07l.26-.23.1.14-.27.22zm.1-1.08l.26-.23.1.17-.27.23zm.1-1.08l.26-.23.1.17-.27.23zm.28 2.74l.28-.23.12.15-.28.23zm.1-1.07l.28-.23.1.17-.26.2zm.1-1.08l.28-.24.1.17-.26.23zm.3 2.73l.27-.23.1.14-.26.23zm.1-1.07l.27-.23.1.13-.26.23zm.1-1.08l.27-.23.1.17-.27.23zm.1-1.08l.27-.23.1.17-.27.23zm.28 2.74l.25-.23.14.15-.27.23zm.1-1.07l.24-.23.15.17-.28.2zm.1-1.08l.24-.24.15.17-.28.23zm.26 2.73l.27-.23.16.14-.28.23zm.1-1.08l.27-.23.16.14-.28.23zm.1-1.07l.27-.23.16.17-.28.23zm.1-1.08l.27-.23.16.17-.28.23zm.28 2.74l.28-.23.15.15-.28.23zm.1-1.08l.28-.22.14.17-.27.2zm.1-1.07l.28-.24.14.17-.27.23zm-4.17-1.48l-.8-.08-.88.75-.08.78zm8.6-17.1l-2.38 2-.1-.18.26-.23.1.18.04-.28 1.8-1.5-.8-.07-1.2 1-.12-.13.28-.23.1.14.04-.25.65-.54-.8-.07-.05.03-.03-.04-.98-.1-.04.04-.06-.04-.98-.1-.03.04-.03-.03-1-.1-.05.03-.02-.03-7.6-.7-.6 6.64 4.42.4.2-2.2 2.22.2-.06.54 4 4.85.07-.57-3.98-4.8.47.04 3.55 4.3.05-.58-3.04-3.67.5.05 2.6 3.1.04-.56-2.06-2.5.5.06 1.6 1.94.06-.57-1.1-1.33.52.05.63.76.05-.57-.1-.13.56.05 1.93-1.6-.04.28-1.62 1.35.8.07.75-.63-.04.28-.45.37.43.04-.2 2.2 4.42.42.6-6.65zm-6.72 3.38l.04-.03.1.17-.17.14zm.1-1.08l.03-.03.12.16-.18.15zm.1-1.08l.03-.02.12.17-.18.13zm.1-1.07h.03l.12.14-.18.15zm.05 2.94l.27-.22.1.17-.26.23zm.1-1.07l.27-.23.1.17-.26.23zm.1-1.04l.27-.24.1.14-.26.23zm.1-1.1l.27-.22.1.14-.26.23zm.18 3.8l.25-.23.15.17-.27.23zm.1-1.08l.25-.23.15.16-.27.23zm.1-1.07l.25-.24.15.2-.28.22zm.1-1.05l.24-.23.15.14-.28.24zm.26 2.7l.28-.22.14.17-.28.23zm.1-1.07l.28-.23.14.17-.28.23zm.1-1.04l.27-.24.14.14-.28.23zm.1-1.1l.27-.22.14.14-.28.23zm.2 3.8l.26-.23.15.17-.28.23zm.1-1.08l.26-.23.15.16-.28.23zm.1-1.08l.26-.23.15.2-.28.22zM125.8 2l.28-.23.15.14-.28.24zm.3 2.7l.27-.22.14.17-.26.23zm.1-1.07l.27-.23.14.17-.26.23zm.1-1.04l.27-.24.14.14-.26.23zm.1-1.1l.27-.22.14.14-.26.23zm.18 3.8l.28-.23.14.17-.27.23zm.1-1.08l.28-.23.14.16-.28.23zm.1-1.08l.28-.23.14.2-.28.2zm.1-1.04l.27-.23.15.14-.28.24zm.3 2.7l.27-.22.1.17-.24.23zm.1-1.07l.27-.23.1.17-.24.23zm.1-1.04l.26-.24.12.13-.25.23zm.1-1.1l.26-.22.12.14-.25.23zm.3 3.96l-.12-.17.27-.24.12.14.02-.25 2.42-2-.04.27zm.1-1.07l-.12-.18.27-.23.12.13.02-.26 2.42-2-.04.28zm15.08 20.14l.14-.78-2.1 1.46.78.14zm-6.18-.1l.78.15 5.17-3.6-.78-.13zm6.13.4l-.84.57.72.15zm-8.2-4.5l-.15.78 1.85-1.27-.8-.15zM148.56 5.1l-.14.8 2.1-1.46-.78-.14zm-13.83 15.06l.6-.4-.5-.1zm8.6 2.36l.15-.78-4.63 3.2.78.13zm-.2 1.06l.16-.78-3.37 2.32.78.15zm14-17.92l-2.28 1.58-.13-.15 2.14-1.5-.75-.13-1.07.74-.13-.18.92-.6-1.03-.2.1.16-.28.2-.1-.18.26-.18-1.03-.2.1.16-.3.2-.1-.18.27-.18-1.03-.2.1.16-.3.2-.1-.18.26-.18-1-.18.07.14-.3.2-.1-.18.27-.18-.78-.14-2.44 1.68-.15.78 2.77-1.9.1.17-.26.22-.05-.08-.03.1-2.6 1.8-.13.77 2.77-1.9.1.17-.25.18-.06-.04-.03.1L148 8.3l-.05.18.6.1 2.07-1.42.1.14-.27.2-.05-.03-.02.1-1.55 1.07.78.14.82-.56.1.15-.26.2-.06-.04-.02.1-.3.2.26.04-.04.22 3.4 4.92-.48-.1-3-4.36-.1.57 2.54 3.7-.5-.1-2.14-3.1-.1.56 1.68 2.43-.5-.1-1.28-1.84-.1.55.82 1.2-.5-.1-.4-.6-.1.5L143 12.1l.8-4.4.34.07-3.57-5.18-.56-.1 3.58 5.17-.47-.08-3.56-5.2-.56-.1 3.57 5.18-.5-.1-3.57-5.17-.44-.07-.02.13 3.47 5.03-.5-.1-3.07-4.44-.1.56 2.6 3.77-.5-.1-2.2-3.18-.1.56 1.73 2.52h.07l-2.4 13.15-.4-.07-2.13 1.48-.14.78 3.07-2.12.28.05-3.4 2.35-.14.8 4.33-3 .27.05-4.66 3.22-.07.42.34.07 5.18-3.6.28.06-5.17 3.58.78.14 5.17-3.57.3.06-5.18 3.57.78.15 5.17-3.58-.28-.05.8-4.38 6.43 1.18 3.5 5.08.1-.57-3.04-4.4.5.1 2.62 3.8.1-.56-2.17-3.13.47.08 1.78 2.6.1-.57-1.32-1.92.5.1.92 1.32.1-.56-.46-.67.5.1.05.07.87-4.8-3.3-4.76.2.03.18-.14.1.15v.04h.03l2.88 4.2.1-.57-2.42-3.52.16.03.22-.12.1.15-.04.03h.06l2.02 2.94.1-.56-1.55-2.25.16.03.22-.13.1.15-.04.03h.06l1.15 1.68.1-.56-.68-1 .15.03.2-.13.12.16-.04.02h.07l.28.42.06-.34.38.07 2.15-1.5.14-.77-2.7 1.87-.13-.16 2.88-1.98.15-.78-2.7 1.86-.13-.15 2.88-2 .08-.43zM150.75 8l.3-.2.1.15-.3.2zm.2-1.06l.3-.2.1.15-.3.2zm.2-1.06l.3-.2.1.18-.3.2zm.05 2.75l.28-.2.1.15-.3.2zm.18-1.06l.3-.2.1.15-.3.2zm.2-1.06l.3-.2.1.2-.3.16zm.2-1.06l.3-.2.08.18-.3.2zm.03 2.76l.3-.2.1.15-.28.2zm.2-1.06l.3-.2.1.15-.3.2zm.2-1.07l.3-.2.1.18-.3.2zm.05 2.76l.3-.2.1.15-.3.2zm.2-1.06l.3-.2.1.14-.3.2zm.2-1.07l.28-.2.1.18-.3.18zm.18-1.06l.3-.2.1.18-.3.2zm.05 2.76l.3-.2.1.14-.3.2zm.2-1.07l.3-.2.1.15-.3.2zm.2-1.06l.28-.2.1.18-.3.2zm.03 2.76l.3-.2.1.14-.3.2zm.2-1.07l.3-.2.1.15-.3.2zm.2-1.06l.3-.2.1.18-.3.17zm.2-1.07l.3-.2.1.18-.3.2zm.04 2.76l.26-.22.14.15-.3.2zm.2-1.07l.26-.2.13.14-.3.2zm.2-1.07l.25-.2.12.18-.3.2zm2.44 3.17l-.55.38.47.1zm.05-.28l.15-.78-1.8 1.25.77.14zM138.6 24.88l4.94-3.42.04-.2-.6-.1-5.17 3.57zM148.6 4.86l.88-.6-.75-.15zm-2.74-1.27l-.56-.1 1.2 1.73.1-.57zm.47.07l.36.52.1-.45zm-1.53-.28l-.56-.1 2.06 3 .1-.57zm-7.28 1.5l-.1.56.86 1.26.56.1zm-.2 1.06l-.1.56.56.1zm11.02 12.66l2.78 4.04-.5-.1-2.38-3.44-.1.57 1.9 2.76-.5-.1-1.5-2.17-.1.55 1.05 1.52-.5-.1-.63-.92-.1.56.18.27-2.4-.44-.8 4.38 8.74 1.62.8-4.38-2.6-.48-3.24-4.7zm-2.32-10.77L142.7 3l-.57-.1 3.57 5.18.28.05zm-2.28-4.65l-.56-.1 2.93 4.25.1-.56zm-2.13-.4l-.56-.1 3.57 5.2.56.1zM154.8 26.8l.77 1.36.55.15-1.18-2.08zm.27-1.05l1.54 2.7.56.15-1.94-3.4zm-.56 2.1l.03.03.55.15-.42-.73zm2.1-4.02l3.1 5.47.56.15-3.12-5.46zm-1.24.9l2.3 4 .54.16-2.7-4.72zm.3-1.14l-.03.12 3.03 5.3.56.16-3.12-5.47zm10.55-6.35l1.84 3.2.15-.55-1.44-2.5zm-1.03-.28l2.6 4.53.14-.55-2.18-3.83zm3.55.97l-.42-.13.3.55zm-1.47-.4l1.07 1.86.15-.55-.66-1.16zm-6.9-11.13l-.18.62.78-.46zm.85.24l-1.1.66-.2.77 2.06-1.2zm-.53 4.48l5.46-3.13-.77-.2-5.45 3.12zm1.57-4.2l-2.42 1.4-.2.76L163 7.1zm1.04.3l-3.74 2.14-.2.77 4.7-2.7zm3.2 18.96l2.3-1.3-.77-.22-1.3.76zm.28-1l1-.6-.76-.2-.04.03zM165.1 7.66l-.78-.2-5.06 2.9-.1.3.47.12zm10.25 2.8l-4.8-1.3-5.47 3.1-.27-.06 5.47-3.12-.77-.2-5.46 3.12-.27-.08 5.45-3.12-.76-.2-5.46 3.1-.27-.06 5.45-3.13-.76-.2-5.46 3.13-.25-.07 5.47-3.12-.76-.2-5.45 3.1.37.1-1.2 4.46 3 5.27-.5-.13-2.65-4.65-.15.55 2.25 3.94-.5-.14-1.88-3.32-.16.55 1.5 2.6-.47-.12-1.16-2.03-.14.55.76 1.33-.5-.13-.4-.7-1.3 4.84-.2-.05 3.13 5.46.55.15-3.12-5.46.5.14 3.1 5.46.56.15-3.12-5.47.5.13 3.1 5.47.56.15-3.12-5.47.5.15 3.1 5.46.56.16-3.12-5.46.46.12 3.12 5.47.92.24.08-.05.04.07.9.24.1-.02.05.08.88.24.1-.04.06.08.9.24.07-.04.08.08.46.13.1-.34-.16.1-.12-.16.32-.18h.03l.2-.8-.14.1-.12-.17.32-.2.03.02.22-.8-.16.1-.1-.17.3-.18.03.04.2-.8-.14.1-.12-.2.3-.18.03.04.23-.8-.24.14-.28-.08.58-.33.2-.78-1.55.9-.27-.08 1.9-1.1.18-.64-.12-.04-2.73 1.57-.27-.08 2.73-1.56-.76-.22-2.73 1.56-.28-.07 2.72-1.57-.76-.2-2.66 1.5v.08l-.47-.13.33.6-.06.23.15-.1.08.2-.28.2-.7-1.26-.56-.15 1.08 1.9-.07.25.17-.1.1.17-.3.18-1.47-2.55-.55-.15 1.85 3.24-.07.25.15-.1.1.16-.3.2-2.22-3.88-.56-.15 2.6 4.56-.06.25.16-.08.1.16-.3.18-3-5.2-.2-.05 1.17-4.3.4.12-3.12-5.47.5.14 3.1 5.45.56.15-3.1-5.46.48.13 3.12 5.47.55.15-3.12-5.48.5.14 3.1 5.46.56.15-3.13-5.46.46.13 3.12 5.47.3.08.07-.24-2.94-5.16-.24-.06 1.16-4.3.25.06L171 9.54l-.08.27-4.8 2.76.77.2 3.8-2.18-.06.28-3.47 1.98.76.2 2.5-1.42-.08.28-2.17 1.22.76.2 1.2-.65-.06.24-.86.5.67.2-.6 2.13 4.3 1.17zm-5.24 17.1l.12.2-.3.17-.1-.2zm-.28 1.04l.12.2-.32.18-.08-.2zm-.28 1.05l.12.16-.3.2-.1-.16zm-.28 1.04l.12.16-.32.18-.08-.16zm.22-2.75l.08.2-.3.17-.1-.2zm-.3 1.04l.1.15-.3.18-.1-.16zm-.27 1.04l.1.15-.3.17-.1-.15zm-.27 1.04l.08.16-.3.17-.1-.14zm.47-3.8l.08.2-.3.17-.1-.18zm-.3 1.05l.1.2-.32.17-.08-.2zm-.27 1.04l.1.16-.32.18-.08-.15zm-.28 1.05l.1.15-.33.18-.1-.16zm.18-2.75l.1.18-.33.18-.08-.2zm-.28 1.04l.1.17-.32.17-.1-.15zm-.28 1.05l.1.16-.33.2-.08-.17zm-.3 1.05l.1.15-.3.18-.1-.16zm.5-3.8l.07.2-.32.17-.08-.2zm-.3 1.05l.08.18-.3.18-.1-.18zm-.28 1.04l.08.14-.3.18-.1-.15zm-.3 1.03l.1.16-.32.17-.1-.16zm.2-2.75l.07.2-.3.17-.1-.2zm-.3 1.05l.1.15-.3.18-.1-.16zm-.27 1.04l.08.15-.3.18-.1-.15zm-.3 1.04l.1.17-.3.18-.1-.16zm.48-3.78l.1.18-.32.18-.08-.18zm-.27 1.04l.08.2-.3.17-.08-.2zm-.28 1.04l.1.16-.33.18-.08-.16zm-.3 1.05l.1.15-.3.18-.1-.15zm26.68-13.27l-6.53 5-1.7-8.06-5.28-1.97-1.4.64-.27.73 2.08-.95.06.22-2.25 1-.27.74 2.6-1.2.07.2-2.77 1.27-.28.76 3.14-1.44.07.2-3.3 1.5-.04.12.62.24 2.86-1.3.02.2-2.6 1.2.73.28 2-.92.03.18-1.77.84.18.06-.2.57 1.9-.9.04.2-2.04.93-.28.74 2.44-1.1.04.2-2.58 1.17-.27.74 2.97-1.36.02.2-3.1 1.43-.3.75 3.52-1.6.04.17-3.65 1.7-.27.75 4.05-1.86.06.2-4.2 1.92-.28.75 4.58-2.13.05.23-4.74 2.17-.28.74 5.12-2.37.05.23-5.26 2.37-.28.74 5.63-2.57 1.75 8.25 6.86-5.25 2.52 5.53.2-.54-2.4-5.24.3-.23 2.28 5 .2-.54-2.15-4.7.28-.2 2.05 4.43.2-.53-1.92-4.15.33-.22 1.78 3.9.2-.55-1.67-3.6.32-.23 1.52 3.4.2-.55-1.4-3.1.3-.23 1.28 2.85.2-.54-1.1-2.4.47.17.8 1.76.2-.53-.46-1.02.47.17.17.37.1-.28 2.1.78 1.54-4.17zm-12.4 14.38l-.47-.17.3.64zm-1.7-1.8l.28-.73-2.4 1.1.36.13 2.18 4.8.2-.52-1.88-4.1-.12-.03zm1.15 3.3l.2-.54-.6-1.3-.53-.2zm-1.53-2.27l.28-.76-1.02.47.34.13 1.57 3.44.2-.54-1.23-2.7-.12-.04zm-6.32-2.13l2.48 5.44.55.2-2.62-5.72-.32-.12zm7.82-1.9l.28-.75-5.72 2.62-.2.6-.28-.1 2.62 5.73.53.2-2.6-5.73-.13-.04zm-.37.98l.28-.74-5.18 2.38.35.14 2.62 5.72.53.2-2.6-5.72-.16-.06zm-5.98 5.98l.54.2-2.2-4.78-.2.53zm5.6-4.97l.28-.74-3.8 1.74.36.13 2.62 5.72.33.12.07-.2-2.5-5.45-.14-.06zm-3.57 5.73l.53.2-2.62-5.74-.53-.2zm16.5-2.2l.2-.55-2.62-5.72-.2.53zM190 24.4l-.2.55 2.6 5.72.2-.53zm1.66 8.27l.2-.54-2.62-5.72-.2.55zm-20.63-.46l-.3-.64-.17.47zm.48.2l.54.2-.93-2.06-.2.54zm19.78 1.3l.2-.55-2.6-5.72-.2.53zm-18.76-.93l.54.2-1.57-3.44-.2.54zm18.4 1.93l.2-.54-2.63-5.72-.2.54zm-12.63-23.5l-.28.75 1.03-.5-.7-.27zm7 21.57l-.7-.25-.25.68zm6.36 6.28l.28-.74-2.04.94.74.28zm-5.36-5.9l-.74-.28-1.3.6-.3.75zm5.26 6.17l-.65.3.5.18zm-1.26-2.98l2.04-.94-.74-.27-1.02.46.1-.28.65-.3-.75-.27-.04.02-2.43-5.32-.18.54 2.07 4.53-.43-.16-.04.02-1.8-3.94-.2.54 1.45 3.15-.42-.16h-.04l-1.16-2.52-.2.53.8 1.77-.4-.15h-.05l-.5-1.16-.2.54.18.4-.4-.15-2.7 1.24-.28.73 2.85-1.3-.03.08.06.13-2.97 1.34-.27.74 2.86-1.3-.06.12.06.13-2.97 1.33-.08.2.54.2 2.1-.96-.03.12.05.12-1.86.83.74.27.74-.34-.05.12.06.1-.5.22 4.77 1.77 2.4-1.1.3-.74-2.87 1.3.1-.26 2.86-1.3.27-.76-2.87 1.3.1-.23 2.85-1.3.16-.42-.33-.12-2.4 1.1zm-4.68.46l.33-.15.07.16-.3.18zm.38-1l.32-.16.07.2-.3.15zm.37-1.03l.33-.15.06.2-.3.16zm.38-1l.32-.13.07.16-.3.17zm-.8 3.73l.32-.15.07.16-.33.16zm.37-1.02l.32-.15.07.2-.3.12zm.37-1l.32-.16.06.2-.32.14zm.37-1.02l.33-.15.06.2-.33.15zm-.44 2.72l.33-.15.07.16-.32.14zm.38-1.02l.34-.15.06.2-.33.16zm.4-1l.3-.16.08.2-.33.14zm.36-1.02l.32-.12.07.16-.32.15zm-.8 3.73l.32-.15.07.17-.32.14zm.37-1l.32-.16.07.2-.32.12zm.37-1.02l.33-.15.06.2-.33.14zm.38-1.02l.33-.15.07.2-.33.15zm-.43 2.72l.32-.15.08.17-.33.15zm.37-1l.33-.16.06.2-.3.13zm.38-1.02l.32-.15.07.2-.34.14zm.37-1.02l.32-.1.06.16-.32.15zm-.8 3.75l.32-.15.06.16-.32.15zm.37-1l.33-.16.06.18-.32.12zm.38-1.03l.32-.15.07.2-.32.15zm.37-1l.32-.16.06.2-.32.14zm-.44 2.7l.32-.14.08.17-.33.15zm.37-1l.33-.15.06.2-.32.14zm.38-1l.34-.16.06.2-.33.14zm.4-1.03l.3-.13.08.17-.33.15zm-.83 3.73l.3-.16.1.17-.32.15zm.38-1.02l.3-.15.1.2-.32.13zm.38-1l.3-.16.1.2-.34.15zm.37-1l.3-.17.1.2-.33.15zM175.92 24l-.28.73 5.72-2.62.27-.73zm4.3 1.15l.28-.74-5.7 2.63-.3.74zm.76-2.02l.28-.75-5.72 2.62-.28.75zm-.38 1l.28-.74-5.72 2.6-.27.76zm12.12 15.1l.53 1.48.5.25-.78-2.24zm.47-.98l1.02 2.92.5.25-1.28-3.7zm-.94 1.95v.04l.53.25-.3-.82zm2.76-3.58l2.1 5.94.5.25-2.08-5.93zm-1.36.65l1.53 4.37.5.25-1.8-5.15zm.5-1.06l-.05.12 2.04 5.77.5.24-2.08-5.94zm11.52-4.34l1.22 3.48.25-.52-.96-2.7zm-.98-.47l1.73 4.9.25-.5-1.46-4.16zm3.33 1.6l-.4-.2.2.6zm-1.38-.67l.72 2.03.24-.5-.43-1.3zm-4.8-12.18l-.28.57.84-.3zm.8.38l-1.2.45-.35.72 2.26-.82zm-1.32 4.3l5.92-2.1-.7-.33-5.94 2.1zm2.3-3.83l-2.64.92-.35.72 3.68-1.3zm.96.46l-4.07 1.44-.35.7 5.13-1.8zm-.26 19.24l2.5-.88-.72-.35-1.44.5zm.45-.95l1.1-.4-.73-.33h-.04zm1.48-17.48l-.72-.34-5.5 1.94-.14.3.43.2zm9.6 4.6l-4.5-2.15-5.93 2.1-.26-.13 5.92-2.1-.72-.35-5.92 2.1-.26-.13 5.93-2.1-.72-.34-5.93 2.1-.26-.13 5.93-2.1-.7-.33-5.94 2.1-.23-.12 5.93-2.1-.72-.34-5.92 2.1.35.16-2 4.16 2.02 5.72-.45-.2-1.78-5.06-.25.5 1.5 4.3-.45-.22-1.27-3.6-.24.5 1 2.85-.42-.2-.78-2.2-.25.5.5 1.45-.45-.22-.27-.77-2.16 4.54-.17-.1 2.1 5.95.5.25-2.1-5.94.47.22 2.1 5.94.5.24-2.1-5.94.47.22 2.1 5.94.5.24-2.08-5.94.46.22 2.1 5.94.5.25-2.1-5.94.44.2 2.1 5.95.85.4.1-.02.02.08.84.4h.1l.04.07.83.4h.1l.04.08.83.4.1-.03.05.1.43.2.15-.3-.17.05-.1-.18.35-.12h.04l.35-.74-.18.06-.1-.18.35-.12.03.02.36-.75-.17.05-.1-.18.34-.12v.04l.37-.76-.16.06-.07-.2.34-.13.02.04.36-.73-.26.1-.25-.14.63-.22.34-.7-1.7.6-.25-.13 2.07-.73.28-.6-.1-.06-2.97 1.05-.26-.13 2.96-1.04-.7-.35-2.98 1.06-.26-.12 2.97-1.05-.7-.35-2.9 1v.07l-.44-.2.22.63-.1.23.16-.06.05.2-.32.14-.48-1.36-.52-.25.73 2.08-.1.23.17-.06.06.17-.3.13-1-2.77-.52-.25 1.25 3.52-.1.23.16-.06.07.17-.3.14-1.52-4.22-.5-.24 1.73 4.96-.1.23.16-.05.06.17-.3.13-2.02-5.65-.2-.1 1.92-4.02.37.18-2.1-5.94.47.22 2.1 5.94.5.25-2.1-5.94.47.2 2.1 5.95.52.24-2.1-5.94.46.22 2.1 5.93.5.26-2.08-5.94.43.2 2.1 5.95.28.14.12-.22-1.97-5.6-.23-.1 1.92-4.03.22.1 5.6-1.96-.13.25-5.2 1.83.7.35 4.16-1.47-.13.26-3.77 1.33.7.34 2.72-.96-.12.26-2.36.8.72.35 1.3-.44-.1.24-.95.33.64.3-.96 2 4 1.93zm-8.23 15.87l.08.22-.34.12-.06-.2zm-.46.98l.06.2-.34.13-.04-.2zm-.48.97l.1.18-.35.12-.06-.17zm-.47.97l.1.18-.35.12-.06-.17zm.7-2.66l.06.2-.33.13-.05-.2zm-.46 1l.05.16-.33.12-.06-.17zm-.47.96l.06.17-.35.12-.06-.17zm-.47.98l.06.17-.34.13-.06-.17zm1.15-3.65l.05.2-.34.1-.03-.2zm-.46.97l.05.2-.35.12-.05-.2zm-.47.97l.06.17-.33.13-.06-.17zm-.46.98l.07.17-.34.1-.06-.16zm.7-2.67l.03.2-.34.12-.05-.2zm-.48.97l.06.17-.34.1-.06-.16zm-.47.98l.06.17-.32.1-.06-.15zm-.46.97l.05.17-.34.12-.05-.17zm1.13-3.65l.05.2-.34.12-.05-.2zm-.46.98l.04.2-.33.12-.04-.2zm-.47.97l.06.17-.34.12-.06-.17zm-.47.98l.06.17-.34.12-.06-.17zm.68-2.67l.06.2-.34.12-.05-.2zm-.45.97l.06.17-.33.12-.06-.17zm-.47.98l.06.17-.34.12-.06-.17zm-.46.97l.05.17-.33.12-.06-.18zm1.14-3.64l.05.2-.33.12-.05-.2zm-.47.97l.04.2-.34.12-.05-.2zm-.47.98l.06.18-.35.12-.06-.17zm-.47.98l.06.17-.34.12-.06-.17z" class="cls-1"/></svg>