<svg xmlns="http://www.w3.org/2000/svg" width="180.88" height="40.688"><defs><style>.cls-1 { fill: #fff; fill-rule: evenodd; }</style></defs><path id="Time_working_out" d="M35.88 9.84q.63-.6 1.1-1.1a7.12 7.12 0 0 0 .8-1.05 4.16 4.16 0 0 0 .46-1.1 4.96 4.96 0 0 0 .16-1.26 5.2 5.2 0 0 0-.42-2.08 5.28 5.28 0 0 0-1.15-1.7 5.35 5.35 0 0 0-1.7-1.14A5.18 5.18 0 0 0 33.06 0h-2a1.12 1.12 0 0 0-.23.02l-4.86 4.85a2.07 2.07 0 0 0-.02.23v.23h.18L31.28.17V.4l-4.92 4.93H27l4.28-4.3v.23l-4.06 4.07h.63l3.43-3.43v.23l-3.2 3.2h.64l2.56-2.57V3l-.7.7a1.7 1.7 0 0 1 .7-.15h1.78a1.73 1.73 0 0 1 1.26.52 1.7 1.7 0 0 1 .52 1.26 1.27 1.27 0 0 1-.03.26.83.83 0 0 1-.14.34 3.75 3.75 0 0 1-.4.5c-.2.2-.46.47-.82.8-.18.16-.52.48-1 .94s-1.1 1-1.77 1.64-1.42 1.33-2.24 2.08-1.65 1.52-2.48 2.3v3.6h1.37c.1-.1.18-.2.3-.3s.2-.2.3-.27l.57.56h.45l-.8-.8a.12.12 0 0 1-.07.05 2.77 2.77 0 0 0 .28-.25l1 1h.45l-1.2-1.2a3.63 3.63 0 0 1 .3-.3l-.08.1 1.4 1.4h.43l-1.6-1.64c.12-.1.23-.2.33-.3s.2-.2.33-.3l2.22 2.23h.46l-2.44-2.46a.7.7 0 0 1-.1.08 1 1 0 0 0 .15-.13l.14-.16 2.64 2.65h.46l-2.85-2.86c.06-.07.13-.13.18-.2a1.7 1.7 0 0 1 .2-.16.98.98 0 0 0-.18.15l3.05 3.06h.45l-3.27-3.3zm-6.37 5.93l2 2.03h-.45l-1.8-1.8a2.14 2.14 0 0 1 .26-.23zm-2.03 1.88l.16.15h.45l-.38-.38zM26.17 3.8c-.03.15-.06.28-.1.42a2.96 2.96 0 0 0-.07.4L30.57.04a3.52 3.52 0 0 0-.4.08c-.14.04-.28.07-.4.1zM27.15 2a5.3 5.3 0 0 0-.86 1.5L29.43.32a5.37 5.37 0 0 0-1.5.87zm7.7 11.75l1.27-1.27h-.63l-.63.64v.63zm1.42.5h-.15l.1.1-.22.2-.1-.1 1.96-1.97h-.64l-1.78 1.78h-.17l.07.08-.2.2-.1-.1 1.95-1.96h-.63l-1.5 1.5v.28h-.46l.5.5-.04.08v.28l-.86-.86h-.46l1.37 1.37-.06.06v.3l-1.73-1.72h-.44l2.23 2.24-.06.05v.28l-2.57-2.56h-.45l3.07 3.1-.06.05v.27l-3.43-3.44h-.27l-.1.1 3.48 3.46h.57l.15-.16.1.13-.02.02h.63l.15-.16.1.13-.02.02h.64l.12-.16.13.13-.03.02h.64l.13-.16.1.13-.04.02h.54V13.8l-.4.4h-.2l.1.1-.2.2-.12-.1.82-.83v-.64l-1.27 1.27h-.16l.08.08-.2.2-.1-.1 1.65-1.67v-.28h-.36zm-1.14 2.88l-.1-.1.2-.2.1.12zm0-.85l-.1-.13.2-.18.1.1zm0-.87l-.1-.1.2-.2.1.1zm.43 2.17l-.1-.13.2-.2.1.13zm0-.87l-.1-.13.2-.2.1.13zm0-.86l-.1-.1.2-.2.1.1zm0-.87l-.1-.1.2-.2.1.1zm.43 2.16l-.1-.1.2-.2.1.12zm0-.85l-.1-.13.2-.18.1.1zm0-.87l-.1-.1.2-.2.1.1zm2.24-.73l.12.1-.2.2-.13-.1zm0 .86l.12.1-.2.2-.13-.1zm0 .85l.12.13-.2.2-.13-.13zm0 .87l.12.12-.2.2-.13-.12zm-.43-2.14l.1.1-.2.2-.12-.1zm0 .86l.1.1-.2.2-.12-.12zm0 .84l.1.13-.2.2-.12-.12zm-.45-2.13l.13.1-.2.2-.13-.1zm0 .86l.13.1-.2.2-.13-.1zm0 .85l.13.13-.2.2-.13-.13zm0 .87l.13.12-.2.2-.13-.12zm-.94.33l-.1-.13.22-.2.1.13zm0-.87l-.1-.13.22-.2.1.13zm0-.86l-.1-.1.22-.2.1.1zm0-.87l-.1-.1.22-.2.1.1zm.45 2.16l-.1-.1.17-.2.13.12zm0-.85l-.1-.13.17-.18.13.1zm.07-1.17l.13.1-.2.2-.1-.1zm-7.97-9.74h.56a1.82 1.82 0 0 1 .16-.72zm5.9 7.53l.4-.4h-.4v.4zm17.2-7.53h-.22l.6-.56a5.5 5.5 0 0 0-.12-.56l-1.08 1.12H51l1.3-1.3a1.3 1.3 0 0 1-.1-.25 1.26 1.26 0 0 0-.06-.25l-1.78 1.78h-.23l1.93-1.96a2.94 2.94 0 0 0-.18-.43l-2.38 2.4h-.23l2.54-2.55c-.03-.08-.07-.14-.1-.2s-.1-.12-.15-.2l-2.7 2.7a.66.66 0 0 1 .04.24v7.12a1.7 1.7 0 0 1-.54 1.26 1.68 1.68 0 0 1-1.25.52h-.48l-.07.05-.05-.06h-.74l-.07.05-.07-.06h-.3a2.05 2.05 0 0 1-.38-.05l-2.67 2.66a1.5 1.5 0 0 1 .2.1c.07.06.14.1.2.13l2.67-2.68.1.1-2.64 2.64a1.73 1.73 0 0 1 .24.1l.2.1 2.1-2.08.12.1-2.04 2.06.46.15 1.47-1.46.1.1-1.4 1.4a5.12 5.12 0 0 0 .57.1l.73-.74.1.1-.65.66a1.27 1.27 0 0 0 .26.03h2.05a5.18 5.18 0 0 0 2.08-.43 5.35 5.35 0 0 0 1.7-1.15 5.47 5.47 0 0 0 1.14-1.7 5.18 5.18 0 0 0 .42-2.07v-7.1a3.03 3.03 0 0 0-.02-.37zm-6.36 12.4l-.12-.12.2-.2.1.13zm0-.85l-.12-.1.2-.2.1.1zm0-.88l-.12-.1.2-.2.1.1zm0-.86l-.12-.1.2-.2.1.1zm.42 2.16l-.1-.13.2-.2.1.1zm0-.87l-.1-.1.2-.2.1.1zm0-.86l-.1-.1.2-.2.1.1zm0-.88l-.1-.1.2-.2.1.1zm.43 3.03l-.1-.13.2-.2.1.13zm0-.86l-.1-.1.2-.2.1.1zm0-.88l-.1-.1.2-.2.1.1zm0-.86l-.1-.1.2-.2.1.1zm.56 2.03l-.12.12-.1-.13.2-.2.03.04v.15zm0-.87l-.12.12-.1-.1.2-.2.03.03v.15zm0-.87l-.12.13-.1-.1.2-.2h.03v.17zm0-.84l-.12.1-.1-.1.2-.2.03.03v.18zm3.56-13.25c-.06-.05-.12-.1-.17-.16s-.12-.1-.2-.14l-2.58 2.6a2.3 2.3 0 0 1 .2.1 1.3 1.3 0 0 1 .2.12zm-3.9 2.2l2.9-2.9c-.08-.05-.15-.1-.22-.13a1.26 1.26 0 0 0-.22-.1l-3.1 3.12h.63zm4.72-1.3a1.16 1.16 0 0 1-.14-.18c-.05-.07-.1-.13-.14-.2l-2.54 2.54c.03.1.06.16.1.23s.04.15.07.23zm-.38-.47c-.1-.12-.22-.23-.33-.33L48.25 4a1.1 1.1 0 0 1 .3.32zm-4 1.75a2.23 2.23 0 0 1 .44.05L50.18.98c-.07-.05-.13-.1-.2-.14a1.36 1.36 0 0 0-.18-.1l-2.82 2.8h.13zm-3.55 7.74l-3.17 3.17a1.92 1.92 0 0 0 .1.2c.03.06.07.14.1.23l2.97-2.98v-.64zm0-1.74l-3.53 3.53c.02.08.03.17.05.26s.04.18.05.27l3.43-3.44v-.64zm0 .86l-3.38 3.4a1.3 1.3 0 0 1 .08.23 1.3 1.3 0 0 0 .08.24l3.22-3.24v-.64zm0-5.1a.66.66 0 0 1 .03-.2l-.05-.07.05-.05a1.22 1.22 0 0 0 .04-.12.43.43 0 0 1 .03-.13.07.07 0 0 1 .03-.05.95.95 0 0 0 .07-.18.03.03 0 0 1 .03-.03.7.7 0 0 1 .13-.22c.06-.06.1-.12.16-.2l.02-.02a1.44 1.44 0 0 0 .18-.15.57.57 0 0 1 .2-.12.06.06 0 0 1 .06-.02 1.87 1.87 0 0 1 .48-.18h.02a.54.54 0 0 0 .12 0 .6.6 0 0 1 .1-.03h.65L49.05.37c-.08-.03-.16-.06-.23-.1S48.7.24 48.6.2l-3.27 3.28v-.05l-.08-.08 3.18-3.2-.27-.05-.27-.05-2.57 2.57v-.05l-.08-.08L47.7 0a1.76 1.76 0 0 0-.3-.02h-.32l-1.75 1.75V1.7l-.08-.08L46.85 0h-.63l-.9.9V.85l-.07-.1.77-.76h-.64l-.05.05V0h-.22a1.03 1.03 0 0 0-.2.02 1.16 1.16 0 0 0-.18.02 1.04 1.04 0 0 1-.18 0 .07.07 0 0 0-.04.02.03.03 0 0 1-.03 0h-.03a.44.44 0 0 1-.15.04.3.3 0 0 0-.14.03c-.13.03-.24.06-.33.1V.2a.07.07 0 0 1-.05.03l-.23.07-.05.03-.15.05c-.05.02-.1.03-.13.05l-.02.02V.43l-.3.15.07.1-.2.18-.1-.1.1-.1a.4.4 0 0 0-.07.04.52.52 0 0 1-.06.04.1.1 0 0 1-.05.02.06.06 0 0 0-.06.03.44.44 0 0 0-.13.1c-.03 0-.04 0-.04 0l-.23.16c-.05.04-.1.07-.14.1a1.24 1.24 0 0 0-.12.1l-.12.1a1.1 1.1 0 0 0-.1.1l-.04.03a.8.8 0 0 0-.13.14.15.15 0 0 0-.08.05.34.34 0 0 0-.1.1 1.28 1.28 0 0 1-.08.12V1.9a.6.6 0 0 0-.1.15l-.1.1v.02l-.16.23h-.02a.58.58 0 0 0-.04.1.33.33 0 0 1-.06.08.13.13 0 0 0-.05.1.1.1 0 0 0-.04.08l.05-.05.13.1-.2.2-.08-.07a.52.52 0 0 0-.06.14.5.5 0 0 1-.07.14.07.07 0 0 1-.03.06 1 1 0 0 0-.05.13c-.02.04-.03.1-.05.14v.05a.98.98 0 0 0-.1.27v.03c-.04.1-.06.18-.08.25l.15-.18.13.13-.2.2-.08-.1a.4.4 0 0 0-.02.12.22.22 0 0 1-.03.1v.1a.1.1 0 0 0-.02.1 1.64 1.64 0 0 0-.03.34H40v4.48l.55-.56h.23l-.78.8v.62l1.42-1.42h.23L40 10.53v.64l2.28-2.3h.2L40 11.38V12l3.12-3.12h.23L40 12.24v.42a.9.9 0 0 0 .02.2l3.53-3.55v-4zm1.47-5.2l.1.13-.2.2-.1-.13zm0 .86l.1.1-.2.2-.1-.1zm0 .87l.1.1-.2.2-.1-.1zm0 .86l.1.1-.2.2-.1-.1zM44.6.56l.1.13-.2.18-.1-.1zm0 .87l.1.1-.2.2-.1-.1zm0 .86l.1.1-.2.2-.1-.1zm0 .87l.1.1-.2.2-.1-.1zM43.95.32l.1.13.2-.2-.1-.13zm.2.66l.1.1-.2.2-.1-.1zm0 .87l.1.1-.2.2-.1-.1zm0 .86l.1.1-.2.2-.1-.1zm0 .88l.1.1-.2.2-.1-.13zM43.73.55l.1.13-.2.18-.1-.1zm0 .87l.1.1-.2.2-.1-.1zm0 .86l.1.1-.2.2-.1-.1zm0 .87l.1.1-.2.2-.1-.1zm0 .84l.1.1-.2.2-.1-.1zM40.2 5.2l-.1-.14.17-.2.13.13zm.48.14l.03-.05.06.04h-.08zm-.05-.6l-.13-.1.2-.2.13.1zm0-.85l-.13-.14.2-.18.13.1zm.43 1.3l-.12-.14.2-.2.13.13zm0-.88l-.12-.12.2-.2.13.12zm0-.86l-.12-.1.2-.2.13.1zm0-.87l-.12-.1.2-.2.13.1zm.46 2.74l.05-.05.05.04h-.1zm-.03-.6l-.13-.1.2-.2.13.1zm0-.85l-.13-.14.2-.18.13.1zm0-.88l-.13-.1.2-.2.13.1zm0-.86l-.13-.1.2-.2.13.1zm.43 3.03l-.13-.14.2-.2.13.13zm0-.88l-.13-.12.2-.2.13.12zm0-.86l-.13-.1.2-.2.13.1zm0-.87l-.13-.1.2-.2.13.1zm0-.87l-.13-.1.2-.2.13.1zm.45 3.6l.05-.04.05.04h-.1zm-.02-.58l-.13-.12.2-.2.1.12zm0-.86l-.13-.14.2-.18.1.1zm0-.88l-.13-.1.2-.2.1.1zm0-.86l-.13-.1.2-.2.1.1zm0-.86l-.13-.1.2-.2.1.1zm.4 3.9l-.1-.14.2-.2.1.13zm0-.88l-.1-.12.2-.2.1.12zm0-.86l-.1-.1.2-.2.1.1zm0-.87l-.1-.1.2-.2.1.1zm0-.87l-.1-.1.2-.2.1.1zm.5 3.6l.04-.04.05.04h-.1zm-.06-.58l-.1-.12.2-.2.1.12zm0-.86l-.1-.14.2-.18.1.1zm0-.88l-.1-.1.2-.2.1.1zm0-.86l-.1-.1.2-.2.1.1zm0-.86l-.1-.1.2-.2.1.1zm.35 10.86l-2.9 2.87a2.83 2.83 0 0 0 .26.4l2.68-2.66a1.15 1.15 0 0 1-.03-.3v-.3zm-2.18 3.9c.05.04.1.1.16.14s.12.1.17.16l2.5-2.52a.52.52 0 0 1-.17-.14 1.2 1.2 0 0 1-.12-.17zm.45.42c.06.05.1.1.17.14a1.2 1.2 0 0 1 .15.14l2.62-2.62c-.08-.03-.16-.06-.23-.1a.82.82 0 0 1-.2-.1zm-.83-.9c.04.05.08.12.13.18a.72.72 0 0 0 .14.16l2.54-2.54c-.03-.07-.06-.14-.1-.2a.8.8 0 0 1-.07-.23zm14.64-4.4v.65l3.56-3.56v-.64zm0-1.72v.64l3.56-3.56V5.9zm0-.84v.64L59.2 5.7v-.64zm0-.86v.63l3.56-3.57V4.2zm0 2.57v.63L59.2 7.4v-.64zM59.2 10v-.64l-3.56 3.56v.63zm-3.56 2.06v.63l3.56-3.57V8.5zm.54-8.5h.2l-.74.73v.63L57 3.56h.24l-1.6 1.6v.63l2.24-2.25h.23l-2.46 2.47v.64l3.1-3.1h.23L55.64 6.9v.63l3.56-3.57V0h-5.34v3.56h1.78v.53zm3.02 10.1l-.7.7-.12-.12.82-.8v-.65l-1.58 1.57-.1-.13 1.68-1.68v-.63l-2.42 2.44-.12-.13 2.54-2.54v-.64l-3.28 3.3-.13-.12 3.4-3.38v-.64l-3.56 3.56v.46h-.3l.35.36-.06.02v.33l-.7-.7h-.47l1.22 1.2-.06.04v.32l-1.57-1.58h-.2v.26l1.82 1.8-.06.05v.33l-1.78-1.78v.46l1.83 1.8-.06.06v.3l-1.78-1.78v.46l1.6 1.6h.46l-.13-.1.2-.2.12.1-.2.2h.84l-.1-.1.2-.2.1.1-.18.2h.84l-.1-.1.2-.2.1.1-.17.2h.84l-.12-.1.2-.2.1.1-.2.2h.87l-.15-.15v-.4l.56.55h.45l-1-1.02v-.4l1.42 1.42h.36v-.1l-1.78-1.78v-.4l1.78 1.77v-.44l-1.78-1.78v-.4l1.78 1.78V16l-1.76-1.76h-.02v-.6zm-3.4 3.18l.2-.2.12.1-.2.2zm0-.87l.2-.2.12.13-.2.18zm0-.86l.2-.2.12.13-.2.2zm.43 2.17l.2-.2.13.1-.2.2zm0-.87l.2-.2.13.1-.2.2zm0-.86l.2-.2.13.13-.2.2zm0-.87l.2-.2.13.13-.2.2zm.43 2.17l.2-.2.1.1-.18.2zm0-.87l.2-.2.1.13-.18.18zm0-.86l.2-.2.1.13-.18.2zm.43 2.17l.2-.2.1.1-.2.2zm0-.87l.2-.2.1.1-.2.2zm0-.86l.2-.2.1.13-.2.2zm0-.87l.2-.2.1.13-.2.2zm.42 2.17l.2-.2.1.1-.2.2zm0-.87l.2-.2.1.13-.2.18zm0-.86l.2-.2.1.13-.2.2zm.43 2.17l.2-.2.1.1-.2.2zm0-.87l.2-.2.1.1-.2.2zm0-.86l.2-.2.1.13-.2.2zm0-.87l.2-.2.1.13-.2.2zm.43 2.17l.2-.2.1.1-.2.2zm0-.87l.2-.2.1.13-.2.18zm0-.86l.2-.2.1.13-.2.2zm.44 2.17l.2-.2.1.1-.2.2zm0-.87l.2-.2.1.1-.2.2zm0-.86l.2-.2.1.13-.2.2zm0-.87l.2-.2.1.13-.2.2zm1.67-.43l.48.5v-.47l-.03-.03h-.46zm.48 1.35v-.47l-.9-.9h-.45zm-6.38 2.2h.46l-1.2-1.2v.46zm-.4 0l-.34-.33v.33h.33zm14.6-7.98l2.72-2.73a1.54 1.54 0 0 1-.22-.1 1.54 1.54 0 0 0-.22-.1L68.8 9.17v-.23l2.13-2.13-.46-.16-1.67 1.66V8.1l1.5-1.5a1.1 1.1 0 0 0-.27-.05 1.02 1.02 0 0 1-.27-.06l-.96.95v-.2l.76-.78a2.3 2.3 0 0 0-.28-.04c-.1 0-.2-.02-.3-.02l-.18.2v-.2h-2.67v-.47l-.48.48h-.23l.7-.7v-.63L64.8 6.4h-.24l1.57-1.56V4.2l-2.2 2.2h-.24l2.43-2.43v-.4h.33l-.38-.4.05-.07v-.28l.74.74h.46L66.08 2.3l.05-.04v-.3l1.6 1.6h.46l-2.12-2.12.05-.05v-.32l2.47 2.47h.45L66.08.58l.05-.06v-.3l3.33 3.33h.46L66.36 0h-.46l.05.07-.2.2-.1-.13.15-.15h-.76l.05.06-.2.2-.1-.12.14-.16h-.76l.07.08-.2.2-.13-.13.15-.15h-.76l.1.07-.2.2-.14-.12.18-.16h-.66v4.1l.68-.68.13.1-.82.8v.64l1.54-1.55.13.1-1.67 1.66v.64l2.4-2.42.1.1L62.6 6v3.95h6.22V9.8zm-6.05-6.54l-.1-.1.18-.2.13.1zm0-.87l-.1-.1.18-.2.13.1zm0-.85l-.1-.1.18-.2.13.1zm0-.87l-.1-.1.18-.2.13.13zm.44 2.16l-.14-.1.2-.2.13.1zm0-.86l-.14-.1.2-.2.13.1zm0-.87l-.14-.1.2-.2.13.1zm.42 2.18l-.13-.1.2-.2.12.1zm0-.87l-.13-.1.2-.2.12.1zm0-.85l-.13-.1.2-.2.12.1zm0-.87l-.13-.1.2-.2.12.13zm.43 2.16l-.13-.1.2-.2.13.1zm0-.86l-.13-.1.2-.2.13.1zm0-.87l-.13-.1.2-.2.13.1zm1.8-.3l.1.1-.2.2-.1-.1zm0 .87l.1.1-.2.2-.1-.1zm0 .87l.1.1-.2.2-.1-.1zM65.42.38l.1.12-.2.18-.1-.1zm0 .86l.1.1-.2.2-.1-.1zm0 .87l.1.1-.2.2-.1-.1zm0 .87l.1.1-.2.2-.1-.1zM65 .8l.1.1-.2.2-.1-.1zm0 .87l.1.1-.2.2-.1-.1zm-.52 1.6l-.13-.1.2-.2.13.1zm0-.86l-.13-.1.2-.2.13.1zm0-.86l-.13-.1.2-.2.13.1zm0-.86l-.13-.1.2-.2.13.13zm.43 2.16l-.1-.1.2-.2.1.1zM62.84 6.4l3.02-3 .1.1-2.9 2.9h-.22zm7.75-2.85v.36l.48-.47.1.12-.58.6v.63l1.32-1.35.12.12L70.58 5v.33h.3l1.88-1.9.13.12-1.82 1.78h.64l1.9-1.9.13.12-1.8 1.78h.63l1.55-1.55v-.63l-.15.18-.13-.13.2-.2.08.07V2.3l-.15.16-.13-.12.2-.18.08.05v-.75l-.15.15-.13-.1.2-.2.08.08v-.8l-.15.15-.13-.1.2-.2.08.07V0h-.5l.12.1-.2.2-.13-.1.2-.2h-.86l.13.1-.22.2-.12-.1.2-.2h-.84l.1.1-.2.2-.1-.1.18-.2h-.84l.1.1-.2.2-.1-.1.2-.2h-.86l.38.38v.1l.05-.05.1.1-.15.15v.1l-.8-.8h-.45l1.25 1.26v.07h.05l.1.1-.15.14v.1L68.93 0h-.46l2.1 2.1v.08l.06-.03.1.1-.15.15v.1L68.06-.02h-.46l2.98 2.98v.08l.05-.05.1.1-.15.17v.07L67.22-.02h-.45l3.55 3.57h.26zm3.04-2.7l.13.1-.2.2-.13-.1zm0 .87l.13.1-.2.2-.13-.1zm0 .84l.13.13-.2.2-.13-.14zM73.2.42l.12.1-.2.2-.13-.1zm0 .87l.12.1-.2.2-.13-.1zm0 .85l.12.1-.2.2-.13-.12zm0 .84l.12.12-.2.2L73 3.2zM72.75.84l.13.1-.22.2-.12-.1zm0 .87l.13.1-.22.2-.12-.1zm0 .84l.13.13-.22.2-.12-.14zM72.33.42l.13.1-.2.2-.13-.1zm0 .87l.13.1-.2.2-.13-.1zm0 .85l.13.1-.2.2-.13-.12zm0 .84l.13.12-.2.2-.13-.13zM71.9.84l.12.1-.2.2-.1-.1zm0 .87l.12.1-.2.2-.1-.1zm0 .84l.12.13-.2.2-.1-.14zM71.5.42l.1.1-.2.2-.1-.1zm0 .87l.1.1-.2.2-.1-.1zm0 .85l.1.1-.2.2-.1-.12zm0 .84l.1.12-.2.2-.1-.13zM71.05.84l.1.1-.2.2-.1-.1zm0 .87l.1.1-.2.2-.1-.1zm0 .84l.1.13-.2.2-.1-.14zM73 15.9a5.4 5.4 0 0 0 1.08-1.7l-3.17 3.2a5.63 5.63 0 0 0 1.7-1.07zm1.2-2.05c.04-.13.08-.27.1-.4s.08-.28.1-.44l-4.7 4.72c.17-.03.3-.07.44-.1s.28-.07.4-.1zm-5.4 3.95v-.22l5.7-5.7a1.53 1.53 0 0 1-.04-.3c0-.1 0-.2-.02-.3l-5.64 5.66v-.23l5.6-5.6a2.2 2.2 0 0 1-.05-.27.8.8 0 0 0-.07-.25l-5.48 5.5v-.23l5.43-5.45c-.03-.08-.06-.16-.08-.22s-.06-.15-.1-.23L68.8 15.2V15l1-1a2 2 0 0 1-.9.26l-.1.1v-.1h-.9a1.72 1.72 0 0 1-1.25-.52 1.7 1.7 0 0 1-.52-1.26h-3.55a5.35 5.35 0 0 0 .4 2.08 5.5 5.5 0 0 0 1.16 1.7 5.3 5.3 0 0 0 1.7 1.14 5.12 5.12 0 0 0 2.07.42h.9c.12 0 .23 0 .34 0s.22-.03.32-.05l4.98-5c0-.1.03-.2.04-.3s0-.23 0-.35zm.07-7.84a1.45 1.45 0 0 1 .27.03 1.6 1.6 0 0 1 .27.06l2.65-2.64a1.28 1.28 0 0 1-.2-.12c-.05-.04-.1-.1-.18-.14zm3.66-2.16c-.07-.05-.12-.1-.18-.15a.77.77 0 0 0-.17-.13l-2.6 2.6a1.6 1.6 0 0 1 .4.22zm1.6-2.93l-.45.46h.45v-.45zm0-.86L72.8 5.34h.65l.68-.68V4zm-3.2 8.2a1.95 1.95 0 0 1-.25.9l3.3-3.32a3.84 3.84 0 0 0-.2-.43zm2.77-3a1.27 1.27 0 0 0-.1-.2c-.06-.05-.1-.1-.15-.18l-2.62 2.62c.03.14.07.32.1.56zm-.74-.97a2.8 2.8 0 0 0-.33-.33l-2.5 2.52a2.87 2.87 0 0 1 .32.33zm.4.46a.9.9 0 0 0-.14-.2 1.56 1.56 0 0 1-.15-.16l-2.52 2.54a.79.79 0 0 0 .12.2 1 1 0 0 1 .1.2zm21.96 1.34v-.46L92.85 7.1h-.46zm-7.4-2.93l-3.27 3.3v.28H85l3.2-3.2v.22l-2.97 2.98h.64l2.33-2.34v.22l-2.1 2.12h.63L88.2 9.2v.23l-1.24 1.25h.63l.6-.6v.2l-.38.4h4.27l-.34-.33v-.4l.74.73h.45l-1.2-1.2v-.4l1.6 1.6h.47L91.76 8.6v-.4l2.46 2.48h.46l-2.92-2.93v-.4l3.33 3.33h.22v-.23L92 7.12H87.9zm7.4 2.1v-.46L93.7 7.1h-.47zm0-1.73V7.1h-.36zm0 .87v-.46l-.77-.77h-.45zm-10.67-.5v.62L86 7.1h-.64zm0-.24l.48-.5h-.48v.5zm0 1.93v.64L87.7 7.1h-.64zm0-.84v.63l2.2-2.22h-.63zm30.9 1.14c.43-.4.8-.76 1.1-1.1a6.56 6.56 0 0 0 .8-1.05 4.16 4.16 0 0 0 .47-1.1 4.97 4.97 0 0 0 .15-1.27 5.2 5.2 0 0 0-.42-2.07 5.42 5.42 0 0 0-1.14-1.7 5.35 5.35 0 0 0-1.7-1.14 5.18 5.18 0 0 0-2.06-.42h-2a1.22 1.22 0 0 0-.24.02l-4.85 4.86a2.07 2.07 0 0 0-.02.22v.23h.17l5.16-5.16V.4l-4.93 4.93h.64l4.3-4.3v.23l-4.07 4.07h.63l3.43-3.43v.23l-3.2 3.2h.64l2.56-2.57V3l-.7.7a1.7 1.7 0 0 1 .7-.15h1.78a1.73 1.73 0 0 1 1.26.52 1.75 1.75 0 0 1 .52 1.26 1.27 1.27 0 0 1-.03.26 1.23 1.23 0 0 1-.16.34 3.98 3.98 0 0 1-.4.5 10.38 10.38 0 0 1-.82.8c-.2.16-.52.48-1.02.94s-1.07 1-1.75 1.64-1.43 1.33-2.25 2.08-1.64 1.53-2.47 2.3v3.6H107c.08-.1.18-.2.3-.3s.2-.18.3-.27l.57.56h.45l-.78-.8a.15.15 0 0 1-.08.05 2.77 2.77 0 0 0 .28-.25l1 1h.45l-1.23-1.2a3.95 3.95 0 0 1 .3-.3l-.07.1 1.4 1.4h.43l-1.6-1.64c.1-.1.22-.2.33-.3s.2-.18.33-.3l2.2 2.23h.45l-2.44-2.45a.27.27 0 0 1-.1.07 1.95 1.95 0 0 0 .17-.13l.15-.16 2.64 2.65h.46l-2.85-2.86c.07-.07.13-.13.2-.2s.12-.1.18-.16a.96.96 0 0 0-.17.15l3.04 3.06h.46l-3.28-3.3zm-6.37 5.92l2 2.04h-.45l-1.8-1.8c.1-.1.2-.18.25-.24zm-2.03 1.9l.15.14h.46l-.38-.38zm-1.3-13.85c-.03.14-.06.28-.1.4a2.9 2.9 0 0 0-.07.42l4.57-4.58a3.7 3.7 0 0 0-.4.08c-.14.03-.28.07-.4.1zm.97-1.82a5.3 5.3 0 0 0-.86 1.5L109.1.32a5.24 5.24 0 0 0-1.5.87zm7.7 11.75l1.27-1.27h-.65l-.63.63v.63zm1.42.5h-.15l.06.08-.2.2-.1-.1 1.95-1.94h-.62l-1.78 1.78h-.18l.08.07-.2.2-.1-.1 1.95-1.94h-.63l-1.5 1.5v.27h-.46l.5.5-.04.1v.27l-.87-.87h-.45l1.37 1.38-.05.06v.3l-1.73-1.73h-.47l2.24 2.24-.05.05v.28l-2.57-2.57h-.46l3.07 3.1-.05.06v.27l-3.43-3.44h-.3l-.1.1 3.5 3.46h.55l.15-.16.1.13-.03.02h.64l.16-.16.1.13-.02.02h.63l.13-.16.13.13-.03.02h.64l.12-.16.13.13-.06.02h.53V13.8l-.4.4h-.18l.1.1-.2.2-.14-.1.8-.83v-.64l-1.26 1.27h-.15l.08.07-.2.2-.1-.1 1.64-1.67v-.28h-.35zm-1.14 2.88l-.1-.1.2-.2.1.1zm0-.85l-.1-.13.2-.18.1.1zm0-.87l-.1-.1.2-.2.1.1zm.43 2.17l-.1-.13.2-.2.1.12zm0-.87l-.1-.13.2-.2.1.13zm0-.86l-.1-.1.2-.2.1.1zm0-.87l-.1-.1.2-.2.1.1zm.43 2.16l-.1-.1.2-.2.1.1zm0-.85l-.1-.13.2-.18.1.1zm0-.87l-.1-.1.2-.2.1.1zm2.24-.74l.12.1-.2.2-.13-.1zm0 .87l.12.1-.2.2-.13-.1zm0 .85l.12.13-.2.2-.13-.13zm0 .86l.12.14-.2.2-.13-.13zm-.44-2.12l.13.1-.2.2-.14-.1zm0 .86l.13.1-.2.2-.14-.12zm0 .84l.13.13-.2.2-.14-.12zm-.43-2.14l.13.1-.2.2-.13-.1zm0 .87l.13.1-.2.2-.13-.1zm0 .85l.13.13-.2.2-.13-.13zm0 .86l.13.14-.2.2-.13-.13zm-.94.35l-.1-.13.2-.2.1.12zm0-.87l-.1-.13.2-.2.1.13zm0-.86l-.1-.1.2-.2.1.1zm0-.87l-.1-.1.2-.2.1.1zm.42 2.16l-.1-.1.18-.2.13.1zm0-.85l-.1-.13.18-.18.13.1zm.08-1.17l.13.1-.2.2-.1-.1zm-7.98-9.75h.56a1.68 1.68 0 0 1 .16-.7zm5.9 7.53l.4-.4h-.4v.4zm17.22-7.53h-.23l.6-.56a3.85 3.85 0 0 0-.1-.56l-1.1 1.13h-.23l1.3-1.3a1.3 1.3 0 0 1-.08-.24 1.33 1.33 0 0 0-.1-.25l-1.76 1.78h-.23l1.94-1.96a2.94 2.94 0 0 0-.18-.43l-2.4 2.4h-.22l2.54-2.55a1.23 1.23 0 0 0-.1-.2c-.05-.06-.1-.13-.15-.2l-2.7 2.7a1.18 1.18 0 0 1 .03.23v7.13a1.7 1.7 0 0 1-.52 1.26 1.68 1.68 0 0 1-1.25.52h-.5l-.07.05-.05-.06h-.74l-.08.05-.05-.06h-.3a2.05 2.05 0 0 1-.37-.05l-2.67 2.66c.07.03.13.07.2.1s.14.1.2.13l2.67-2.68.1.1-2.64 2.64c.08.04.15.07.22.1s.14.07.2.1l2.1-2.08.1.1-2.02 2.06.46.15 1.47-1.46.1.1-1.4 1.4a5.12 5.12 0 0 0 .57.1l.73-.74.1.1-.66.66a1.45 1.45 0 0 0 .27.03h2.05a5.25 5.25 0 0 0 2.06-.43 5.34 5.34 0 0 0 2.84-2.84 5.18 5.18 0 0 0 .42-2.08v-7.1a1.64 1.64 0 0 0-.03-.37zm-6.38 12.42l-.1-.13.2-.2.1.13zm0-.87l-.1-.1.2-.2.1.1zm0-.86l-.1-.1.2-.2.1.1zm0-.87l-.1-.1.2-.2.1.1zm.43 2.17l-.1-.13.2-.2.1.1zm0-.87l-.1-.1.2-.2.1.1zm0-.86l-.1-.1.2-.2.1.1zm0-.88l-.1-.1.2-.2.1.1zm.43 3.03l-.1-.13.2-.2.1.13zm0-.87l-.1-.1.2-.2.1.1zm0-.86l-.1-.1.2-.2.1.1zm0-.87l-.1-.1.2-.2.1.1zm.56 2.04l-.14.12-.1-.13.2-.2.03.04v.15zm0-.88l-.14.13-.1-.1.2-.2.03.03v.15zm0-.86l-.14.13-.1-.1.2-.2h.03v.17zm0-.84l-.14.1-.1-.1.2-.2.03.03v.17zm3.54-13.25a1.44 1.44 0 0 1-.18-.16c-.05-.04-.1-.1-.17-.14l-2.6 2.6a1.66 1.66 0 0 1 .2.1 2.24 2.24 0 0 1 .2.12zm-3.9 2.18l2.9-2.9c-.08-.03-.15-.07-.22-.1a1.37 1.37 0 0 0-.23-.13l-3.1 3.13h.63zm4.7-1.3c-.04-.05-.08-.1-.13-.16a1.73 1.73 0 0 0-.13-.2l-2.54 2.54a1.62 1.62 0 0 1 .1.23c.02.07.05.14.08.23zm-.37-.45a2.78 2.78 0 0 0-.33-.33l-2.5 2.5a1.06 1.06 0 0 1 .3.34zm-3.98 1.75a2.32 2.32 0 0 1 .42.05l2.64-2.62c-.07-.05-.13-.1-.2-.14a1.36 1.36 0 0 0-.18-.1l-2.82 2.8h.13zm-3.57 7.73l-3.18 3.18c.04.07.07.14.1.2s.07.15.1.23l2.98-2.98v-.64zm0-1.73l-3.53 3.54c.02.08.03.17.05.26s.03.18.05.27l3.43-3.44v-.65zm0 .87l-3.38 3.38c.03.1.06.17.08.25a1.24 1.24 0 0 0 .07.24l3.23-3.24v-.64zm0-5.1a1.18 1.18 0 0 1 .02-.22l-.05-.05.05-.05a.4.4 0 0 0 .04-.13.42.42 0 0 1 .03-.12.07.07 0 0 1 .03-.05.95.95 0 0 0 .07-.18.03.03 0 0 1 .03-.03.68.68 0 0 1 .12-.22 1.54 1.54 0 0 0 .16-.2l.02-.02a1.44 1.44 0 0 0 .18-.15.62.62 0 0 1 .2-.12.1.1 0 0 1 .05-.03 1.96 1.96 0 0 1 .48-.17h.02a.62.62 0 0 0 .12-.02.6.6 0 0 1 .1 0h.65l3.17-3.2c-.08-.02-.16-.05-.23-.08s-.13-.05-.22-.1L125 3.5V3.4l-.07-.07 3.18-3.2-.26-.05-.27-.05L125 2.6v-.04l-.07-.07L127.37 0a1.76 1.76 0 0 0-.3-.03h-.3L125 1.74V1.7l-.07-.08 1.6-1.63h-.63l-.9.9V.85l-.07-.1.76-.76h-.64l-.05.05V0h-.2a1.03 1.03 0 0 0-.22.02 1.16 1.16 0 0 0-.18 0 1.04 1.04 0 0 1-.18.03.05.05 0 0 0-.04 0 .06.06 0 0 1-.04.02h-.02a.44.44 0 0 1-.15.03.27.27 0 0 0-.13.02 2.34 2.34 0 0 0-.33.1V.2a.1.1 0 0 1-.04.02l-.23.08-.05.03-.15.05a.88.88 0 0 0-.13.05l-.03.02V.43l-.3.15.07.1-.2.18-.1-.1.1-.1a.4.4 0 0 0-.06.04.3.3 0 0 1-.07.03.06.06 0 0 1-.04.03.1.1 0 0 0-.05.02.62.62 0 0 0-.1.1c-.05 0-.06 0-.06.03l-.23.16c-.04.04-.1.07-.13.1a1.45 1.45 0 0 0-.12.1 1.1 1.1 0 0 1-.1.1l-.13.1-.02.03a.8.8 0 0 0-.13.14.1.1 0 0 0-.07.05.34.34 0 0 0-.1.1 1.28 1.28 0 0 1-.08.12V1.9a.4.4 0 0 0-.1.15l-.1.1v.02l-.16.23h-.02a.58.58 0 0 0-.04.1.33.33 0 0 1-.06.08.14.14 0 0 0-.06.1.17.17 0 0 0-.05.08l.05-.06.13.1-.2.2-.07-.07a.52.52 0 0 0-.06.14.35.35 0 0 1-.07.14.06.06 0 0 1-.02.06 1 1 0 0 0-.05.13.9.9 0 0 0-.05.14v.05a.75.75 0 0 0-.1.27v.03c-.04.1-.06.18-.08.25l.15-.18.13.13-.2.2-.08-.1a.22.22 0 0 0-.03.1.22.22 0 0 1-.02.13v.1a.1.1 0 0 0-.03.07 3.03 3.03 0 0 0-.02.36h-.03v4.48l.56-.56h.23l-.8.8v.62l1.44-1.42h.22l-1.65 1.65v.64l2.3-2.3h.2l-2.5 2.5V12l3.13-3.12h.23l-3.36 3.36v.42a.97.97 0 0 0 .03.2l3.53-3.55v-4zm1.47-5.2l.1.12-.2.2-.1-.12zm0 .86l.1.1-.2.2-.1-.1zm0 .87l.1.1-.2.2-.1-.1zm0 .86l.1.1-.2.2-.1-.1zm-.43-2.15l.1.13-.2.17-.1-.1zm0 .86l.1.1-.2.2-.1-.1zm0 .88l.1.1-.2.2-.1-.1zm0 .86l.1.1-.2.2-.1-.1zm-.63-2.82l.1.13.2-.2-.1-.13zm.2.66l.1.1-.2.2-.1-.1zm0 .87l.1.1-.2.2-.1-.1zm0 .86l.1.1-.2.2-.1-.1zm0 .88l.1.1-.2.2-.1-.13zM123.4.55l.1.13-.2.17-.1-.1zm0 .86l.1.1-.2.2-.1-.1zm0 .88l.1.1-.2.2-.1-.1zm0 .86l.1.1-.2.2-.1-.1zm0 .84l.1.13-.2.2-.1-.12zm-3.52 1.2l-.1-.12.17-.2.13.12zm.48.16l.02-.05.06.04h-.08zm-.05-.6l-.12-.12.2-.2.13.13zm0-.85l-.12-.14.2-.18.13.1zm.44 1.3l-.13-.14.22-.2.12.13zm0-.88l-.13-.13.22-.2.12.12zm0-.86l-.13-.1.22-.2.12.1zm0-.87l-.13-.1.22-.2.12.1zm.46 2.74l.05-.05.05.04h-.1zm-.03-.6l-.13-.1.2-.2.13.1zm0-.85l-.13-.14.2-.18.13.1zm0-.88l-.13-.1.2-.2.13.1zm0-.86l-.13-.1.2-.2.13.1zm.43 3.03l-.12-.14.2-.2.13.13zm0-.88l-.12-.13.2-.2.13.12zm0-.86l-.12-.1.2-.2.13.1zm0-.87l-.12-.1.2-.2.13.1zm0-.87l-.12-.1.2-.2.13.1zm.46 3.6l.05-.04.06.04h-.1zm-.02-.58l-.13-.12.2-.2.1.12zm0-.86l-.13-.14.2-.18.1.1zm0-.88l-.13-.1.2-.2.1.1zm0-.86l-.13-.1.2-.2.1.1zm0-.87l-.13-.1.2-.2.1.1zm.4 3.9l-.1-.14.2-.2.1.13zm0-.88l-.1-.13.2-.2.1.12zm0-.86l-.1-.1.2-.2.1.1zm0-.87l-.1-.1.2-.2.1.1zm0-.87l-.1-.1.2-.2.1.1zm.48 3.6l.06-.04.05.04h-.1zm-.05-.58l-.1-.12.2-.2.1.12zm0-.86l-.1-.14.2-.18.1.1zm0-.88l-.1-.1.2-.2.1.1zm0-.86l-.1-.1.2-.2.1.1zm0-.87l-.1-.1.2-.2.1.1zm.36 10.86l-2.9 2.87a4.12 4.12 0 0 0 .26.4l2.65-2.66a2.1 2.1 0 0 1-.02-.3v-.3zm-2.2 3.9c.07.04.12.1.18.14s.12.1.17.15l2.52-2.52a.52.52 0 0 1-.2-.14c-.04-.06-.08-.12-.12-.17zm.47.42a1.22 1.22 0 0 0 .17.14 1.2 1.2 0 0 1 .16.14l2.62-2.62c-.1-.03-.16-.06-.23-.1a.67.67 0 0 1-.2-.1zm-.84-.92c.05.07.1.14.14.2s.1.1.14.16l2.54-2.54a2 2 0 0 0-.1-.2.8.8 0 0 1-.07-.23zm14.66-4.37v.63l3.56-3.57v-.63zm0-1.74v.64l3.56-3.57V5.9zm0-.84v.64l3.56-3.57v-.64zm0-.87v.64l3.56-3.57V4.2zm0 2.57v.64l3.56-3.56v-.64zm3.56-.33v-.64l-3.56 3.56v.63zm-3.56 2.05v.64l3.56-3.57V8.5zm.53-8.5h.2l-.73.74v.63l1.37-1.38h.22l-1.6 1.6v.64l2.23-2.25h.23l-2.46 2.47v.64l3.1-3.1h.23l-3.33 3.33v.62l3.56-3.56V0h-5.34v3.56h1.78v.53zm3.03 10.1l-.72.72-.1-.13.82-.8v-.65l-1.58 1.57-.1-.13 1.68-1.68v-.64l-2.42 2.45-.12-.13 2.54-2.54v-.64l-3.28 3.3-.13-.12 3.4-3.38v-.64l-3.55 3.56v.46h-.3l.35.36-.05.02v.33l-.7-.7h-.47l1.22 1.2-.05.04v.32l-1.58-1.58h-.2v.25l1.83 1.8-.05.05v.33l-1.78-1.78v.46l1.83 1.8-.05.06v.3l-1.78-1.78v.46l1.6 1.6h.46l-.13-.1.2-.2.13.1-.2.2h.84l-.1-.1.2-.2.1.1-.18.2h.84l-.1-.1.2-.2.1.1-.17.2h.83l-.1-.1.2-.2.1.1-.2.2h.87l-.15-.15v-.4l.55.55h.46l-1.02-1.02v-.4l1.42 1.42h.35v-.1l-1.77-1.78v-.4l1.77 1.77v-.44l-1.77-1.78v-.4l1.77 1.78V16l-1.75-1.76h-.02v-.6zm-3.4 3.18l.2-.2.12.1-.2.2zm0-.86l.2-.2.12.13-.2.17zm0-.87l.2-.2.12.13-.2.2zm.42 2.17l.2-.2.13.1-.2.2zm0-.87l.2-.2.13.1-.2.2zm0-.86l.2-.2.13.13-.2.2zm0-.87l.2-.2.13.13-.2.2zm.44 2.16l.2-.2.1.1-.18.2zm0-.86l.2-.2.1.13-.18.17zm0-.87l.2-.2.1.13-.18.2zm.43 2.17l.2-.2.1.1-.2.2zm0-.87l.2-.2.1.1-.2.2zm0-.86l.2-.2.1.13-.2.2zm0-.87l.2-.2.1.13-.2.2zm.43 2.16l.2-.2.1.1-.2.2zm0-.86l.2-.2.1.13-.2.17zm0-.87l.2-.2.1.13-.2.2zm.43 2.17l.2-.2.1.1-.2.2zm0-.87l.2-.2.1.1-.2.2zm0-.86l.2-.2.1.13-.2.2zm0-.87l.2-.2.1.13-.2.2zm.43 2.16l.2-.2.1.1-.2.2zm0-.86l.2-.2.1.13-.2.17zm0-.87l.2-.2.1.13-.2.2zm.43 2.17l.2-.2.1.1-.2.2zm0-.87l.2-.2.1.1-.2.2zm0-.86l.2-.2.1.13-.2.2zm0-.87l.2-.2.1.13-.2.2zm1.67-.43l.48.48v-.45l-.02-.03h-.46zm.48 1.35v-.47l-.9-.9h-.44zm-6.37 2.2h.46l-1.2-1.2v.46zm-.4 0l-.34-.33v.33h.33zM142.24 0v3.6l1.73 1.74h.46l-1.78-1.78h.4l1.78 1.78h.46l-1.78-1.78h.4l1.8 1.78h.1v-.36l-1.43-1.43h.4l1 1.02V4.1l-.55-.55h.4l.16.15v-.14h4.23l-.08.07-.38 1.02 1.1-1.1h.22l-1.48 1.46-.4 1.02 2.5-2.46h.2l-2.8 2.82-.4 1.02 3.84-3.84h.23l-4.2 4.2-.38 1 5.2-5.2h.23l-5.56 5.57-.4 1.02 6.06-6.06.2-.54L155.1 0h-12.85zm.9 5.34h.45L142.25 4v.45zm-.87 0h.46l-.5-.5v.47zm4.93 5.62l-.12.33-.1.3.1.07-.2.2h-.03v.03l-.05.15-.05.15-.23.56-.03.08-.03.05.05-.04.13.1-.2.2-.06-.05-.06.16-.38 1 .13-.13.12.13-.2.2-.08-.08-.1.25-.4 1-.1.33V16l-.12.24-.12.35-.1.27-.13.33.05.06-.13.12-.03.13-.13.3h.38l.2-.2.13.1-.1.1h.64l.2-.2.12.1-.1.1h.63l.2-.2.13.1-.1.1h.63l.22-.2.1.1-.1.1h.63v-.02l.13-.3.1-.34.13-.28.13-.33-.02-.03.06-.05.07-.23.13-.33.1-.3.13-.32-.06-.07.13-.12.02-.1.1-.28.15-.36.1-.33-.08-.1.2-.2v.04l.13-.33.1-.3.13-.32.03-.08-.06.05-.1-.1.18-.2.05.03.05-.13.18-.5.13-.32.06-.2-.12.13-.13-.1.2-.2.1.08.12-.33.35-.94-.73.74h-.23l1.12-1.1.4-1-2.15 2.1h-.2l2.46-2.47.38-1-3.47 3.47h-.23l3.84-3.84.38-1.02-4.85 4.86h-.23l5.2-5.2.4-1.03-6.08 6.05-.05.18zm-2.18 5.98l.2-.2.13.1-.2.2zm.43.43l.2-.2.13.1-.2.2zm0-.87l.2-.2.13.1-.2.2zm0-.86l.2-.2.13.13-.2.17zm.44 1.3l.2-.2.12.1-.2.2zm0-.87l.2-.2.12.1-.2.2zm0-.86l.2-.2.12.14-.2.2zm.42 2.17l.2-.2.13.1-.2.2zm0-.86l.2-.2.13.1-.2.2zm0-.86l.2-.2.13.13-.2.18zm0-.86l.2-.2.13.12-.2.2zm0-.87l.2-.2.13.14-.2.2zm.43 3.04l.2-.2.13.1-.2.2zm0-.87l.2-.2.13.1-.2.2zm0-.86l.2-.2.13.14-.2.2zm0-.86l.2-.2.13.13-.2.2zm0-.86l.2-.18.13.1-.2.2zm0-.84l.2-.2.13.1-.2.2zm3.76-1.83l-.2.2-.1-.1.18-.2zm0 .87l-.2.2-.1-.1.18-.2zm-.73 1.4l.2-.2.1.1-.2.2zm0-.86l.2-.2.1.1-.2.2zm.3-.96l-.2.2-.1-.1.2-.2zm-.73 3.1l.2-.2.1.13-.2.2zm0-.86l.2-.18.1.1-.2.2zm0-.84l.2-.2.1.1-.2.2zm.3-1.83l-.2.2-.1-.1.2-.2zm0 .87l-.2.2-.1-.1.2-.2zm-.43-.43l-.2.2-.1-.1.2-.2zm0 .86l-.2.2-.1-.1.2-.2zm0 .87l-.2.2-.1-.1.2-.2zm-.2 1.07l-.1-.13.2-.2.1.14zm.2.66l-.2.2-.1-.13.2-.2zm0 .86l-.2.18-.1-.1.2-.2zm-.42-4.75l-.2.2-.1-.1.2-.2zm0 .87l-.2.2-.1-.1.2-.2zm0 .87l-.2.2-.1-.1.2-.2zm0 .86l-.2.2-.1-.13.2-.17zm-.2 1.07l-.1-.13.2-.2.1.13zm.2.66l-.2.2-.1-.13.2-.2zm0 .84l-.2.2-.1-.1.2-.2zm0 .87l-.2.2-.1-.1.2-.2zm-.43-5.6l-.2.2-.1-.1.2-.2zm0 .86l-.2.2-.1-.1.2-.2zm0 .86l-.2.2-.1-.1.2-.2zm0 .87l-.2.2-.1-.13.2-.2zm-.2 1.07l-.1-.13.2-.2.1.13zm.2.66l-.2.18-.1-.1.2-.2zm0 .84l-.2.2-.1-.1.2-.2zm0 .86l-.2.2-.1-.1.2-.2zm-.43-6.46l-.2.2-.1-.1.2-.2zm0 .87l-.2.2-.1-.1.2-.2zm0 .86l-.2.2-.1-.1.2-.2zm0 .87l-.2.2-.1-.13.2-.18zm0 .86l-.2.2-.1-.12.2-.2zm0 .87l-.2.2-.1-.13.2-.2zm0 .84l-.2.2-.1-.1.2-.2zm0 .86l-.2.2-.1-.1.2-.2zm-.74.54l.2-.2.1.1-.2.2zm0-.87l.2-.2.1.1-.2.2zm0-.86l.2-.2.1.12-.2.18zm0-.87l.2-.2.1.13-.2.2zm0-.86l.2-.2.1.13-.2.2zm0-.83l.2-.2.1.1-.2.2zm0-.87l.2-.2.1.1-.2.2zm.1-.76l-.1-.1.2-.2.1.1zM6.68 36.88v-.35l-2.66-2.67v.35zm0-.63v-.34l-2.66-2.67v.35zm0 1.28v-.35L4.02 34.5v.36zm0-2.58v-.34l-2.66-2.66v.34zm0 .65v-.34L4.02 32.6v.33zm0-1.3v-.34l-2.66-2.68v.35zm-2.66-3.66v.34l2.66 2.67v-.34zm4 9.65l-.4.4h.4v-.4zm0-.18v-.48L6.97 40.7h.48zm-5-2.1H2.7v.34zm3.53.97l.97-.98h-.47l-.4.42-.1-.1.34-.33h-.22v-.16l-2.66-2.68v.35l2.5 2.53h-.1l-.1.1-.1-.1-2.2-2.22v.36l1.86 1.87h-.1l-.1.1-.08-.1h-.02l-1.56-1.57v.34l1.22 1.23h-.12l-.1.1-.07-.1h-.02l-.9-.92v.35l.56.58h-.13l-.1.1-.07-.1-.28-.3v.3h-.2L2.7 39.17v.48l1.45-1.45.08.1-.15.15-.03-.06v.1L2.68 39.8v.48l1.45-1.45.08.1-.15.15-.03-.05v.1l-1.34 1.33v.23h.25l1.2-1.2.08.08-.15.16-.03-.04v.1l-.92.9h.48l.55-.55.08.08-.15.15-.03-.03v.1l-.27.26h.63l-.08-.06.15-.16.08.08-.15.15h.65l-.08-.06.15-.16.08.08-.15.15h.64l-.07-.06.13-.16.1.08-.16.15h.65l-.1-.06.16-.16.1.08-.16.15h.48l1.22-1.2V39l-1.37 1.4-.1-.1 1.47-1.46v-.47l-1.37 1.37-.1-.08 1.47-1.47v-.16H7.7L6.64 39.1zm-2.25.96l.15-.15.08.1-.15.14zm0-.64l.15-.16.08.1-.15.14zm0-.65l.15-.16.08.1-.15.16zm.33 1.62l.15-.16.07.07-.15.16zm0-.66l.15-.15.07.06-.15.16zm0-.65l.15-.16.07.1-.15.15zm0-.66l.15-.15.07.1-.15.14zm.32 1.62l.15-.15.08.1-.15.14zm0-.64l.15-.16.08.1-.15.14zm0-.65l.15-.16.08.1-.15.16zm.32 1.62l.16-.16.07.07-.15.16zm0-.66l.16-.15.07.06-.15.16zm0-.65l.16-.16.07.1-.15.15zm0-.66l.16-.15.07.1-.15.14zm.33 1.62l.13-.15.1.1-.16.14zm0-.64l.13-.16.1.1-.16.14zm0-.65l.13-.16.1.1-.16.16zm.3 1.62l.15-.16.1.07-.15.16zm0-.66l.15-.15.1.06-.15.16zm0-.65l.15-.16.1.1-.15.15zm0-.66l.15-.15.1.1-.15.14zm.33 1.62l.15-.15.1.1-.16.14zm0-.64l.15-.16.1.1-.16.14zm0-.65l.15-.16.1.1-.16.16zm-2.58-.65h-.47l-.5.5V39zm4.2-10.7l-1.32 1.33-.08-.1.16-.15.08.1v-.18l1-1H7.2l-.67.68-.08-.08.16-.15.08.08v-.16l.37-.37h-.48l-.04.02-.02-.02h-.58l-.02.02-.04-.02h-.6v.02l-.02-.02h-.6l-.03.02v-.02H0v4h2.66V30h1.34v.33L6.68 33v-.34L4.04 30h.28l2.36 2.37v-.33L4.66 30h.3l1.72 1.73v-.34L5.3 30h.32l1.06 1.08v-.34L5.96 30h.3l.42.43v-.34L6.6 30h.35l1.07-1.06v.18l-.9.9h.48l.42-.42v.17l-.25.25h.25v1.33h2.66v-4H7.85zm-3.83 2.4l.02-.02.07.1-.08.1v-.17zm0-.65l.02-.02.07.1-.08.1v-.17zm0-.65l.02-.02.07.1-.08.1v-.17zm0-.65h.02l.07.08-.08.1v-.17zm.2 1.76l.14-.16.08.1-.16.16zm0-.65l.14-.15.08.1-.16.14zm0-.63l.14-.15.08.07-.16.15zm0-.65l.14-.15.08.07-.16.16zm.3 2.25l.14-.15.1.1-.15.15zm0-.65l.14-.15.1.1-.15.15zm0-.65l.14-.15.1.1-.15.15zm0-.63l.14-.15.1.08-.15.15zm.32 1.6l.15-.15.08.1-.15.15zm0-.64l.15-.16.08.1-.15.15zm0-.63L5 28.1l.08.07-.15.15zm0-.65l.15-.16.08.08-.15.15zm.32 2.25l.15-.15.1.1-.15.15zm0-.65l.15-.15.1.1-.15.15zm0-.65l.15-.15.1.1-.15.15zm0-.63l.15-.15.1.07-.15.16zm.32 1.6l.16-.15.1.1-.16.15zm0-.65l.16-.15.1.1-.16.15zm0-.63l.16-.15.1.07-.16.15zm0-.65l.16-.16.1.08-.16.15zm.33 2.24l.16-.15.1.1-.16.15zm0-.64l.16-.16.1.1-.16.16zm0-.65l.16-.16.1.1-.16.15zm0-.63l.16-.15.1.07-.16.15zm.33 1.6l.15-.15.08.1-.13.15zm0-.65l.15-.15.08.1-.13.14zm0-.63l.15-.15.08.06-.13.16zm0-.65l.15-.16.08.07-.13.17zm.4 2.34l-.08-.1.16-.15.08.06v-.15l1.34-1.33v.18zm0-.65l-.08-.1.16-.16.08.07v-.14l1.34-1.34v.18zm5.87 11.38h.34l-.88-.88v.35zm-.3 0l-.24-.25v.25h.25zm5.1-2.3v-.33l-.02-.02h-.34zm0 .64v-.34l-.67-.67h-.34zm-1.33-1.1v-.44l-.6.6-.03-.05h-.1l.73-.73v-.47l-1.24 1.24-.04-.04h-.1l1.37-1.37v-.48l-1.9 1.88-.03-.03h-.1L15.88 36v-.47l-2.54 2.53-.02-.03h-.1l2.67-2.68v-.47l-2.67 2.67v.47h-.23l.23.23v.3l-.54-.53h-.34l.88.88v.3l-1.18-1.18h-.16v.2l1.34 1.33v.3l-1.34-1.34v.35l1.34 1.34v.3l-1.34-1.35v.35l1.2 1.18h2.92l-.15-.13.04-.04v-.22l.4.4h.34l-.77-.78.04-.04v-.23l1.04 1.05h.3v-.06l-1.37-1.37.04-.04V39l1.33 1.34v-.35l-1.37-1.37.04-.04v-.23l1.33 1.34v-.35l-1.32-1.3h-.1zm-2.6 2.63l.14-.16.08.07-.15.15zm0-.65l.14-.16.08.08-.15.15zm0-.65l.14-.15.08.1-.15.13zm0-.65l.14-.15.08.1-.15.15zm.3 1.62l.16-.15.08.08-.14.15zm0-.65l.16-.15.08.08-.14.15zm0-.65l.16-.15.08.1-.14.15zm0-.64l.16-.16.08.1-.14.16zm.33 2.27l.16-.16.07.07-.15.15zm0-.65l.16-.16.07.08-.15.15zm0-.65l.16-.15.07.1-.15.13zm0-.65l.16-.15.07.1-.15.15zm.33 1.62l.15-.15.08.08-.16.15zm0-.65l.15-.15.08.08-.16.15zm0-.65l.15-.15.08.1-.16.15zm0-.64l.15-.16.08.1-.16.16zm.32 2.27l.15-.16.08.07-.15.15zm0-.65l.15-.16.08.08-.15.15zm0-.65l.15-.15.08.1-.15.13zm0-.65l.15-.15.08.1-.15.15zm.32 1.62l.14-.15.1.08-.15.15zm0-.65l.14-.15.1.08-.15.15zm0-.65l.14-.15.1.1-.15.15zm0-.64l.14-.16.1.1-.15.16zm.3 2.27l.16-.16.1.07-.16.15zm0-.65l.16-.16.1.08-.16.15zm0-.65l.16-.15.1.1-.16.13zm0-.65l.16-.15.1.1-.16.15zm.33 1.62l.16-.15.1.08-.16.15zm0-.65l.16-.15.1.08-.16.15zm0-.65l.16-.15.1.1-.16.15zm0-.64l.16-.16.1.1-.16.16zm1.7-10.96h-.25l-1.08 1.1v-.18l.9-.92h-.47l-.43.44v-.17l.26-.28h-3.05l-1.22 1.22v.48l1.34-1.33v.18l-1.34 1.33v.5l1.34-1.35v.17l-1.34 1.34V30h.33l1-1v.15l-.86.86h.48l.38-.37v.17l-.2.2h.2v2.88l.2-.2h.14l-.34.35v.48l.82-.82h.17l-1 1v.47l1.47-1.47h.17l-1.64 1.65v.47l2.1-2.12h.18l-2.28 2.3v.47l2.67-2.67V30h.2l1.13-1.13v-.48l-1.33 1.33v-.17l1.33-1.34v-.48l-1.33 1.34v-.17l1.33-1.33v-.23zm0 2.16V29l-1 1h.48zm-5.34-1.58v.47l1.05-1.05h-.46zm0-.18l.4-.4h-.4v.4zm1.34 7.88v.48l2.67-2.67v-.47zm2.67-1.54v-.48l-2.67 2.67v.48zm1.33-4.4l-.34.33h.34v-.35zm-1.33 5.03v-.5L13.2 36.9v.5zM27.7 27.3l-2.63 4.18-2.63-4.18h-3.4l-.64.65v.48l.97-.97.08.1-1.05 1.04v.48l1.22-1.22.07.1-1.3 1.3v.47l1.47-1.47.07.1-1.54 1.55V30h.4l1.33-1.33.06.12-1.23 1.2h.48l.93-.93.06.1-.82.84h.1v.38l.9-.9.06.1-.95.95V31l1.15-1.12.05.1-1.2 1.2v.48l1.4-1.4.05.12-1.45 1.45v.48l1.64-1.63.06.1-1.7 1.7v.5l1.9-1.9.06.1-1.97 1.97v.47l2.14-2.14.07.1-2.2 2.22v.48l2.37-2.4.1.12-2.47 2.44v.46l2.63-2.64 2.7 4.28 2.77-4.4 2.57 2.58v-.34l-2.44-2.44.12-.2 2.32 2.34v-.35l-2.2-2.2.12-.16 2.08 2.06v-.33l-1.94-1.93.13-.2 1.8 1.82v-.34l-1.7-1.68.14-.2 1.56 1.6v-.35l-1.43-1.46.12-.2 1.3 1.34v-.34L29.28 30h.3l.82.83v-.34l-.48-.5h.3l.18.18V30h1.33v-2.66H27.7zm-3.97 11V38h-.3zm-1.98-.3l.65-.66v-.48L21.28 38h.22l2.23 2.24v-.32l-1.9-1.9h-.08zm1.03 0l.95.94v-.34l-.6-.6h-.35zm-.38 0v-.5l-.48.5h.2l1.6 1.6v-.33l-1.24-1.27h-.08zm-4 0v.12l2.53 2.54h.35L18.6 38h-.2zm1.43 0l2.57-2.6V35l-2.67 2.67v.38h-.17l2.67 2.67h.34l-2.67-2.67h-.07zm.63 0l1.94-1.96v-.48L19.98 38h.23l2.68 2.68h.34L20.55 38h-.1zm-2.06.77l1.88 1.88h.35l-2.23-2.23v.34zm2.7-.8l1.3-1.3v-.47L20.63 38h.23l2.66 2.68h.2v-.14L21.2 38h-.1zm-2.2 0l2.68 2.68h.34L19.26 38h-.35zm8.83-4.7L30.4 36v-.36l-2.67-2.67v.34zM30.4 35l-2.67-2.68v.35l2.67 2.67V35zm-2.67-1.06l2.67 2.68v-.35l-2.67-2.67v.34zm-9.33 6.74h.3l-.3-.3v.3zm0-.6l.6.6h.35l-.95-.95v.34zm9.33-5.5l2.67 2.68v-.34l-2.67-2.67v.34zm-9.33 4.84l1.26 1.26H20l-1.6-1.6v.34zm9.33-4.18l2.67 2.67v-.33l-2.67-2.67v.34zm-9.3-7.92l-.03.02v.48l.47-.5h-.45zm7.97 11.13l.44-.44h-.44v.45zm4.86 2.23l.47-.48v-.47l-.95.95h.48zM26.4 39.1l1.1-1.1H27l-.6.62v.48zm5.33 1.58v-.3l-.3.3h.3zm-1.33-1.55v-.17l.95-.95h-.47l-.48.5v-.2l.3-.3h-.47l-.02.03-2.47-2.48v.34l2.12 2.1h-.27l-.02.03-1.83-1.83v.34L29.2 38h-.27l-.02.03-1.17-1.2v.36l.82.8h-.26l-.03.03-.54-.56v.35l.2.2h-.27l-1.26 1.25v.47l1.33-1.33v.07l.06.05-1.4 1.38v.47l1.33-1.33v.07l.06.07-1.4 1.38v.13h.34l1-1v.08l.05.06-.9.86h.5l.33-.34v.07l.06.05-.24.23h3.05l1.13-1.13v-.47L30.4 40.4v-.16l1.33-1.34v-.45l-1.33 1.33v-.15l1.33-1.34v-.27h-.2zm-2.44 1.15l-.1-.08.16-.15.08.08zm0-.63l-.1-.1.16-.15.08.1zm0-.65l-.1-.1.16-.15.08.1zm0-.65l-.1-.1.16-.13.08.07zm.3 2.25l-.07-.07.14-.16.08.08zm0-.65l-.07-.07.14-.15.08.1zm0-.63l-.07-.1.14-.15.08.1zm0-.64l-.07-.1.14-.16.08.1zm.33 1.6l-.1-.08.17-.15.07.07zm0-.63l-.1-.1.17-.16.07.1zm0-.65l-.1-.1.17-.15.07.1zm0-.65l-.1-.1.17-.14.07.1zm.3 2.25l-.06-.08.15-.15.07.08zm0-.65l-.06-.08.15-.15.07.1zm0-.63l-.06-.1.15-.15.07.1zm0-.65l-.06-.1.15-.15.07.1zm.34 1.6l-.08-.07.15-.16.1.08zm0-.63l-.08-.1.15-.15.1.1zm0-.65l-.08-.1.15-.16.1.1zm0-.65l-.08-.1.15-.14.1.1zm.32 2.25l-.07-.08.14-.15.07.07zm0-.65l-.07-.08.14-.15.07.1zm0-.63l-.07-.1.14-.15.07.1zm0-.65l-.07-.1.14-.15.07.1zm.33 1.6l-.1-.08.16-.16.08.08zm0-.63l-.1-.1.16-.15.08.1zm0-.65l-.1-.1.16-.16.08.1zm0-.66l-.1-.1.16-.13.08.08zm.3 2.25l-.07-.08.14-.16.1.08zm0-.65l-.07-.08.14-.15.1.1zm0-.63l-.07-.1.14-.16.1.1zm0-.65l-.07-.1.14-.16.1.1zm-7.8-6.32l-2.67 2.67v.48l2.67-2.67v-.45zm-2.67 5.1l2.67-2.68v-.47l-2.67 2.67v.5zm0-1.3l2.67-2.68V33l-2.67 2.67v.5zm0 .64l2.67-2.68v-.44l-2.67 2.67v.47zm13.85 3.87h.34l-1-1V40zm.65 0h.34L32.9 39v.35zm-1.3 0h.35l-.37-.37v.38zm3.22 0h.35L33.83 38h-.34zm-1.27 0h.34l-2.3-2.3v.33zm-1.97-2.6l2.6 2.6h.35L33.18 38h-.27v.07zm6.68-3.86v-.33l-1.22-1.22h-.34zm0 .66v-.34l-1.86-1.87h-.35zm-.26-2.2l.26.26v-.27h-.26zm.26.9v-.34l-.57-.57h-.33zM32.9 27.7l.4-.4h-.4v.4zm0 .16v.52l1.02-1.03h-.47zm3.62-.55h-.48L33.37 30h.48zm-3.6 1.2v.47l1.65-1.66h-.47zm0 .64v.48l2.3-2.3h-.48zm7.8 7.52h-.5l-.64.64v.48zm-.64 0h-.5v.5zm-4.7-9.35l-2.47 2.5v.18h.3l2.67-2.67h-.48zm6.87 0h-3L36.6 30h-.18l2.67-2.67h-.5L35.95 30h-.17l2.67-2.67h-.48L35.3 30h-.18l2.67-2.67h-.48L34.65 30h-.15l2.66-2.67h-.47L34 30h.23v2.8l2.57 2.57h-.3l-2.27-2.27v.34l1.92 1.93h-.3l-1.62-1.62v.35l1.27 1.27h-.28l-1-1v.36l.66.65h-.3l-.35-.34v3.03h-.12l2.67 2.67h.34l-2.66-2.67h.3l2.67 2.67h.34l-2.68-2.67h.3l2.68 2.67h.34l-2.67-2.67h.3l2.67 2.67h.35l-2.68-2.67h.3l2.65 2.67h.57l.04-.04.04.04h.55l.06-.04.04.04h.55l.06-.04.04.04h.55l.04-.04.06.04h.3v-.2l-.1.06-.08-.07.15-.17h.02v-.5l-.08.08-.1-.07.16-.15h.02v-.5l-.08.08-.1-.08.16-.15.02.02v-.5l-.08.07-.1-.1.16-.14.02.02v-.5l-.12.1h-.17l.3-.28v-.47l-.77.76h-.18l.93-.92v-.4h-.08L40.84 38h-.17L42 36.7h-.47L40.2 38H40l1.33-1.32h-.47l-1.3 1.3V38h-.28l.28.3v.15l.08-.07.07.1-.13.14-.6-.6h-.35l.93.93v.15l.08-.07.07.07-.13.15L38.34 38H38l1.58 1.6v.15l.08-.08.07.08-.13.15-1.9-1.9h-.35l2.23 2.25v.15l.08-.08.07.08-.13.15L37.05 38h-.13v-2.66h.24l-2.66-2.67h.3l2.67 2.67h.34l-2.66-2.67h.3l2.68 2.67h.34l-2.67-2.67h.3l2.66 2.67h.35l-2.66-2.67h.28l2.67 2.67h.18v-.15l-2.5-2.53h-.16V30h.15l2.5-2.52v.17L37.25 30h.48l1.86-1.87v.17l-1.7 1.7h.48l1.22-1.22v.17L38.52 30H39l.58-.57v.15l-.42.42h.42v1.34h2.67v-4zM42 38.13l-.15.16-.08-.1.14-.15zm0 .65l-.15.16-.08-.1.14-.16zm0 .63l-.15.16-.08-.08.14-.15zm0 .65l-.15.15-.08-.07.14-.15zm-.32-1.6l-.15.15-.08-.1.15-.14zm0 .63l-.15.15-.08-.07.15-.15zm0 .65l-.15.15-.08-.07.15-.15zm0 .65l-.15.15-.08-.07.15-.16zm-.33-2.25l-.15.15-.07-.1.15-.15zm0 .65l-.15.15-.07-.1.15-.15zm0 .63l-.15.16-.07-.08.15-.15zm0 .65l-.15.16-.07-.07.15-.15zm-.32-1.6l-.15.16-.08-.1.15-.14zm0 .63l-.15.16-.08-.08.15-.15zm0 .65l-.15.16-.08-.1.15-.14zm0 .65l-.15.15-.08-.07.15-.15zm-.32-2.25l-.15.15-.07-.1.15-.15zm0 .65l-.15.15-.07-.1.15-.15zm0 .63l-.15.16-.07-.07.15-.17zm0 .66l-.15.15-.07-.07.15-.15zm-.32-1.6l-.15.15-.08-.08.16-.16zm0 .63l-.15.14-.08-.08.16-.15zm0 .64l-.15.15-.08-.1.16-.14zm0 .65l-.15.14-.08-.08.16-.15zm-.32-2.27l-.15.16-.07-.1.15-.17zm0 .65l-.15.15-.07-.1.15-.15zm0 .63l-.15.16-.07-.07.15-.16zm0 .66l-.15.15-.07-.06.15-.16zM66 27.32h-5.35V30h1.54l2 2 .07-.26L62.54 30h.3l1.5 1.5.06-.3-1.22-1.2h.3l.98.96.06-.3-.7-.67h.3l.46.44.05-.28-.17-.17H66V27.3zm-4.24 3.5l2.22 2.24.06-.27-2.23-2.24zm-.98 4.22L63 37.28l.1-.3-2.24-2.22zm1.1-4.73l2.22 2.24.06-.28-2.23-2.24zm-.96 4.2l2.23 2.24.05-.26-2.23-2.24zm.34-1.55l2.23 2.23.07-.3-2.23-2.22zm-.1.5l2.22 2.24.05-.3-2.2-2.2zm-.13.55l2.23 2.23.06-.3-2.23-2.22zm.36-1.6l2.22 2.24.06-.28-2.23-2.23zm-.73 3.16l2.23 2.23.06-.27-2.23-2.24zm.84-3.66l2.24 2.2.05-.26-2.23-2.23zm.12-.54l2.23 2.23.08-.3-2.23-2.22zm-6.55 3.2l-3.54-3.54.1.44L55.15 35zm5.5 1.53l2.2 2.23.07-.3-2.23-2.22zm-5.7-2.37l-3.53-3.55.1.44 3.53 3.55zm.58 2.5l-3.54-3.55.1.46 3.55 3.55zm-.2-.84l-3.53-3.56.1.46 3.54 3.55zm5.17 1.2l2.23 2.24.08-.26-2.23-2.24zm-.38-.66L58 37.98l.16.33 2-2zm-.06-.1l-.13-.36-1.45 1.45.14-.28 1.25-1.28-.14-.32-.78.76.13-.28.6-.6-.15-.33-.08.1.06-.17-1.45-3.4-2.47 5.8-3.4-3.4.1.43 3.2 3.22-.08.2-3.03-3.02.08.44 2.82 2.82-.07.2-2.65-2.62.1.44L55 38.08l-.08.2-2.25-2.24.1.44 2.05 2.06-.1.2-1.86-1.88.1.46 1.67 1.66-.1.2-1.48-1.48.1.46 1.3 1.27-.1.2-1.1-1.1.1.45.9.9-.1.22-.72-.72.1.44.5.5-.07.24-.34-.34.1.44h3.08l1.24-2.9zm-10-8.52v.36l.36-.36h-.36zm10.25 9.08l-2.04 2.02.15.35 2.03-2.05zm-4.9-7.44L54.28 30h.46l.56-.56v-.48zm0 .65l-.4.4h.4v-.4zm5.1 7.26l-.05.02v-.02.06l-1.98 1.96.14.34 1.7-1.7-.05.16v.02l-1.6 1.64.13.32 1.4-1.4.08.08-.12.16-.06-.06-.04.15-1.2 1.2.14.32.93-.92-.02.04.08.08-.93.9.16.35.53-.53-.06.2-.42.43h.48l.15-.15.1.07-.07.07h.48l.16-.15.08.07-.06.07h.48l.15-.15.08.07-.05.07h.47l.16-.15.07.07-.06.07h.48l-.32-.32-.16-.35-.1.12-.07-.1.14-.14-.04-.05.6.6.07-.3-.92-.9-.06-.13-.04.04-.08-.1.06-.05-.12-.32 1.2 1.22.06-.28-1.52-1.53v-.03l-.14-.32-.1.1-.1-.08.15-.13-.04-.08 1.8 1.8.06-.27-2.12-2.13zm-.67 3.26l-.1-.1.15-.15.1.1zm.32.3l-.1-.07.16-.15.07.1zm0-.62l-.1-.1.16-.15.07.1zm0-.65l-.1-.1.16-.15.07.1zm1.35.4l.08.1-.14.15-.08-.1zm0 .65l.08.1-.14.13-.08-.08zm-.32-1.63l.08.1-.15.16-.07-.1zm0 .65l.08.1-.15.16-.07-.1zm0 .65l.08.1-.15.15-.07-.1zm-.72.25l-.07-.1.16-.15.08.1zm0-.65l-.07-.1.16-.15.08.1zm0-.65l-.07-.1.16-.15.08.1zm.4-.55l.08.08-.15.15-.07-.08zm0 .63l.08.1-.15.15-.07-.1zm0 .65l.08.1-.15.15-.07-.1zm0 .65l.08.1-.15.13-.07-.08zm-.4-2.03l-.07-.07.16-.16.08.08zm0-.64l-.07-.08.16-.15.08.07zM51.45 30l3.33 3.33-.1-.44-2.9-2.9h.32l2.5 2.5-.1-.45L52.44 30h.3l1.66 1.67-.1-.46-1.2-1.2h.3l.8.83-.08-.46-.38-.38h.38l1.2-1.2v-.5l-1.36 1.4-.03-.15v-.02l1.4-1.4v-.47l-1.65 1.64-.08-.07.15-.15.08.07-.02-.13 1.52-1.53v-.18h-.3l-1.34 1.34-.08-.08 1.26-1.26h-.48l-.78.78-.04-.13.65-.65h-.46l-.4.36-.06-.07.15-.15.02.02.1-.13h-.46l-.07.04-.04-.04h-.56l-.04.04-.05-.04h-.56l-.05.04-.05-.04h-.55l-.04.04-.03-.04h-.55l-.54.54v.47l.88-.88.08.08-.16.15-.02-.02v.04l-.78.8v.46l.88-.88v.02l.08.08-.96.95v.48l1-1 .03.14L50 29.8v.2h.27l.9-.9.1.07-.83.84h.48l.32-.3.02.1.02.02-.2.2h.4zm2.3-.3l.08.1-.15.16-.08-.1zm-.32-1.6l.08.08-.15.15-.07-.07zm0 .65l.08.08-.15.15-.07-.08zm0 .65l.08.08-.15.15-.07-.1zm-.32-1.62l.08.07-.15.16-.08-.07zm0 .65l.08.07-.15.16-.08-.08zm0 .65l.08.07-.15.15-.08-.07zm0 .63l.08.1-.15.16-.08-.1zm-.32-2.25l.08.08-.13.15-.1-.07zm0 .65l.08.08-.13.15-.1-.07zm0 .65l.08.08-.13.15-.1-.08zm0 .65l.08.08-.13.15-.1-.1zm-.32-1.62l.1.07-.16.16-.1-.07zm0 .65l.1.07-.16.16-.1-.08zm0 .65l.1.07-.16.15-.1-.07zm0 .63l.1.1-.16.16-.1-.1zm-.32-2.25l.1.08-.16.15-.1-.07zm0 .65l.1.08-.16.15-.1-.07zm0 .65l.1.08-.16.15-.1-.08zm0 .65l.1.08-.16.15-.1-.1zm-.33-1.62l.1.07-.15.16-.1-.07zm0 .65l.1.07-.15.16-.1-.08zm0 .65l.1.07-.15.15-.1-.07zm0 .63l.1.1-.15.16-.1-.1zm-.3-2.25l.08.08-.15.15-.1-.07zm0 .65l.08.08-.15.15-.1-.07zm0 .65l.08.08-.15.15-.1-.08zm0 .65l.08.08-.15.15-.1-.1zm-.34-1.62l.1.07-.15.16-.07-.07zm-.05.88l-.07-.08.13-.15.1.07zm26.77 2.67v-.23a.7.7 0 0 0-.02-.2l-.45.43h-.18l.6-.6c0-.06 0-.12-.02-.2s-.04-.13-.06-.2l-1 1h-.16l1.14-1.13a1.84 1.84 0 0 1-.07-.18c-.02-.06-.04-.12-.06-.18l-1.48 1.5h-.17l1.58-1.6a1.22 1.22 0 0 0-.08-.17 1.45 1.45 0 0 1-.07-.17l-1.9 1.93h-.18l2.02-2.02a.82.82 0 0 0-.1-.13c-.02-.05-.05-.1-.1-.15L75.18 31c0 .05.02.1.03.16s0 .1 0 .17v5.34h.23l1.95 1.93c.02-.04.06-.1.1-.2l-1.7-1.73h.3l1.5 1.5c.02-.04.03-.1.04-.12a1.35 1.35 0 0 0 .06-.14l-1.26-1.23h.3l1.02 1 .06-.27-.73-.73h.3l.46.48a.56.56 0 0 0 .03-.16.8.8 0 0 0 0-.17l-.14-.16h.15v-5.34zm-1.1-2.77l-.12-.1a1.36 1.36 0 0 0-.13-.13l-1.9 1.9a1.72 1.72 0 0 1 .15.1c.04.04.07.08.1.12zm-.35-.3a2.27 2.27 0 0 0-.26-.2l-1.98 1.97a1.17 1.17 0 0 1 .34.13zm.63.66a2.56 2.56 0 0 0-.2-.26l-1.9 1.88a3.36 3.36 0 0 1 .16.33zm-7.18 2.7l-2.2-2.18-.1.23 2.3 2.3v-.34zm4 6.4H71.2a1.33 1.33 0 0 1-1.33-1.35h-.13l-2.54-2.54v.35l2.2 2.2h-.3l-1.9-1.9v.34l1.55 1.55h-.3l-1.25-1.24v.34l.9.9h-.3l-.6-.6v.35l.25.25h-.25a3.9 3.9 0 0 0 .32 1.57 3.94 3.94 0 0 0 .86 1.27 4.03 4.03 0 0 0 1.26.86 3.88 3.88 0 0 0 1.56.32H74l-.13-.12v-.3l.4.4a.58.58 0 0 1 .14 0 .64.64 0 0 0 .16-.03l-.7-.7v-.3l.95.94a1.65 1.65 0 0 0 .3-.08l-1.23-1.2V39l1.43 1.42a.53.53 0 0 1 .13-.04.3.3 0 0 0 .12-.05l-1.68-1.68v-.3l1.87 1.87.23-.12-2.08-2.08h-.03zm-4-1.87l-2.67-2.67v.35l2.67 2.67v-.32zm0-.64l-2.67-2.67v.35l2.67 2.7v-.35zm0-.62L67.2 32.2v.35l2.67 2.67v-.34zm6.27 5.1a.87.87 0 0 0 .1-.08 1.22 1.22 0 0 1 .1-.08l-1.92-1.92a2.6 2.6 0 0 1-.26.07zm1-.98a.66.66 0 0 0 .06-.1.63.63 0 0 1 .06-.1l-2.05-2.07a.73.73 0 0 1-.05.3zm-.3.36a.96.96 0 0 0 .08-.08c.02-.03.05-.07.08-.1l-1.93-1.93a1.34 1.34 0 0 1-.13.23zm-.34.33c.05-.05.1-.1.2-.18l-1.9-1.9a1.74 1.74 0 0 1-.2.16zm-6.63-8.37a1.35 1.35 0 0 1 .04-.3l-1.97-2a.8.8 0 0 0-.14.22l2.07 2.1v-.02zm-1.35-2.97l-.17.17 1.88 1.9a.93.93 0 0 1 .2-.17zm1.35 5.87l-2.67-2.67v.34l2.67 2.68v-.35zm-1-6.16l-.08.08a.87.87 0 0 0-.1.07l1.9 1.93a.72.72 0 0 1 .26-.1zM71.2 30h.27l.13-.14.1.08-.06.06h.48l.13-.14.1.08-.06.06h.47l.13-.14.08.08-.04.06h.47l.15-.14.07.08-.05.06h.3a.58.58 0 0 1 .17.02l2.02-2.05a.87.87 0 0 1-.14-.08 1 1 0 0 0-.16-.1l-1.96 1.97-.08-.08.15-.16 1.8-1.8c-.07-.02-.13-.05-.18-.07s-.12-.05-.18-.08L73.8 29.1l-.08-.08.15-.15 1.34-1.35a1.24 1.24 0 0 0-.18-.05c-.05-.02-.1-.03-.18-.06L73.8 28.5l-.08-.1.15-.16.82-.82a.68.68 0 0 0-.2-.05 1.85 1.85 0 0 1-.2-.03l-.5.5-.08-.1.15-.15.27-.28h-.54l.02.04-.15.15-.07-.1.1-.1h-.54l.02.05-.14.15-.1-.1.1-.1h-.53l.05.04-.15.15-.1-.1.1-.1h-.54l.04.03-.15.15-.1-.1.12-.1H71l.2.2v.17l.08-.1.1.1-.16.15-.47-.5-.16.03a1.32 1.32 0 0 0-.16.03l.76.76v.17l.08-.1.1.1-.16.14-1.03-1.03a.44.44 0 0 1-.13.04.5.5 0 0 0-.14.05l1.27 1.27v.15l.08-.08.1.08-.16.15-1.5-1.5a.4.4 0 0 1-.13.05.5.5 0 0 0-.13.06l1.73 1.72v.17l.08-.08.1.07-.16.15-1.94-1.94a.95.95 0 0 0-.2.13l2.03 2.05h.1zm2.35-2.08l.07.1-.15.15-.07-.1zm0 .65l.07.07-.15.15-.07-.08zm0 .64l.07.1-.15.14-.07-.07zm-.33-1.6l.08.1-.15.15-.08-.1zm0 .64l.08.1-.15.15-.08-.1zm0 .65l.08.07-.15.15-.08-.08zm0 .64l.08.07-.15.17-.08-.08zm-.32-1.62l.08.1-.14.15-.1-.1zm0 .65l.08.07-.14.15-.1-.08zm0 .64l.08.1-.14.14-.1-.07zm-.32-1.6l.1.1-.16.15-.1-.1zm0 .64l.1.1-.16.15-.1-.1zm0 .65l.1.07-.16.15-.1-.08zm0 .64l.1.07-.16.17-.1-.08zm-.33-1.62l.1.1-.15.15-.1-.1zm0 .65l.1.07-.15.15-.1-.08zm0 .64l.1.1-.15.14-.1-.07zm-.32-1.6l.1.1-.16.15-.1-.1zm0 .64l.1.1-.16.15-.1-.1zm0 .65l.1.07-.16.15-.1-.08zm0 .64l.1.07-.16.17-.1-.08zm-.33-1.62l.1.1-.15.15-.1-.1zm0 .65l.1.07-.15.15-.1-.08zm0 .64l.1.1-.15.14-.1-.07zm-3.4-.52c0 .03-.04.06-.07.1a.64.64 0 0 1-.1.1L70 30.8a.52.52 0 0 1 .03-.1.3.3 0 0 1 .07-.1zm1.67 4.9l-2.65-2.65a1.18 1.18 0 0 0-.02.16v.18l2.67 2.67v-.35zm0-.65l-2.55-2.55-.06.28 2.6 2.62v-.35zm0-.65l-2.4-2.4a1.4 1.4 0 0 0-.05.14.42.42 0 0 1-.04.13l2.5 2.48v-.34zM89.77 38l-.1-.1-.1.1h-.15l.2-.22-.17-.3-.5.53h-.18l.63-.62-.17-.3-.94.93h-.18l1.05-1.04-.2-.3-1.33 1.36h-.17l1.45-1.45-.17-.3L87 38h-.17l1.86-1.87-.18-.3-1.96 1.96.1.22H85.6v2.67h5.32V38h-1.16zm-10.72 2.1l.6.58h.34l-.95-.94v.35zm0 .58h.3l-.3-.3v.3zM83.42 38l.97.98v-.32l-.64-.63h-.34zm-3.45-8l-.92-.92v.34l.57.57h.35zm-.92-.27V30h.27zm5.34 8.6V38h-.34zm1.36-2.48a.32.32 0 0 1 .1-.02.2.2 0 0 0 .1-.02l-.33.36.17.3.78-.78a.84.84 0 0 0 .25-.1l-.98 1 .18.28L87.9 35a4.24 4.24 0 0 0 1.35-5.07 4.2 4.2 0 0 0-.9-1.36 4.3 4.3 0 0 0-1.37-.92 4.2 4.2 0 0 0-1.66-.33v.28l-.3-.28h-.33l.62.63v.28l-.9-.9h-.36l1.26 1.25v.3l-1.56-1.57h-.34l1.9 1.92v.3l-2.2-2.2h-.35l.04.03-.15.15-.1-.1.12-.1h-.55l.04.04-.15.15-.07-.1.1-.1h-.56l.04.03-.14.15-.08-.1.1-.1h-.56l.04.04-.15.15-.07-.1.1-.1h-.53l.2.2v.15l.06-.08.08.1-.15.15-.5-.52h-.35l.84.84v.15l.06-.08.08.1-.15.15-1.16-1.17h-.2v.15l1.35 1.34v.15l.06-.07.08.1-.15.13-1.35-1.34v.35l1.34 1.32v.16l.06-.08.08.08-.15.15-1.35-1.34v.34l1.22 1.22h.12v.32l.4-.4.06.07-.47.5v.48l1.03-1.05.08.08-1.1 1.12v.48l1.68-1.68.08.08-1.77 1.77v.48l2.3-2.32.1.08-2.4 2.42v.48l2.65-2.67V30h.14l-.15-.12v-.17l-.07.08-.1-.07.15-.14.46.45h.33l-.78-.77v-.17l-.07.08-.1-.08.15-.15 1.1 1.1h.35l-1.43-1.42v-.17l-.07.1-.1-.1.15-.14L84.8 30h.33l-2.08-2.07v-.15l-.07.08-.1-.1.15-.16 2.3 2.3v.1a1.54 1.54 0 0 1 1.12.48 1.6 1.6 0 0 1 0 2.27 1.54 1.54 0 0 1-1.13.46h-2.27v-.27l-.28.28h-.17l.45-.44v-.48l-.93.93h-.15l1.08-1.07v-.48L81.5 33.2h-.18l1.73-1.72V31l-2.2 2.2h-.18l2.38-2.37v-.47l-2.66 2.67v3.05l.18-.2h.17l-.36.37v.47l.82-.83h.18l-1 1v.48l1.47-1.5h.17l-1.65 1.67v.47l2.12-2.13h.17L80.53 38h-.34l.2.2v.3l-.5-.5h-.35l.84.84v.3L79.25 38h-.2v.13l1.33 1.34v.3l-1.35-1.35v.35l1.34 1.33v.3l-1.35-1.33v.35l1.24 1.24h2.9l-.17-.2h.02v-.27l.46.46h.35l-.82-.83h.02v-.3l1.1 1.12h.24v-.13l-1.37-1.35h.02v-.3l1.34 1.35v-.35l-1.37-1.33.02-.03v-.3l1.34 1.35v-.33l-1.27-1.27h-.17l.1-.1v-.48l-.58.57h-.17l.75-.74v-.48l-1.22 1.22h-.17l1.4-1.4v-.47l-1.87 1.87h-.17L83.05 36v-.1h2.4l.12.16zm-5.05-6.4l-.07-.1.16-.14.06.1zm0-.64l-.07-.08.16-.16.06.1zm0-.64l-.07-.1.16-.15.06.1zm.33 1.6l-.07-.07.15-.17.1.08zm0-.65l-.07-.06.15-.16.1.1zm0-.62l-.07-.1.15-.15.1.1zm0-.65l-.07-.1.15-.15.1.1zm.33 1.6l-.08-.07.15-.15.08.08zm0-.63l-.08-.1.15-.14.08.1zm0-.64l-.08-.1.15-.15.08.1zm.32 1.6l-.07-.08.16-.15.07.07zm0-.65l-.07-.07.16-.15.07.1zm0-.62l-.07-.1.16-.15.07.1zm0-.65l-.07-.1.16-.15.07.1zm.33 1.6l-.07-.08.15-.15.08.08zm0-.63l-.07-.1.15-.15.08.1zm0-.65l-.07-.1.15-.15.08.1zm.33 1.6l-.08-.08.14-.15.08.08zm0-.65l-.08-.08.14-.15.08.1zm0-.63l-.08-.1.14-.15.08.1zm0-.65l-.08-.1.14-.15.08.1zm.32 1.6l-.1-.07.16-.16.1.07zm0-.63l-.1-.1.16-.16.1.1zm0-.66l-.1-.1.16-.14.1.1zm.2 9.94l.1.08-.14.15-.1-.06zm0 .65l.1.08-.14.16-.1-.07zm0 .63l.1.1-.14.15-.1-.1zm0 .65l.1.1-.14.16-.1-.1zm-.3-1.6l.08.1-.15.14-.07-.08zm0 .64l.08.1-.15.15-.07-.1zm0 .65l.08.1-.15.14-.07-.1zm0 .64l.08.1-.15.15-.07-.1zm-.32-2.25l.08.06-.14.16-.08-.08zm0 .64l.08.07-.14.17-.08-.08zm0 .63l.08.1-.14.15-.08-.1zm0 .64l.08.1-.14.17-.08-.1zm-.32-1.6l.1.1-.17.14-.07-.07zm0 .64l.1.1-.17.15-.07-.1zm0 .65l.1.1-.17.14-.07-.1zm0 .64l.1.1-.17.15-.07-.1zm-.3-2.25l.06.07-.15.15-.07-.08zm0 .64l.06.08-.15.15-.07-.08zm0 .63l.06.1-.15.15-.07-.1zm0 .65l.06.1-.15.15-.07-.1zm-.34-1.6l.08.07-.15.15-.1-.08zm0 .63l.08.1-.15.15-.1-.1zm0 .65l.08.1-.15.14-.1-.1zm0 .64l.08.1-.15.16-.1-.1zm-.72.25l-.08-.1.16-.16.07.1zm0-.66l-.08-.1.16-.15.07.1zm0-.64l-.08-.1.16-.16.07.1zm0-.65l-.08-.08.16-.15.07.07zm.32 1.62l-.07-.1.14-.15.08.1zm0-.65l-.07-.1.14-.15.08.1zm0-.65l-.07-.08.14-.16.08.08zm0-.65l-.07-.07.14-.16.08.07zm5.22-1.35l.2.3 1.94-1.96-.18-.3zm2.36-1.24l-.17-.3-1.94 1.96.17.28zm10.33-8.42V30h.7l-3.37 3.27v.1l-2.66 2.68v.48l2.66-2.66V34l-2.66 2.68v.48l2.66-2.67v.16l-2.66 2.67v.48l2.66-2.66v.17L93.44 38V38H92.1v2.67h5.34V38H96.1v-.12L96 38h-.18l.28-.3v-.47l-.76.77h-.15l.9-.92V37l7.18-7h.96v-2.66h-5.47zm-2.67 9.3L94.7 38h-.16l1.56-1.57v.18zm0-.64L94.06 38h-.17l2.2-2.22v.18zm6.92 2.1l-.06-.06h-.04l.04-.04-.17-.3-.43.4-.06-.06h-.03l.44-.44-.16-.3-.82.8-.05-.06h-.04l.85-.86-.2-.28-1.2 1.2-.06-.06h-.04l1.26-1.26-.17-.3-1.62 1.6-.08-.04h-.04l1.66-1.66-.18-.3-1.95 1.94.18.3.13-.13.1.08-.16.15-.4-.38h-.34l1.22 1.22.17.28.06-.05.1.07-.1.08.2.3.12-.13.08.08-.14.15-2-2h-.2v.18l2.52 2.5h2.82v-.1h-.02.02v-.63l-.35-.33v-.02l-.16-.3-.07.07-.1-.07.1-.12-.14-.25.7.7v-.33l-1.2-1.2zm-2.57.65l-.1-.07.15-.15.1.07zm.32.33l-.1-.08.16-.15.1.08zm0-.65l-.1-.08.16-.15.1.08zm.32.97l-.1-.07.15-.16.08.08zm0-.64l-.1-.07.15-.15.08.07zm.3 1.63l-.08-.1.15-.13.08.07zm0-.65l-.08-.08.15-.15.08.08zm0-.65l-.08-.08.15-.15.08.08zm0-.65l-.08-.08.15-.15.08.08zm.32 2.27l-.07-.1.15-.15.07.1zm0-.65l-.07-.07.15-.16.07.1zm0-.65l-.07-.07.15-.16.07.08zm0-.64l-.07-.07.15-.15.07.07zm.33 1.63l-.08-.1.15-.13.08.07zm0-.65l-.08-.08.15-.15.08.08zm0-.65l-.08-.08.15-.15.08.08zm0-.65l-.08-.08.15-.15.08.08zm.72-.23l.08.08-.16.15-.08-.08zm-.4 2.5l-.08-.1.15-.15.07.1zm0-.65l-.08-.07.15-.16.07.08zm0-.65l-.08-.07.15-.16.07.08zm0-.64l-.08-.07.15-.15.07.07zm.32 1.63l-.08-.1.15-.13.08.07zm0-.65l-.08-.08.15-.15.08.08zm0-.65l-.08-.08.15-.15.08.08zm1.35 1.07l.1.07-.16.16-.1-.1zm-.33-.33l.1.08-.15.15-.1-.07zm0 .63l.1.1-.15.16-.1-.1zm-.7.25l-.08-.1.15-.15.07.1zm0-.65l-.08-.07.15-.16.07.1zm0-.65l-.08-.07.15-.16.07.08zm.38-.55l.1.08-.16.15-.07-.08zm0 .65l.1.08-.16.15-.07-.08zm0 .65l.1.07-.16.16-.07-.1zm-.23-1.55l-.15.16-.08-.07.15-.15zm-9.73-2.67l2.66-2.67v-.47l-2.66 2.67v.48zm2.66-5.74l-2.66 2.67v.5l2.66-2.68v-.45zm0 1.94l-2.66 2.68v.47l2.66-2.67v-.48zm0-1.3l-2.66 2.68v.47l2.66-2.67v-.48zm0 .65l-2.66 2.67v.48l2.66-2.67v-.47zm2.8 4.95l.2.28 1.94-1.94-.2-.3zm1.24-3.17l-1.96 1.94.2.32 1.93-1.95zm.23.4l-1.94 1.95.17.3 1.96-1.94zm-.97 3.58l.17.3 1.94-1.95-.16-.3zm1.22-3.17l-1.95 1.96.18.3 1.94-1.95zm-1.47 2.78l.17.28 1.95-1.94-.18-.3zm2.6-.84l-.18-.3-1.94 1.94.2.3zM97.3 27.3h-.24l.24.26v-.25zm6.94 11.04V38h-.35zM97.3 27.87l-.55-.56h-.34l.9.9v-.33zm-5.2 1.88v.23h.23zm6.8 10.35l.57.57h.35l-.92-.92v.35zm4.35-2.1l1 1v-.32l-.66-.65h-.35zm-4.35.8l1.87 1.87h.34l-2.2-2.22v.35zm0 .64l1.22 1.23h.35L98.9 39.1v.38zm0 1.23h.27l-.27-.27v.27zm-5.46-10.7v.1l.07-.1h.1l-.03-.05.15-.15.08.1-.36.36v.48l.72-.72h.1l-.06-.05.15-.16.1.1-1 1.02v.46L94.8 30h.1l-.05-.07.15-.15.1.1-1.66 1.66v.48L95.46 30h.1l-.07-.06.15-.16.1.1-2.3 2.3v.47L96.07 30h.12l-.1-.1v-.3l.38.4h.35l-.73-.73v-.3L97.13 30h.17v-.18l-1.2-1.2v-.3l1.2 1.2v-.34l-1.2-1.2v-.3l1.2 1.2v-.35l-1.2-1.2h-.4l-.1.1-.1-.06.03-.04h-.47l-.12.1-.1-.06.04-.04h-.47l-.1.1-.1-.06.05-.04h-.47l-.13.1-.08-.06.04-.04h-.4l.27.28-.03.07v.2l-.56-.54h-.34l.93.93-.03.04v.23l-1.2-1.2h-.14v.2l1.37 1.38-.03.05v.23l-1.34-1.34v.35l1.37 1.36-.03.04v.23L92.1 28.5v.34L93.26 30h.18zm2.53-2.45l.08.08-.14.15-.08-.08zm0 .65l.08.07-.14.16-.08-.08zm0 .65l.08.07-.14.15-.08-.08zm0 .65l.08.07-.14.15-.08-.1zm-.32-1.6l.1.08-.16.15-.1-.07zm0 .65l.1.08-.16.15-.1-.07zm0 .65l.1.08-.16.15-.1-.07zm-.33-1.62l.1.08-.16.15-.1-.08zm0 .65l.1.08-.16.15-.1-.08zm0 .65l.1.07-.16.16-.1-.08zm0 .65l.1.07-.16.16-.1-.1zM95 27.88l.1.07-.16.15-.1-.07zm0 .64l.1.08-.16.15-.1-.07zm0 .65l.1.08-.16.15-.1-.07zm-.33-1.62l.1.08-.15.15-.1-.08zm0 .65l.1.08-.15.15-.1-.08zm0 .65l.1.07-.15.16-.1-.08zm0 .65l.1.07-.15.16-.1-.1zm-.32-1.62l.1.07-.16.15-.1-.07zm0 .64l.1.08-.16.15-.1-.07zm0 .65l.1.08-.16.15-.1-.07zm-.3-1.62l.07.08-.15.15-.08-.08zm0 .65l.07.08-.15.15-.08-.08zm0 .65l.07.07-.15.16-.08-.08zm0 .65l.07.07-.15.16-.08-.1zm-.33-1.62l.08.07-.15.15-.08-.07zm0 .64l.08.08-.15.15-.08-.07zm0 .65l.08.08-.15.15-.08-.07zm-.76.84l-.86-.85v.35l.52.5h.34zm13 10.7h.33l-.88-.88v.34zm-.3 0l-.24-.25v.25h.25zm5.1-2.3v-.35l-.03-.02h-.34zm0 .64v-.35l-.67-.67h-.36zm-1.34-1.1v-.46l-.6.6-.03-.05h-.1l.72-.73v-.47l-1.24 1.24-.04-.04h-.1l1.38-1.37v-.48l-1.9 1.88-.03-.03h-.1l2.02-2.03v-.47l-2.54 2.53v-.03h-.13l2.67-2.68v-.47l-2.67 2.67v.47h-.23l.23.23v.3l-.53-.53h-.34l.87.88v.3l-1.18-1.18h-.15v.2l1.33 1.33v.3l-1.33-1.34v.35l1.33 1.34v.3l-1.33-1.35v.35l1.18 1.18h2.93l-.15-.13.04-.04v-.22l.4.4h.34l-.78-.78.04-.04v-.23l1.05 1.05h.28v-.06l-1.37-1.37.04-.04V39l1.33 1.34v-.35l-1.37-1.37.04-.04v-.23l1.33 1.34v-.35l-1.3-1.3h-.1zm-2.6 2.62l.14-.15.08.1-.16.14zm0-.65l.14-.14.08.08-.16.15zm0-.63l.14-.16.08.1-.16.15zm0-.65l.14-.16.08.1-.16.16zm.3 1.62l.16-.15.08.06-.15.16zm0-.65l.16-.16.08.07-.15.17zm0-.66l.16-.15.08.1-.15.14zm0-.65l.16-.16.08.1-.15.15zm.34 2.26l.15-.15.1.1-.17.14zm0-.65l.15-.14.1.08-.17.15zm0-.63l.15-.16.1.1-.17.15zm0-.65l.15-.16.1.1-.17.16zm.32 1.62l.15-.15.08.06-.14.16zm0-.65l.15-.16.08.07-.14.17zm0-.66l.15-.15.08.1-.14.14zm0-.65l.15-.16.08.1-.14.15zm.32 2.26l.16-.15.07.1-.15.14zm0-.65l.16-.14.07.08-.15.15zm0-.63l.16-.16.07.1-.15.15zm0-.65l.16-.16.07.1-.15.16zm.33 1.62l.13-.15.1.06-.16.16zm0-.65l.13-.16.1.07-.16.17zm0-.66l.13-.15.1.1-.16.14zm0-.65l.13-.16.1.1-.16.15zm.3 2.26l.16-.15.08.1-.15.14zm0-.65l.16-.14.08.08-.15.15zm0-.63l.16-.16.08.1-.15.15zm0-.65l.16-.16.08.1-.15.16zm.33 1.62l.15-.15.1.06-.15.16zm0-.65l.15-.16.1.07-.15.17zm0-.66l.15-.15.1.1-.15.14zm0-.65l.15-.16.1.1-.15.15zm1.7-10.96h-.26l-1.08 1.1v-.18l.9-.92h-.46l-.44.44v-.17l.27-.26h-3.06l-1.22 1.22v.48l1.33-1.34v.18l-1.33 1.33v.5l1.33-1.35v.17l-1.33 1.34V30h.32l1-1v.15l-.85.86h.47l.38-.37v.17l-.2.2h.2v2.88l.2-.2h.14l-.35.35v.48l.82-.82h.17l-1 1v.47l1.48-1.47h.17l-1.65 1.65v.47l2.12-2.12h.17l-2.3 2.3v.47l2.68-2.67V30h.2l1.13-1.13v-.48l-1.33 1.33v-.17l1.33-1.34v-.48l-1.33 1.34v-.17l1.33-1.33v-.23zm0 2.16v-.48l-1 1h.48zm-5.34-1.6v.5l1.05-1.06H106zm0-.16l.4-.4h-.4v.4zm1.33 7.88v.48l2.67-2.67v-.48zm2.67-1.54v-.48l-2.67 2.67v.48zm1.33-4.4l-.34.33h.35v-.33zm-1.33 5.03v-.47l-2.67 2.67v.48zm6.53-7.36h-4V30h1.34v.4l.4-.4h.16l-.57.58v.48l1.03-1.05h.14l.1.17-.08-.14-1.2 1.2v.48l1.36-1.38.82 1.3-2.2 2.2v.47l2.37-2.38-.12-.2.2.3-2.44 2.43v.48l2.6-2.63-.1-.16 5.35 8.55h2.67v-.77l-.06-.1.04.06.02-.03v-.48l-.2.2-.24-.4.17.3.27-.28v-.48l-.46.46-.55-.9 1.02-1v-.5l-1.2 1.2.1.17-.16-.27 1.26-1.26v-.46l-1.45 1.45-.05-.12 1.5-1.5v-.47l-1.7 1.7-.05-.12 1.75-1.74v-.48l-1.94 1.94-.25-.4.2.3 2-2.02v-.48l-2.2 2.2zM113.3 37.5l2.65-2.66v-.48l-2.66 2.67v.48zm10 1.6l.52-.52v-.48l-.7.7zm-.24-.4l.76-.77v-.48l-.95.96zm-9.77-2.47l2.65-2.67v-.48l-2.66 2.68v.47zm2.65-3.8l-2.66 2.67v.48l2.65-2.67v-.46zm0 5.15l-.44.44h-.14l.6-.6v-.47l-1.07 1.07h-.2l1.25-1.24v-.47l-1.7 1.72h-.18l1.88-1.9v-.46l-2.36 2.36h-.18l2.53-2.53V35l-2.66 2.68v.34h-1.35v2.67h5.34V38h-1.35v-.44zm-2.66-.72l2.65-2.67v-.5l-2.66 2.68v.48zm0-3.23l2.1-2.1-.17-.3-1.94 1.93v.48zm8.27 2.7l2.25-2.28v-.47l-2.44 2.44zm-.42-.67l.17.26 2.5-2.5v-.47l-2.67 2.67v.04zm-7.86-3.78v.48l1.6-1.64-.17-.3zm0 1.1l1.85-1.86-.17-.3-1.7 1.7v.47zm7.45-2.97l-.93-.93v.35l.6.6h.33zm4.08-2.66l.32.32v-.32h-.32zm-5 2.38v.3h.28zm4.35-2.38l.97.97V28l-.63-.63h-.34zm-.63 0l.02.04-.15.15-.08-.1.1-.1h-.53l.04.04-.15.15-.1-.1.1-.1h-.54l.04.04-.16.15-.1-.1.12-.1h-.55l.05.05-.15.15-.1-.1.12-.1h-.56l.2.2v.16l.07-.1.1.1-.16.16-.5-.52h-.36l.85.84v.17l.08-.1.1.1-.16.15-1.14-1.15h-.2v.18l1.32 1.33V29l.08-.07.1.08-.16.16-1.35-1.36v.34l1.33 1.34v.17l.08-.07.1.07-.16.15-1.35-1.35v.35l1.24 1.24h.1v.26l.07-.08.1.08-.16.15-.02-.02v.52l.08-.1.1.1-.16.16-.02-.02v.52l.08-.1.1.1-.16.15-.02-.02v.52l.08-.1.1.1-.16.14-.02-.02v.5l.17-.16h.18l-.1-.07.15-.15.1.08-.5.5v.48l.82-.8h.15l-.07-.1.15-.14.1.07-1.15 1.15v.47l1.47-1.46h.15l-.07-.1.15-.14.1.07-1.8 1.8v.47l2.12-2.1h.15l-.08-.1.16-.14.07.07-2.42 2.45v.47l2.67-2.67v-.48l-.08.06-.07-.07.15-.17v-.47l-.08.07-.07-.1.15-.15V31l-.08.08-.07-.1.15-.15v-.47l-.08.07-.07-.07.15-.16V30h.15l-.15-.14v-.15l-.08.08-.07-.07.15-.15.46.46h.34l-.8-.8v-.12l-.08.05-.07-.07.15-.16 1.1 1.1h.23v-.1l-1.33-1.34v-.13l-.08.05-.07-.07.15-.14 1.33 1.33v-.35l-1.33-1.34v-.12l-.08.07-.07-.1.15-.15 1.33 1.34v-.35l-1.25-1.27h-.35zm-2.05 4.7l-.1-.1.15-.14.1.1zm0-.64l-.1-.1.15-.15.1.1zm0-.65l-.1-.1.15-.15.1.1zm0-.65l-.1-.07.15-.15.1.07zm0-.64l-.1-.08.15-.15.1.07zm0-.65l-.1-.07.15-.15.1.07zm0-.62l-.1-.1.15-.15.1.1zm.32 4.18l-.1-.08.16-.15.1.1zm0-.63l-.1-.1.16-.16.1.1zm0-.65l-.1-.1.16-.15.1.1zm0-.65l-.1-.08.16-.15.1.08zm0-.65l-.1-.08.16-.15.1.08zm0-.65l-.1-.07.16-.16.1.08zm0-.65l-.1-.07.16-.15.1.1zm0-.63l-.1-.1.16-.15.1.1zm.32 4.2l-.1-.1.16-.15.1.1zm0-.65l-.1-.1.16-.15.1.1zm0-.64l-.1-.1.16-.16.1.1zm0-.65l-.1-.07.16-.15.1.07zm0-.64l-.1-.08.16-.15.1.08zm0-.65l-.1-.07.16-.15.1.08zm0-.62l-.1-.1.16-.15.1.1zm.33 4.18l-.1-.08.15-.15.1.1zm0-.63l-.1-.1.15-.15.1.1zm0-.65l-.1-.1.15-.15.1.1zm0-.65l-.1-.08.15-.15.1.08zm0-.65l-.1-.07.15-.15.1.08zm0-.65l-.1-.07.15-.16.1.08zm0-.64l-.1-.1.15-.14.1.1zm0-.64l-.1-.1.15-.16.1.1zm.32 4.2l-.1-.1.15-.16.1.1zm0-.65l-.1-.1.15-.15.1.1zm0-.64l-.1-.1.15-.16.1.1zm0-.65l-.1-.07.15-.15.1.08zm0-.64l-.1-.08.15-.15.1.08zm0-.65l-.1-.06.15-.16.1.08zm0-.62l-.1-.1.15-.15.1.1zm.3 4.18l-.08-.08.15-.15.08.1zm0-.63l-.08-.1.15-.15.08.1zm0-.65l-.08-.1.15-.15.08.1zm0-.65l-.08-.07.15-.16.08.08zm0-.65l-.08-.07.15-.14.08.07zm0-.64l-.08-.08.15-.15.08.08zm0-.65l-.08-.1.15-.14.08.1zm0-.64l-.08-.1.15-.16.08.1zm.32 4.2l-.08-.1.16-.15.07.1zm0-.65l-.08-.1.16-.14.07.1zm0-.64l-.08-.1.16-.15.07.1zm0-.65l-.08-.07.16-.15.07.08zm0-.64l-.08-.07.16-.17.07.08zm0-.65l-.08-.06.16-.16.07.08zm0-.62l-.08-.1.16-.14.07.1zm12.53.44a.66.66 0 0 0-.12-.1l-.12-.13-1.88 1.88a1.7 1.7 0 0 0 .13.12 1.02 1.02 0 0 1 .1.1zm-.17 3.4l1.2-1.2a1.27 1.27 0 0 1-.02-.2 1.27 1.27 0 0 0-.05-.2l-1.6 1.6h.48zm-.64 0l1.73-1.73a.7.7 0 0 1-.06-.2 1.46 1.46 0 0 0-.04-.18l-2.1 2.1h.48zm-.8 0h.15l2.22-2.2c-.03-.07-.06-.13-.1-.18a1.06 1.06 0 0 1-.07-.15l-2.2 2.18v.34zm0-.5l2.15-2.15-.18-.3-2 2a2.04 2.04 0 0 1 .03.3v.14zm1.9-2.53c-.04-.06-.07-.1-.1-.15s-.07-.1-.1-.13l-1.9 1.9a1.25 1.25 0 0 1 .14.32zm-.63-.68c-.08-.07-.17-.14-.25-.2l-1.97 1.96c.07.02.12.04.17.06a.97.97 0 0 1 .16.07zm-5.25 1.56V30h2.67a1.08 1.08 0 0 1 .23.03l2-2c-.05-.04-.1-.07-.14-.1s-.1-.07-.14-.1l-1.94 1.95v-.17l1.83-1.82a1.2 1.2 0 0 1-.16-.08c-.06-.02-.1-.05-.17-.07l-1.5 1.5v-.17l1.36-1.37a.96.96 0 0 0-.2-.07.97.97 0 0 1-.17-.06l-1 1.02v-.17l.87-.9c-.07 0-.13-.02-.2-.03a1.22 1.22 0 0 0-.2-.02l-.48.47v-.17l.33-.32a.9.9 0 0 0-.17-.02h-.3l-.05.04-.04-.04h-.56l-.06.04-.04-.04h-.55l-.05.04-.05-.04h-.56l-.03.04-.05-.04h-.5v.15l-.13-.16a1.48 1.48 0 0 0-.17 0 1.08 1.08 0 0 1-.15.02l.5.5-.05.07v.2l-.72-.72a.75.75 0 0 0-.3.07l1.08 1.05-.05.06v.2l-1.23-1.24a.3.3 0 0 1-.13.04.34.34 0 0 0-.13.05l1.54 1.55-.05.05v.2l-1.7-1.7-.22.1 1.98 2zm2.56-2.08l.08.07-.15.16-.08-.08zm0 .64l.08.08-.15.15-.08-.07zm0 .65l.08.07-.15.15-.08-.07zm0 .62l.08.1-.15.16-.08-.1zm-.32-2.25l.08.08-.15.15-.07-.08zm0 .65l.08.08-.15.15-.07-.08zm0 .65l.08.08-.15.15-.07-.08zm0 .65l.08.07-.15.15-.07-.1zm-.32-1.62l.08.07-.16.16-.07-.08zm0 .64l.08.08-.16.15-.07-.07zm0 .65l.08.07-.16.15-.07-.07zm0 .62l.08.1-.16.16-.07-.1zm-.32-2.25l.07.08-.14.15-.08-.08zm0 .65l.07.08-.14.15-.08-.08zm0 .65l.07.08-.14.15-.08-.08zm0 .65l.07.07-.14.15-.08-.1zm-.33-1.62l.1.07-.15.16-.1-.08zm0 .64l.1.08-.15.15-.1-.07zm0 .65l.1.07-.15.15-.1-.07zm0 .62l.1.1-.15.16-.1-.1zm-.3-2.25l.08.08-.15.15-.1-.08zm0 .65l.08.08-.15.15-.1-.08zm0 .65l.08.08-.15.15-.1-.08zm0 .65l.08.07-.15.15-.1-.1zm-.34-1.62l.1.07-.15.16-.1-.08zm0 .64l.1.08-.15.15-.1-.07zm0 .65l.1.07-.15.15-.1-.07zm0 .62l.1.1-.15.16-.1-.1zm-.32-2.25l.1.08-.16.15-.1-.08zm0 .65l.1.08-.16.15-.1-.08zm0 .65l.1.08-.16.15-.1-.08zm0 .65l.1.07-.16.15-.1-.1zm6.38 2.6v-.43l-.42.4h.42zm-1.07 0h.48l.6-.6v-.27a.62.62 0 0 0-.03-.2zm-1.6 4.67a2 2 0 0 1-.03.27l2 2a.6.6 0 0 0 .06-.1.7.7 0 0 1 .07-.13l-2.1-2.1v.04zM133.02 38h-.23l2.16 2.18.2-.14-2.02-2.04h-.12zm-1.5 0l2.53 2.54.12-.04.15-.04-2.46-2.46h-.34zm.64 0l2.37 2.4c.1-.06.18-.1.24-.13L132.5 38h-.34zm3.87 1.3a.6.6 0 0 0 .15-.2l-1.92-1.9a1.18 1.18 0 0 1-.13.2zm-.32.33l.18-.17-1.9-1.9c0 .03-.04.06-.07.1a1.17 1.17 0 0 1-.08.08zm-.34.28a.75.75 0 0 1 .1-.06.83.83 0 0 0 .1-.07l-1.93-1.92a.92.92 0 0 1-.25.1zm-5-1.9A1.33 1.33 0 0 1 129 36.7v-2.8l-2.67-2.67v.35l2.44 2.44h-.3l-2.15-2.16v.34l1.8 1.82h-.3l-1.5-1.5v.33l1.17 1.17h-.3l-.87-.86v.34l.52.52h-.3l-.22-.2v2.87a3.9 3.9 0 0 0 .32 1.55 3.94 3.94 0 0 0 .86 1.27 4.03 4.03 0 0 0 1.26.86 3.88 3.88 0 0 0 1.55.32h.3l-.3-.3v-.3l.6.6h.36l-.95-.95v-.3l1.24 1.25h.34l-1.6-1.58v-.3l1.9 1.88h.34l-2.23-2.23v-.3l2.54 2.53h.33l-2.67-2.67h-.2zm-2.84-9.5a1.55 1.55 0 0 0-.16.17l1.9 1.9a.46.46 0 0 1 .07-.1.93.93 0 0 1 .07-.08zm.34-.3l-.1.07a.87.87 0 0 1-.1.08l1.9 1.9a.95.95 0 0 1 .22-.13zm.38-.27a.93.93 0 0 1-.1.07c-.04 0-.07.04-.1.06l1.97 1.98a.75.75 0 0 1 .3-.06zm-1.03.9a.6.6 0 0 0-.06.1.28.28 0 0 1-.06.1l1.98 2c0-.04.02-.08.03-.13a.2.2 0 0 1 .04-.12zm1.82 3.1l-2.3-2.28-.1.23 2.4 2.4v-.34zm0 .65l-2.48-2.47c0 .05-.02.1-.03.14a.5.5 0 0 0-.03.13l2.55 2.56v-.35zm0-1.24v-.04l-2.08-2.06c-.02.03-.06.1-.1.2l2.18 2.2v-.3zm0 1.9l-2.6-2.6a.77.77 0 0 0-.03.13.5.5 0 0 1-.03.15l2.65 2.66v-.34zm1.85 4.77l2.63 2.64a1.13 1.13 0 0 0 .16 0 1.4 1.4 0 0 0 .14-.04l-2.6-2.6h-.33zm.82-1.87h2.65v.2l2.2 2.2.13-.22-2.17-2.18h.3l1.96 1.97a.4.4 0 0 0 .04-.14.47.47 0 0 1 .05-.14l-1.7-1.7h.3l1.46 1.47.06-.3-1.18-1.17h.3l.92.92a.5.5 0 0 0 .02-.17v-.15l-.6-.6h.32l.28.3V33.5h-5.33v2.66zm23.6-4.8v-.23a1.33 1.33 0 0 0-.03-.2l-.46.43h-.16l.6-.6a1.64 1.64 0 0 0-.03-.2 1.28 1.28 0 0 0-.04-.2l-1 1H154l1.14-1.13a1.84 1.84 0 0 1-.07-.18 1.76 1.76 0 0 0-.07-.18l-1.46 1.5h-.17l1.58-1.6a1.22 1.22 0 0 0-.08-.18 1.45 1.45 0 0 1-.07-.17l-1.9 1.93h-.18l2.02-2.02c-.03-.05-.06-.1-.1-.15s-.05-.1-.1-.15l-1.95 1.97a1.18 1.18 0 0 1 0 .17.92.92 0 0 1 .02.16v5.34h.23l1.95 1.93c.02-.04.06-.1.1-.2l-1.7-1.73h.3l1.5 1.5a1.04 1.04 0 0 0 .04-.12c.02-.04.03-.1.06-.14l-1.26-1.24h.3l1.02 1 .05-.27-.7-.73h.3l.45.48c0-.07.02-.12.03-.16a.8.8 0 0 0 0-.17l-.14-.15h.15v-5.34zm-1.1-2.77l-.13-.13a1.36 1.36 0 0 0-.13-.1l-1.9 1.88a1.72 1.72 0 0 1 .15.1 1.07 1.07 0 0 0 .1.13zm-.36-.32c-.1-.07-.18-.14-.26-.2l-2 1.98a1.13 1.13 0 0 1 .36.13zm.63.67a2.56 2.56 0 0 0-.2-.27l-1.9 1.9a3.36 3.36 0 0 1 .16.32zm-7.18 2.7l-2.2-2.18-.12.23 2.3 2.3v-.34zm4 6.38h-2.68a1.33 1.33 0 0 1-1.33-1.33h-.14l-2.54-2.54v.34l2.2 2.2h-.3l-1.9-1.9v.35l1.55 1.55h-.3l-1.25-1.24v.34l.9.9h-.3l-.6-.6v.35l.25.25h-.25a3.9 3.9 0 0 0 .32 1.57 4.08 4.08 0 0 0 .85 1.26 4.2 4.2 0 0 0 1.26.86 3.85 3.85 0 0 0 1.56.3h2.78l-.1-.1v-.3l.4.4a.58.58 0 0 1 .13-.03.71.71 0 0 0 .15-.02l-.7-.7v-.3l.94.95a1.56 1.56 0 0 0 .3-.08l-1.23-1.2v-.3l1.42 1.43a.42.42 0 0 1 .13-.05.3.3 0 0 0 .12-.04l-1.68-1.68v-.3l1.86 1.87.23-.12-2.1-2.08zm-4-1.85l-2.68-2.67v.35l2.67 2.68v-.35zm0-.65l-2.68-2.67v.35l2.67 2.68v-.35zm0-.63l-2.68-2.67v.35l2.67 2.67v-.35zm6.26 5.1c.03-.02.07-.05.1-.07a1.22 1.22 0 0 1 .1-.08l-1.92-1.93a2.6 2.6 0 0 1-.26.08zm1-.97a.3.3 0 0 0 .05-.1c.03-.04.06-.08.08-.1l-2.06-2.07a.94.94 0 0 1-.05.3zm-.3.36a.96.96 0 0 0 .08-.1 1.2 1.2 0 0 0 .07-.1l-1.9-1.93c-.06.1-.1.18-.14.23zm-.34.32c.05-.04.1-.1.2-.17l-1.9-1.9a1.05 1.05 0 0 1-.2.16zm-6.63-8.36a1.35 1.35 0 0 1 .03-.3l-1.98-2a.8.8 0 0 0-.14.22l2.1 2.1v-.02zm-1.36-2.98l-.17.18 1.88 1.88a.93.93 0 0 1 .2-.15zm1.35 5.88l-2.68-2.67v.33l2.67 2.67v-.34zm-1-6.16a.77.77 0 0 1-.1.07.72.72 0 0 0-.1.08l1.93 1.93a.72.72 0 0 1 .25-.1zm2.32 1.92h.27l.12-.13.1.07-.06.05h.48l.13-.13.1.07-.06.05h.5l.12-.13.07.07-.04.05h.47l.14-.14.07.07-.05.06h.3a.58.58 0 0 1 .16.03l2.02-2.04a.87.87 0 0 1-.14-.1 1 1 0 0 0-.16-.08l-1.97 1.96-.06-.08.15-.15 1.78-1.8c-.06-.02-.12-.04-.17-.07s-.1-.05-.16-.07l-1.53 1.53-.06-.07.15-.16 1.32-1.33a.9.9 0 0 0-.18-.06 1.28 1.28 0 0 1-.18-.05l-1.05 1.05-.06-.1.15-.15.8-.82a.68.68 0 0 0-.2-.05 1.85 1.85 0 0 1-.2-.03l-.5.5-.06-.1.15-.15.26-.27h-.54l.02.04-.15.15-.1-.1.1-.1h-.52v.04l-.12.16-.1-.1.1-.1h-.53l.04.03-.16.16-.08-.1.1-.1h-.54l.04.04-.15.16-.1-.1.1-.1h-.54l.2.2v.16l.07-.1.1.1-.16.15-.47-.5c-.07.03-.12.03-.17.04s-.1.02-.14.03l.76.76v.17l.08-.1.1.1-.16.16-1.03-1.03a.56.56 0 0 1-.1.03.4.4 0 0 0-.15.04l1.27 1.28v.15l.08-.07.1.07-.16.16-1.5-1.52a.4.4 0 0 1-.13.06.5.5 0 0 0-.1.05l1.72 1.7v.18l.08-.07.1.08-.16.16-1.94-1.95a.95.95 0 0 0-.2.12l2.03 2.04h.1zm2.35-2.08l.07.1-.15.16-.1-.1zm0 .65l.07.07-.15.15-.1-.07zm0 .64l.07.08-.15.15-.1-.08zm-.33-1.62l.08.1-.15.15-.08-.1zm0 .65l.08.1-.15.15-.08-.1zm0 .65l.08.07-.15.15-.08-.08zm0 .65l.08.07-.15.16-.08-.08zm-.32-1.63l.07.1-.14.16-.1-.1zm0 .65l.07.07-.14.15-.1-.07zm0 .64l.07.08-.14.15-.1-.08zm-.33-1.62l.1.1-.16.15-.1-.1zm0 .65l.1.1-.16.15-.1-.1zm0 .65l.1.07-.16.15-.1-.08zm0 .65l.1.07-.16.16-.1-.08zm-.33-1.63l.1.1-.16.16-.08-.1zm0 .65l.1.07-.16.15-.08-.07zm0 .64l.1.08-.16.15-.08-.08zm-.32-1.62l.1.1-.16.15-.1-.1zm0 .65l.1.1-.16.15-.1-.1zm0 .65l.1.07-.16.15-.1-.08zm0 .65l.1.07-.16.16-.1-.08zm-.33-1.63l.1.1-.15.16-.1-.1zm0 .65l.1.07-.15.15-.1-.07zm0 .64l.1.08-.15.15-.1-.08zm-3.4-.53c0 .03-.04.07-.07.1s-.06.08-.1.1l1.95 1.93c.02-.04.03-.08.05-.1a.3.3 0 0 1 .07-.1zm1.67 4.9l-2.66-2.64a1.18 1.18 0 0 0-.02.16v.16l2.67 2.67v-.35zm0-.64l-2.56-2.56-.06.3 2.6 2.6v-.34zm0-.65l-2.4-2.4a.47.47 0 0 0-.06.14.48.48 0 0 1-.05.14l2.5 2.48v-.34zm20.1-4.95l.27.27v.3l-.57-.57h-.34l.9.92v.3l-1.2-1.22h-.35l1.57 1.56v.32l-1.86-1.87h-.34l2.2 2.2v.3l-2.48-2.5h-1.5v2.67H165v.1l1.24 1.24h-.3l-.93-.93v.34l.6.6h-.3l-.3-.3v.33l.06.06-.05.07v.52l.06.06-.05.06v.54l.06.05-.05.06v.55l.06.05-.05.06V34l.06.05-.05.06v.54l.06.06-.05.06v.5l.06.1-.05.05v.52l.06.06-.05.07v.52l.06.06-.05.05v.02a1.23 1.23 0 0 1-.15.6l.6-.6h.03l.15-.15.08.08-2.03 2.04v-.17l.6-.6a1.2 1.2 0 0 1-.6.14h-1.86a1.33 1.33 0 0 1-1.33-1.34v-.12l-.13.1h-.15l.27-.28v-.47l-.76.76h-.16l.93-.95v-.47l-1.4 1.4h-.18l1.57-1.58v-.47l-2.06 2.06h-.16l2.23-2.24v-.48l-2.67 2.67v.04a3.9 3.9 0 0 0 .32 1.55 3.94 3.94 0 0 0 .86 1.27 4.03 4.03 0 0 0 1.26.86 3.93 3.93 0 0 0 1.57.3h2.07a1.04 1.04 0 0 0 .2 0l3.58-3.6a.67.67 0 0 0 .02-.2v-5.74L165 28.47v-.3l2.67 2.66v-.34L165 27.8v-.3l2.67 2.67V30H169v-2.68h-1.6zm-2.17 9.1l-.07-.08.15-.15.1.08zm0-.65l-.07-.07.15-.16.1.08zm0-.63l-.07-.1.15-.15.1.1zm0-.65l-.07-.1.15-.15.1.1zm0-.65l-.07-.1.15-.13.1.08zm0-.64l-.07-.08.15-.15.1.07zm0-.65l-.07-.08.15-.15.1.07zm0-.65l-.07-.08.15-.15.1.08zm-.22-2.16v-.3l1.9 1.9h-.3zm1.85 5.7l-.1-.07.16-.15.1.1zm.16.5l-.15.16-.1-.08.16-.15zm-.15-1.12l-.1-.1.16-.15.1.1zm0-.65l-.1-.1.16-.15.1.1zm0-.65l-.1-.07.16-.15.1.07zm0-.64l-.1-.07.16-.15.1.07zm0-.64l-.1-.08.16-.15.1.07zm0-.65l-.1-.07.16-.15.1.08zm-.32 4.2l-.1-.07.16-.15.08.08zm.15.5l-.15.16-.1-.07.16-.17zm-.15-1.12l-.1-.1.16-.15.08.1zm0-.65l-.1-.1.16-.15.08.1zm0-.64l-.1-.1.16-.15.08.08zm0-.66l-.1-.08.16-.15.08.08zm0-.65l-.1-.1.16-.14.08.08zm0-.66l-.1-.08.16-.15.08.1zm-.27-.55l.1.06-.15.16-.1-.08zm0 .63l.1.08-.15.16-.1-.07zm0 .65l.1.08-.15.15-.1-.06zm0 .65l.1.08-.15.16-.1-.08zm0 .63l.1.1-.15.15-.1-.1zm0 .65l.1.1-.15.16-.1-.1zm0 .66l.1.1-.15.13-.1-.08zm0 .65l.1.08-.15.16-.1-.08zm-.32-4.2l.1.08-.16.16-.07-.08zm0 .66l.1.07-.16.16-.07-.1zm0 .65l.1.08-.16.15-.07-.07zm0 .65l.1.08-.16.15-.07-.1zm0 .63l.1.1-.16.15-.07-.1zm0 .65l.1.1-.16.15-.07-.1zm0 .65l.1.08-.16.15-.07-.07zm0 .65l.1.08-.16.16-.07-.08zm-.3-4.85l.07.08-.14.15-.08-.06zm0 .65l.07.08-.14.16-.08-.07zm0 .65l.07.08-.14.15-.08-.07zm0 .65l.07.08-.14.16-.08-.08zm0 .63l.07.1-.14.15-.08-.1zm0 .65l.07.1-.14.16-.08-.1zm0 .66l.07.1-.14.13-.08-.08zm-.08.88l-.08-.08.15-.15.08.08zm-1.9 3l2.45-2.43.16-.15.1.08-2.7 2.7v-.18zm0 .66l3.1-3.1.15-.15.1.08-3.33 3.34v-.17zm0 .82v-.17l3.75-3.74.16-.15.07.08zm3.57-8.26l.1.07-.15.16-.1-.1zm-.15-.5l.15-.16.1.08-.15.15zm.15 1.14l.1.08-.15.15-.1-.08zm0 .65l.1.08-.15.15-.1-.1zm0 .63l.1.1-.15.15-.1-.1zm0 .65l.1.1-.15.15-.1-.1zm0 .65l.1.07-.15.16-.1-.07zm0 .65l.1.07-.15.16-.1-.08zm.27-.1l-.1-.08.16-.15.07.08zm0-.65l-.1-.07.16-.15.07.1zm0-.63l-.1-.1.16-.15.07.1zm0-.65l-.1-.1.16-.15.07.1zm0-.64l-.1-.08.16-.15.07.07zm0-.65l-.1-.07.16-.15.07.07zm0-.64l-.1-.08.16-.15.07.08zm.13-.8l-.13.15-.1-.07.16-.15zm-.1-.1h-.3L165 29.12v-.3zm-7.06.7l-2.67 2.67v.48l2.67-2.66v-.48zm-2.67 4.43l2.67-2.68v-.48L157.8 36v.5zm2.67-5.1l-2.67 2.7v.46l2.67-2.67v-.5zm0 1.3l-2.67 2.66v.48l2.67-2.67v-.48zm-2.67-2.66l.02-.02h.18l-.2.2v.46l.67-.67h.17l-.84.85v.47l1.32-1.3h.15l-1.47 1.46v.47l1.95-1.94h.17l-2.12 2.13v.47l2.6-2.6h1.4v-2.67h-5.33V30h1.33v.02zm9.68 7.86a1.76 1.76 0 0 0 .1-.3l.05-.3-3.37 3.37c.1-.03.2-.05.3-.07a1.78 1.78 0 0 0 .3-.08zm-7-7.13l-2.68 2.67v.47l2.67-2.66v-.47zm4.66 9.65a3.95 3.95 0 0 0 1.36-.9 4 4 0 0 0 .9-1.35zm-4.67-10.3l-2.67 2.67v.47l2.67-2.67v-.48zm13.74 4.1l2.67 2.67v-.35l-2.66-2.67v.34zm0-.63l2.67 2.66v-.34l-2.66-2.67v.34zm0 1.27l2.67 2.67v-.34l-2.66-2.67v.34zm0-2.58l2.67 2.66v-.34l-2.66-2.67v.34zm0 .64l2.67 2.67v-.33l-2.66-2.67v.34zm0-1.3l2.67 2.67v-.33l-2.66-2.67v.34zm2.67 1.68l-2.66-2.67V31l2.67 2.66v-.34zm1.34 7.38v-.4l-.4.4h.4zm-.56 0l.57-.57v-.48l-1.04 1.05h.48zm-4.77-2.32l.35-.35h-.35v.35zm3.97.72l-.1-.1.97-.97h-.46l-.4.42-.1-.1.34-.33h-.2v-.18l-2.67-2.68v.35l2.52 2.53h-.1l-.1.1-.1-.1-2.2-2.22v.36l1.85 1.87h-.1l-.1.1-.08-.1h-.03l-1.56-1.57v.34l1.23 1.23h-.12l-.08.1-.08-.1h-.02l-.9-.92v.35l.56.58h-.12l-.1.1-.07-.1-.3-.3v.3h-.18l-1.15 1.14v.48l1.45-1.45.08.1-.16.15-.03-.06v.1l-1.33 1.32v.48l1.45-1.45.08.1-.16.15-.03-.05v.1l-1.33 1.33v.23h.25l1.2-1.2.08.08-.16.16-.03-.04v.1l-.9.9h.47l.55-.55.08.08-.16.15-.03-.03v.1l-.26.26h.63l-.08-.06.14-.16.08.08-.15.15h.65l-.08-.06.15-.16.07.08-.15.15h.64l-.07-.06.12-.16.1.08-.16.15h.65l-.08-.06.15-.16.1.08-.16.15h.5l1.2-1.2V39l-1.36 1.4-.1-.1 1.47-1.46v-.47l-1.36 1.37-.1-.08 1.47-1.47v-.16h-.32zm-2.27.96l-.08-.08.14-.15.08.07zm0-.65l-.08-.07.14-.15.08.1zm0-.62l-.08-.1.14-.15.08.1zm.32 1.6l-.08-.08.15-.15.08.08zm0-.65l-.08-.08.15-.15.08.08zm0-.63l-.08-.1.15-.15.08.1zm0-.65l-.08-.1.15-.15.08.1zm.32 1.6l-.08-.08.15-.15.07.08zm0-.65l-.08-.07.15-.16.07.1zm0-.63l-.08-.1.15-.15.07.1zm.32 1.6l-.08-.07.16-.16.07.08zm0-.65l-.08-.07.16-.15.07.07zm0-.63l-.08-.1.16-.16.07.1zm0-.65l-.08-.1.16-.16.07.1zm.32 1.6l-.07-.08.12-.15.1.07zm0-.65l-.07-.08.12-.15.1.1zm0-.63l-.07-.1.12-.15.1.1zm.33 1.6l-.1-.08.15-.16.1.08zm0-.65l-.1-.08.15-.15.1.07zm0-.63l-.1-.1.15-.16.1.1zm0-.66l-.1-.1.15-.15.1.1zm.3 1.6l-.08-.08.15-.15.1.1zm0-.65l-.08-.08.15-.16.1.1zm0-.64l-.08-.1.15-.15.1.1zm-3.63.23l.97-.98h-.47l-.5.5V39zm5.17-11.67l-1.32 1.32-.07-.1.15-.15.07.1v-.18l1-1h-.48l-.68.68-.07-.08.15-.15.07.08v-.16l.37-.37h-.48l-.04.02-.02-.02h-.6v.02l-.05-.02h-.6v.02l-.02-.02h-.6l-.03.02-.02-.02h-4.57v4h2.67V30h1.34v.33l2.67 2.67v-.34L174.23 30h.28l2.37 2.37v-.33L174.85 30h.3l1.72 1.73v-.34L175.5 30h.3l1.07 1.08v-.34l-.72-.73h.3l.42.43v-.34l-.07-.1h.34l1.07-1.06v.18l-.9.9h.5l.4-.42v.17l-.24.25h.25v1.33h2.67v-4h-2.83zm-3.83 2.56v-.18l.03-.02.07.1zm0-.66v-.16l.03-.02.07.1zm0-.65v-.18l.03-.02.07.1zm0-.66v-.17h.03l.07.08zm.27 1.68l-.07-.1.15-.15.08.1zm0-.65l-.07-.1.15-.15.08.1zm0-.64l-.07-.08.15-.15.08.07zm0-.65l-.07-.08.15-.15.08.07zm.33 2.27l-.08-.1.13-.15.1.1zm0-.65l-.08-.1.13-.15.1.1zm0-.65l-.08-.1.13-.15.1.1zm0-.65l-.08-.08.13-.15.1.08zm.32 1.62l-.1-.1.16-.15.1.1zm0-.65l-.1-.1.16-.15.1.1zm0-.64l-.1-.08.16-.15.1.07zm0-.65l-.1-.08.16-.15.1.07zm.33 2.27l-.1-.1.15-.15.1.1zm0-.65l-.1-.1.15-.15.1.1zm0-.65l-.1-.1.15-.15.1.1zm0-.65l-.1-.08.15-.15.1.08zm.32 1.62l-.1-.1.16-.15.1.1zm0-.65l-.1-.1.16-.15.1.1zm0-.64l-.1-.08.16-.15.1.07zm0-.65l-.1-.08.16-.15.1.07zm.32 2.27l-.1-.1.15-.15.1.1zm0-.65l-.1-.1.15-.15.1.1zm0-.65l-.1-.1.15-.15.1.1zm0-.65l-.1-.08.15-.15.1.08zm.32 1.62l-.1-.1.15-.15.08.1zm0-.65l-.1-.1.15-.15.08.1zm0-.64l-.1-.08.15-.15.08.07zm0-.65l-.1-.08.15-.15.08.07zm1.8.78l-1.5 1.5-.07-.1.15-.16.07.07v-.15l1.34-1.34v.18zm0-.65l-1.5 1.5-.07-.1.15-.15.07.07v-.15l1.34-1.34v.18z" class="cls-1"/></svg>