<svg xmlns="http://www.w3.org/2000/svg" width="311.09" height="55.469"><defs><style>.cls-1 { fill: #fff; fill-rule: evenodd; }</style></defs><path id="ELEGANT_-_MULTIPURPOSE-_THEME" d="M6.4 54.92l.92.23.3-.17-1.38-.36zm-.32-.56l1.8.47.3-.18-2.27-.6zm.66 1.12h.03l.3-.17-.5-.12zM5.9 52.9l3.64.95.3-.17-3.65-.95zm-.15.9l2.7.7.3-.17-3.17-.82zm-.35-.6l.04.06 3.54.92.3-.18-3.65-.94zM7.1 46l2.13.55-.17-.3-1.67-.44zm-.56.32l3.02.8-.17-.3-2.57-.68zm1.9-1.12l-.23.14.38.1zm-.8.46L8.9 46l-.17-.3-.78-.2zM0 43.98l.18.33.14-.5zm.45-.27l-.18.76.24.4.36-1.4zm1.7 2.1l.94-3.65-.42.24-.94 3.65zM1 43.4L.6 45l.23.4.6-2.26zm.57-.33l-.65 2.5.24.42.82-3.16zm9.47 6.57l.4-1.54-.4.25-.24.88zm-.32-.54l.18-.68-.42.24v.03zm-8.2-6.6l-.4.24-.88 3.4.1.17.25-.16zm5.52-3.24l-2.58 1.52-.95 3.66-.14.08.95-3.65-.4.24-.95 3.65-.15.08.95-3.65-.4.24-.96 3.66-.15.08.94-3.65-.42.25-.94 3.65-.14.08.95-3.65-.4.24-.96 3.65.2-.1 1.4 2.37 3.5.9-.25.16-3.1-.8.17.3 2.63.68-.26.15-2.23-.58.18.3 1.74.45-.25.15-1.36-.35.17.3.88.23-.26.15-.48-.12 1.53 2.6-.1.06 3.65.94.3-.18-3.66-.95.27-.14 3.66.95.3-.17-3.66-.95.26-.15 3.66.95.3-.18-3.66-.94.26-.16 3.65.95.3-.18-3.65-.94.24-.15 3.66.95.5-.3v-.04h.05l.48-.28.03-.06h.05l.48-.27.04-.07H14l.47-.27v-.05h.08l.25-.13-.1-.2-.04.1h-.12l.06-.2v-.02l-.24-.43-.03.1-.12-.02.07-.2-.24-.44-.02.1-.12-.02.06-.2h.02l-.25-.42v.1l-.14-.04.05-.2h.04l-.25-.43-.06.16-.14.1.1-.4-.24-.4-.27 1.04-.16.08.33-1.28-.2-.34-.07.04-.47 1.83-.15.08.47-1.82-.4.24-.48 1.83-.15.08.48-1.83-.4.25-.47 1.77v.03l-.23.15.4.1.07.13.02-.1.1.04-.03.2-.83-.22-.3.18 1.28.33.07.14.02-.1.1.03-.03.2-1.72-.43-.3.17 2.17.57.07.14.03-.1.1.03-.03.2-2.6-.66-.3.17 3.05.8.08.12.03-.1.1.03-.03.2-3.5-.9-.1.07-1.36-2.3.2-.13-3.64-.95.26-.16 3.65.95.3-.2-3.66-.94.28-.15 3.65.96.3-.18-3.66-.94.27-.16 3.65.95.28-.17-3.65-.95.25-.14 3.65.95.16-.1-.08-.12-3.45-.9-.13.08-1.35-2.3.12-.08.9-3.44.08.14-.83 3.22.4-.25.67-2.56.1.14-.6 2.33.4-.24.43-1.68.1.15-.4 1.45.4-.24.23-.8.08.14-.15.58.36-.2.66 1.14 2.3-1.36zm5.13 9.42l.13.03-.06.2-.1-.04zm.33.56l.13.03-.06.2-.1-.03zm.32.56l.12.02-.05.2-.1-.02zm.33.56h.12l-.05.22-.1-.02zm-1.08-1.25l.1.04-.04.2-.12-.04zm.33.55l.1.03-.05.2-.1-.02zm.33.56l.1.04-.05.2-.1-.02zm.32.57l.1.03-.05.2L14 51zm-1.42-1.8l.1.05-.04.2-.13-.03zm.32.57l.12.04-.06.2-.1-.03zm.33.56l.1.02-.05.2h-.1zm.33.56l.1.02-.04.2h-.1zm-1.1-1.24l.12.05-.05.2-.1-.04zm.34.56l.1.03-.05.22-.12-.03zm.33.56l.1.03-.05.2-.1-.02zm.33.56l.1.03-.05.2-.1-.02zm-1.43-1.8l.1.05-.04.2-.12-.03zm.33.57l.1.04-.04.22-.12-.04zm.32.56l.1.02-.05.2-.1-.02zm.33.56h.1l-.05.22-.1-.03zm-1.1-1.25l.12.05-.06.2-.1-.04zm.33.56l.1.04-.05.2-.1-.02zm.33.57l.1.03-.04.2-.1-.02zm.34.56l.1.03-.05.2-.12-.02zm-1.43-1.8l.12.05-.05.2-.12-.03zm.34.57l.1.04-.04.2-.12-.04zm.33.55l.1.03-.05.2-.1-.02zm.32.56l.1.04-.06.2-.1-.02zm.6-8.5l.23.42 1.08-3.62-.22-.42zm1.84 3.4l.23.43L16.25 43l-.23-.4zm-1.53-2.83l.24.42 1.08-3.63-.23-.42zm.62 1.12l.23.4 1.08-3.6-.23-.43zm.62 1.14l.22.4 1.08-3.6-.23-.42zm1.92-2.06l-.23-.42-1.08 3.62.23.42zm-2.23 1.48l.22.42 1.08-3.62-.22-.42zm-.6-1.12l.22.42 1.08-3.62-.23-.42zm8.32-1.43l-.12-.2-.22.1zm.3.58l-.16-.3-.76-.22-.3.16zm-8.9-6.82l-.3.16 1.27.38-.17-.3zm.25-.14l.42.12-.15-.26zm-3.6 3.9l.16.3.82.25.3-.17zm.45.84l.27-.15-.42-.1zm1.25-.48l.07-.24.08-.04-.07-.03.06-.2.13.04-.2.63.24.42.34-1.1.08-.06-.07-.03.06-.2.14.03-.46 1.48.23.42.6-1.96.1-.06-.08-.02.06-.2.1.04-.7 2.35.24.42.84-2.84.1-.06-.07-.02.05-.2.1.04-.95 3.22.22.42 1.08-3.62-.03-.07.15-.08-.23-.07-.12-.2-.05.16-.1-.05.05-.2.7.23.3-.16-1.1-.34-.1-.2-.06.16-.1-.04.06-.2 1.58.46.18-.1-.06-.12-1.8-.54-.12-.2-.05.16-.1-.03.07-.22 1.86.56-.16-.3-1.8-.54-.1-.2-.06.15-.1-.03.06-.2 1.86.55-.16-.3-1.68-.5-.35.2-.06.15-.1-.03v-.06l-.4.23-.06.15-.1-.02v-.05l-.4.23-.06.15-.12-.02.02-.04-.42.22-.05.16-.12-.02.02-.05-.37.2.23.07.04.06.02-.05.1.02-.05.18.02.04-.62-.2-.3.17 1.08.32.05.07v-.05l.13.02-.04.2.02.02-1.5-.45-.2.12.05.1 1.8.54.06.08v-.05h.12l-.05.2.02.03-1.82-.54.16.3 1.8.53.05.08v-.06l.13.04-.05.18V40l-1.8-.54.17.3 1.7.5.07-.03zm1.04-3.1l-.06.2-.1-.03.05-.2zm.3.57l-.06.2-.1-.03.06-.2zm.3.57l-.05.2-.12-.04.07-.2zm-1.04-1.27l-.06.2-.1-.03.06-.2zm.3.57l-.06.2-.1-.03.06-.2zm.3.57l-.05.2-.1-.04.06-.2zm.32.56l-.06.2-.1-.04.05-.2zm-1.05-1.28l-.05.2-.12-.02.06-.2zm.3.58l-.04.2-.12-.03.07-.2zm.3.57l-.03.2-.13-.04.08-.2zm-1.02-1.3l-.07.22-.12-.02.07-.2zm.3.6l-.06.2-.13-.03.06-.2zm.3.56l-.05.2-.12-.03.06-.2zm.32.56l-.06.2-.12-.03.06-.2zm-1.06-1.28l-.05.2h-.12l.06-.22zm.32.57l-.06.2h-.12l.06-.22zm.3.57l-.05.2-.13-.03.07-.2zm-1.04-1.27l-.07.2h-.1l.06-.22zm.3.57l-.06.2h-.12l.06-.22zm.3.57l-.05.2-.12-.02.07-.2zm.32.56l-.06.2-.13-.03.07-.2zm-1.06-1.27l-.06.2-.12-.02.06-.2zm.3.56l-.05.2h-.13l.06-.22zm.32.57l-.06.2-.13-.03.07-.2zm10.62 4.23l-.06.2-.1-.02.02-.1-.13.07-1.8-.53-.3.16 1.83.54-.07.2-.12-.02.03-.1-.13.07-1.8-.54-.16.08.08.16 1.6.46-.07.2-.13-.02.03-.1-.1.07-1.2-.36.16.3.73.22-.08.2-.1-.04v-.1l-.1.07-.3-.1.1.2-2.35 1.28-.02.02-.15.08.08-.26-.23-.42-.27.9-.15.1.34-1.15-.22-.42-.54 1.78-.14.08.6-2-.22-.42-.8 2.66L16 47l.86-2.86-.22-.42-1.05 3.52-1.25.67 1.27 2.36 6.13-3.32v-.02l.04-.2.12.04-.03.1.42-.23h-.02l.06-.22.13.05-.06.1.45-.23h-.03l.06-.22.13.04-.05.1.46-.23h-.02l.06-.2.1.04-.02.1.25-.13-.14-.25-.02.06-.1-.04.03-.16-.2-.42-.03.06-.1-.05.04-.17-.22-.42-.02.06-.1-.03.05-.15-.22-.42-.02.03-.1-.04.04-.15-.2-.36-1.63-.5-.3.18zm-1.04 3.25l-.03-.04.07-.18.1.05-.05.2zm-.3-.56L21 46.2l.06-.2.1.06-.05.2zm-.32-.57l-.02-.05.06-.16.1.03-.06.2zm-.3-.57l-.03-.05.05-.16.1.02-.06.2zm1.02 1.25l.04-.2.13.04-.05.2zm-.3-.57l.04-.18.12.02-.06.2zm-.3-.55l.03-.2.12.02-.07.2zm1.02 1.26l.06-.22.13.04-.06.2zm-.3-.58l.05-.2.14.03-.06.2zm-.3-.55l.05-.2h.13l-.06.22zm-.32-.58l.06-.2h.12l-.06.22zM22 46.04l.05-.2.13.03-.06.2zm-.32-.57l.07-.2.12.03-.06.22zm-.3-.55l.06-.2h.12l-.06.22zm1.05 1.25l.06-.2.12.03-.06.22zm-.3-.57l.05-.2.13.04-.05.2zm-.3-.54l.05-.2H22l-.06.22zm-.32-.57l.07-.22.12.02-.07.2zm1.06 1.24l.06-.2.13.03-.06.2zm-.3-.57l.06-.2.12.03-.06.2zm-.3-.55l.05-.2h.13l-.06.22zM23 45.87l.06-.2.1.04-.03.2zm-.3-.57l.05-.2.1.04-.03.2zm-.3-.55l.05-.2.1.02-.04.2zm-.32-.57l.06-.2.1.02-.04.2zm1.05 1.25l.06-.2.1.04-.06.2zm-.3-.57l.06-.2.1.05-.07.2zm-.3-.55l.05-.2.1.03-.06.2zm1.86.45l.88.3.3-.15-1.35-.46zm-.3-.58l1.76.6.3-.15-2.2-.76zm.57 1.16h.03l.3-.14-.48-.18zM24 42.7l3.58 1.2.3-.14-3.56-1.2zm-.2.9l2.64.88.3-.15-3.08-1.05zm-.3-.65l.03.07L27 44.2l.3-.15-3.56-1.2zm2.2-7.05l2.1.7-.15-.3-1.63-.55zm-.57.3l2.96 1-.16-.32-2.5-.85zm1.98-1l-.23.12.36.12zm-.8.4l1.22.43-.15-.3-.77-.27zm-7.53-2.22l.17.34.17-.5zm.48-.24l-.23.73.2.43.46-1.37zm1.54 2.22l1.2-3.58-.43.2-1.2 3.6zm-.97-2.5l-.54 1.58.2.43.76-2.23zm.58-.3l-.82 2.46.2.43 1.06-3.1zm8.98 7.25l.5-1.5-.4.2-.3.88zm-.28-.55l.23-.67-.43.2v.04zm-7.68-7.18l-.43.2-1.13 3.33.08.17.26-.12zm5.72-2.83l-2.68 1.32-1.2 3.58-.16.08 1.2-3.58-.42.2-1.2 3.6-.17.07 1.22-3.57-.42.2-1.2 3.6-.17.06 1.2-3.6-.4.23L21.5 35l-.13.07 1.2-3.58-.42.2-1.2 3.58.2-.1 1.22 2.48 3.45 1.17-.28.14-3.03-1.03.16.3 2.58.88-.28.13-2.17-.73.15.3 1.7.6-.25.1-1.33-.44.16.3.86.3-.28.14-.46-.16 1.33 2.7-.1.06 3.56 1.2.3-.15-3.56-1.2.27-.14 3.58 1.2.3-.14-3.57-1.22.27-.14 3.58 1.2.3-.14-3.57-1.2.27-.15 3.58 1.2.3-.14-3.56-1.2.26-.13 3.57 1.22.5-.27.03-.05.05.02.5-.25.03-.06h.05l.5-.24.03-.05.05.02.5-.24.02-.05h.07l.25-.12-.1-.18-.03.1-.12-.03.07-.2.02-.02-.23-.44-.04.1-.1-.03.05-.2h.02l-.22-.44-.03.1-.12-.03.07-.2h.02l-.22-.43-.03.1-.13-.05.07-.2h.04l-.22-.43-.06.15-.15.08.14-.4-.2-.42-.36 1.03-.15.07.42-1.25-.17-.36-.07.04-.6 1.78-.15.08.6-1.8-.42.22-.6 1.8-.16.07.6-1.78-.42.2-.6 1.75.03.03-.26.13.38.13.07.14.03-.1.12.05-.06.2-.8-.28-.32.15 1.25.43.06.13.03-.1.1.04-.06.2-1.67-.56-.3.16 2.1.7.07.15.04-.1.1.04-.05.2-2.54-.84-.32.15 2.98 1.02.07.14.04-.1.1.03-.05.2-3.42-1.15-.1.06-1.2-2.38.23-.1-3.58-1.23.28-.14 3.57 1.2.3-.14-3.57-1.2.28-.15 3.58 1.2.3-.14-3.57-1.2.3-.15L27.55 38l.3-.16-3.57-1.2.25-.13 3.57 1.22.17-.1-.07-.12-3.37-1.15-.14.07-1.18-2.4.14-.06 1.14-3.38.07.16-1.07 3.14.43-.2.84-2.5.08.15-.77 2.27.44-.2.55-1.65.07.16-.5 1.42.43-.2.28-.8.06.15-.2.56.4-.18.58 1.2 2.4-1.2zM31.58 39l.12.04-.07.2-.1-.05zm.28.58l.13.05-.08.2-.1-.05zm.3.58l.1.03-.06.2-.1-.04zm.28.6h.12l-.07.2-.1-.02zm-1-1.33l.12.05-.07.2-.12-.05zm.3.58l.1.04-.07.2-.1-.03zm.28.6l.1.02-.07.2-.1-.03zm.3.57l.1.04-.08.2-.1-.03zm-1.3-1.9l.1.06-.07.2-.1-.05zm.28.6l.1.04-.06.2-.1-.04zm.3.57l.1.04-.08.2-.1-.04zm.27.6l.1.02-.06.2-.1-.03zm-1-1.32l.1.05-.06.2-.1-.05zm.28.58l.1.03-.06.2-.12-.03zm.3.58l.1.03-.08.2-.1-.02zm.28.58l.1.03-.07.2-.1-.04zm-1.3-1.9l.1.06-.06.2-.1-.05zm.3.6l.1.04-.07.2-.1-.05zm.28.57l.1.04-.06.2-.1-.04zm.3.58l.1.05-.07.2-.1-.03zm-1-1.3l.1.05-.07.2-.1-.04zm.27.58l.1.04-.06.2-.1-.03zm.3.6l.1.02-.08.2-.1-.03zm.28.57l.1.03-.07.2-.1-.03zm-1.3-1.9l.1.06-.06.2-.12-.04zm.3.6l.1.04-.07.2-.1-.06zm.28.57l.1.03-.07.2-.1-.03zm.28.58l.1.04-.05.2-.1-.04zm7.04-15.78c-.05-.02-.1-.04-.16-.05s-.1-.04-.16-.06l-.95 2.5a1.58 1.58 0 0 0 .16.06.75.75 0 0 1 .14.07zM38.97 29l.6-1.6c-.04-.05-.07-.1-.1-.17a.58.58 0 0 0-.13-.16l-.8 2.1zm-.6.25l.88-2.3a1.84 1.84 0 0 1-.13-.13.76.76 0 0 0-.12-.14l-1.06 2.77zm-.7.32l.1-.05 1.15-2.93a1.15 1.15 0 0 0-.15-.13 1.2 1.2 0 0 1-.14-.1l-1.1 2.9zm-.22-.47l1.08-2.82-.27-.2-1.02 2.64q.1.16.15.24zm.7-3.07c-.06-.03-.1-.06-.16-.08a.7.7 0 0 0-.15-.08l-.97 2.5a1.23 1.23 0 0 1 .27.24zm-.85-.35c-.1-.03-.22-.06-.33-.08l-1 2.6c.08 0 .14 0 .2 0a1.42 1.42 0 0 1 .16 0zm-4.16 3.58l.05.12 2.43-1.1a.93.93 0 0 1 .2-.07l1.02-2.63-.17-.04a.97.97 0 0 0-.16-.02l-.98 2.58-.07-.16.92-2.42a1.3 1.3 0 0 1-.2 0 1.44 1.44 0 0 0-.17 0l-.76 2-.07-.16.7-1.82a1.2 1.2 0 0 0-.2.03 1.08 1.08 0 0 1-.18.02l-.5 1.33-.08-.14.44-1.17c-.07 0-.13.02-.2.03a1.25 1.25 0 0 0-.2.07l-.23.63-.07-.16.16-.43a.75.75 0 0 0-.15.05l-.16.06-.12.05-.04.07-.05-.02-.5.23-.04.06-.06-.02-.5.22-.02.05-.07-.02-.5.23-.03.06h-.06l-.46.2.07.13-.2-.1a1.02 1.02 0 0 0-.14.08 1.2 1.2 0 0 1-.13.07l.67.26-.02.1.07.16-.94-.35a.6.6 0 0 0-.24.18l1.4.52-.03.08.1.17-1.65-.62a.23.23 0 0 1-.1.1.23.23 0 0 0-.08.1l2.03.77-.02.07.07.18L30.7 28l-.15.2 2.62 1zm1.48-2.94l.1.04-.07.2-.1-.04zm.27.6l.1.03-.1.2-.1-.04zm.25.58l.1.04-.08.2-.1-.04zm.26.58l.12.05-.08.2-.1-.05zm-1.2-1.93l.1.04-.08.2-.1-.05zm.26.6l.1.03-.08.2-.1-.03zm.26.6l.1.03-.07.2-.1-.04zm.27.58l.1.04-.1.2-.1-.06zm-.97-1.35l.1.04-.08.2-.1-.04zm.26.6l.1.03-.08.2-.1-.03zm.26.6l.1.02-.08.2-.1-.03zm.26.56l.1.06-.07.2-.1-.06zm-1.22-1.92l.1.04-.07.2-.1-.04zm.27.6l.1.03-.08.2-.1-.04zm.26.58l.1.04-.07.2-.1-.04zm.27.6l.1.03-.08.2-.1-.05zm-.96-1.35l.1.04-.06.18-.12-.03zm.26.6l.1.03-.06.2-.1-.04zm.27.58l.1.04-.06.2-.1-.04zm.26.58l.1.06-.06.2-.12-.05zM33 26.7l.13.03-.08.2-.12-.02zm.28.6l.1.03-.06.2-.12-.02zm.26.6l.12.02-.08.2-.12-.03zm.26.58l.12.03-.07.2-.13-.06zm-.95-1.35l.12.04-.08.2-.13-.03zm.26.6l.13.03-.08.2-.1-.03zm.28.6l.12.03-.08.2-.12-.03zm.25.57l.13.05-.08.2-.12-.05zm-1.2-1.92l.1.03-.07.2-.12-.03zm.25.6l.12.02-.07.2-.12-.03zm.27.58l.12.03-.08.2-.13-.03zm.26.6l.13.03-.08.2-.12-.05zm6.9-.25l-.17-.38-.22.55zm-.98.44l.44-.2.3-.78-.04-.07c-.02-.05-.05-.1-.07-.17a1.13 1.13 0 0 0-.1-.17zm.45 4.92c.02.06.05.15.08.28l2.64 1a.4.4 0 0 0 0-.12.6.6 0 0 1 .02-.14l-2.77-1.05zm-.67 1.77l-.2.1 2.86 1.1c.05-.08.1-.15.13-.2L39 35.55zm-1.38.62l3.35 1.28c.03-.03.06-.05.1-.08s.07-.07.1-.1l-3.23-1.24zm.6-.26l3.12 1.2a2.48 2.48 0 0 1 .18-.2l-3-1.14zm4.05-.4a.7.7 0 0 0 .06-.24l-2.54-.97a.72.72 0 0 1-.04.24zm-.16.42l.1-.22-2.5-.96a.7.7 0 0 1-.04.12.71.71 0 0 0-.04.1zm-.2.4c.03-.03.04-.06.06-.1a.4.4 0 0 0 .07-.1l-2.54-.97a.8.8 0 0 1-.2.2zm-5.34.3a1.33 1.33 0 0 1-1.76-.66l-1.14-2.55-3.52-1.34.05.1.08.2 3.22 1.24-.26.12-2.84-1.1.14.32 2.4.9-.3.13-1.98-.76.14.3 1.54.6-.28.12-1.13-.43.14.3.68.26-.28.12-.28-.1 1.17 2.63a3.75 3.75 0 0 0 .92 1.3A4.04 4.04 0 0 0 36 39.5a3.87 3.87 0 0 0 1.55-.35l.28-.13-.4-.15-.13-.28.8.3.32-.13-1.26-.48-.1-.26 1.62.62.3-.14-2.07-.8-.12-.28 2.5.96.3-.14-2.94-1.13-.12-.3 3.34 1.3.13-.06.18-.1-3.53-1.34zM30 29.2a.8.8 0 0 0-.07.22l2.5.97a.52.52 0 0 1 .02-.13c0-.04.03-.07.04-.1zm.18-.42a.5.5 0 0 1-.04.1.84.84 0 0 1-.07.12l2.52.96a.7.7 0 0 1 .13-.2zm.24-.4a1.07 1.07 0 0 1-.06.1.4.4 0 0 0-.07.1l2.6 1a.8.8 0 0 1 .24-.17zm-.56 1.26a.4.4 0 0 0-.02.1.4.4 0 0 1-.03.13l2.63 1a.56.56 0 0 0-.02-.13.2.2 0 0 1 0-.13zm2.9 2.08l-3-1.16-.02.26L32.9 32zm.28.6l-3.28-1.26a.8.8 0 0 1 .02.14c0 .04 0 .08.02.13l3.38 1.3zm-.52-1.16v-.03l-2.75-1.03c0 .05 0 .13-.02.24l2.9 1.12zm.78 1.74l-3.45-1.32a.53.53 0 0 0 .04.14.55.55 0 0 1 .04.16l3.5 1.34zm3.63 3.6l3.47 1.33a1.3 1.3 0 0 0 .15-.06 1.1 1.1 0 0 0 .12-.1l-3.43-1.3zm0-2.04l2.42-1.1.08.18 2.92 1.12v-.26l-2.86-1.1.25-.1 2.6.98a.3.3 0 0 0-.02-.14.6.6 0 0 1 0-.14l-2.27-.85.28-.13 1.94.74-.06-.28-1.56-.6.27-.13 1.2.47a.55.55 0 0 0-.04-.16 1.25 1.25 0 0 1-.07-.15l-.78-.3.27-.13.38.14-1.2-2.7-4.87 2.2zm19.1-4.25l-.16-.45-.9 2.1.43-.18zm.25.6l-.17-.45-.54 1.26.44-.16zm-.47-1.22l-.17-.44-1.27 2.95.44-.2zm-2.05 2.75l.45-.18 1.37-3.17-.1-.2-.22.08zm2.6-1.38l-.2.42.3-.12zm-4.85-.6l-.44.17-.32.76.18.44zm-4.12-9.87l-3.8 1.5.95 11.12-.15.06.07.04-.1.2-.1-.06.05-.15-.53.2.08.04-.1.2-.1-.06.07-.15-.4.15.16.4.06-.18.12.06-.08.2-.08-.05.22.58.06-.17.12.05-.1.2-.06-.04.2.56.08-.14.1.03-.07.2-.08-.03.22.55.06-.15.1.04-.07.2-.1-.04.1.25.3-.12.08-.14.1.04v.05l.43-.18.08-.15.1.03v.05l.44-.17.06-.15.1.04-.02.05.44-.17.08-.16.1.03-.02.05L47 35l.08-.15.1.05-.02.04.45-.17.1-.16.1.06-.04.05.45-.17.07-.15.12.04-.03.05.44-.18.07-.16.12.04-.03.05.3-.12-.12-.3-.06.16-.13-.04.1-.2.05.02-.2-.53-.07.15-.12-.03.1-.2.06.03-.22-.55-.07.15-.1-.04.08-.2.07.04-.2-.55-.07.16-.12-.05.08-.2.08.04-.13-.32-.33.13.08.03-.1.2-.1-.06.05-.14-.53.2.07.04-.08.2-.13-.05.1-.16-.2.1-.13-1.4.06-.02 1.5-3.47-.45.2-1.15 2.7-.02-.27 1.03-2.38-.45.18-.62 1.5-.04-.26.5-1.18-.43.16-.12.3-.37-4.4.12-.05 2.6 3.3-.4.15-1.5 3.46.44-.16 1.48-3.42.08.1-1.4 3.26.44-.18 1.2-2.77.1.1-1.16 2.6.45-.16.92-2.13.08.1-.84 1.97.45-.17.64-1.48.08.1-.57 1.32.45-.18.37-.85.08.1-.3.68.45-.18.1-.2.94 1.23h-.04l-.7 1.6.2.44.94-2.2.16-.06-1.05 2.42.18.45 1.32-3.05.16-.06-1.4 3.27.04.13.3-.12 1.5-3.46.16-.06-1.5 3.47.45-.18 1.5-3.47.17-.06-1.5 3.47.44-.17 1.5-3.46-.22.1zm-3.03 14.9l.1-.2.1.04-.08.2zm-.24-.6l.1-.2.12.04-.1.2zm-.22-.6l.08-.2.13.06-.1.18zm.9 1.4l.08-.2.1.03-.07.2zm-.25-.6l.1-.2.1.03-.08.2zm-.23-.6l.08-.2.12.03-.1.2zm-.24-.6l.08-.2.13.05-.1.2zm.9 1.38l.08-.2.12.04-.1.2zm-.24-.6l.08-.2.12.04-.1.2zm-.24-.6l.08-.2.13.06-.1.18zm.9 1.4l.08-.2.12.03-.1.2zm-.24-.6l.08-.2.12.03-.1.2zm-.24-.6l.08-.2.12.03-.1.2zm-.24-.6l.1-.2.1.04-.08.2zm.9 1.38l.08-.2.1.04-.07.2zm-.24-.6l.08-.2.1.04-.06.2zm-.24-.6l.1-.2.1.06-.08.17zm-.24-.6l.07-.15.08-.04.05.04-.06.2zm1.14 2l.08-.2.1.04-.08.2zm-.24-.6l.08-.2.1.03-.08.2zm-.24-.6l.1-.2.1.03-.1.2zm-.24-.6l.1-.2.1.05-.1.2zm.9 1.38l.08-.2.1.04-.08.2zm-.24-.6l.1-.2.1.04-.1.2zm-.24-.6l.1-.2.1.06-.1.18zm-.23-.6l.06-.15.08-.03.06.04-.1.2zm2.83-.5l-.1.2-.1-.04.08-.2zm.24.6l-.1.2-.1-.04.08-.2zm.23.6l-.08.2-.12-.04.1-.2zm-.9-1.37l-.07.2-.13-.06.1-.2zm.24.58l-.1.2-.1-.03.08-.2zm.23.6l-.08.2-.12-.03.1-.2zm.24.6l-.08.2-.13-.03.08-.2zm-2 .87l.1-.2.1.05-.1.2zm-.23-.6l.1-.2.1.05-.1.2zm-.24-.6l.1-.2.1.05-.1.2zm-.23-.6l.08-.2.1.06-.08.2zm.9 1.4l.08-.2.1.04-.1.2zm-.25-.6l.1-.2.1.04-.1.2zm-.23-.6l.07-.2.1.05-.1.18zm-.25-.6l.06-.16.08-.02.06.04-.1.2zm1.13 2l.1-.2.1.03-.1.2zm-.24-.6l.1-.2.1.03-.1.2zm-.23-.6l.1-.2.1.03-.1.2zm-.23-.6l.08-.2.1.05-.08.2zm.9 1.37l.08-.2.1.05-.1.2zm-.24-.6l.08-.2.1.05-.08.2zm-.24-.6l.07-.2.1.07-.08.18zm-.25-.6l.06-.14.07-.03.07.04-.08.2zm1.13 2l.07-.2.12.04-.1.2zm-.23-.6l.06-.2.13.04-.1.2zm-.24-.6l.08-.2.1.04-.07.2zm.38-.56l-.1.2-.1-.05.08-.2zm.23.6l-.07.2-.12-.04.1-.2zm.25.6l-.1.2-.1-.04.08-.2zm-.97-1.18l-.1-.06.06-.2.12.06zm3.73-2.05l-.38.15.16.4zm2.27 1.98l.42-.17L55.1 29l-.43.18zm3.58-15.56l-3.8 1.28.87 2.53 1.26-.42.13.38.26-.5.16-.07-.36.72.16.45.65-1.33.13-.04.14.1-.12-.1-.75 1.54.16.45.85-1.77 1.2.96-1.38 2.77.15.46 1.48-3-.18-.17.28.23-1.52 3.1.16.45 1.64-3.34-.15-.1 7.8 6.37 2.53-.86-.24-.7-.1-.08.07.04.02-.02-.15-.46-.13.27-.35-.3.25.2.16-.33-.14-.45-.3.58-.8-.67.63-1.28-.16-.46-.76 1.5.17.14-.25-.2.8-1.6-.17-.45-.9 1.83-.1-.1.95-1.9-.15-.45-1.07 2.16-.1-.1 1.1-2.2-.14-.46-1.22 2.46-.36-.3.28.23 1.24-2.57-.15-.45-1.36 2.78zm2.4 7.1l-.15-.46-1.67 3.4.16.44zm8.65 1l-.15-.45-.44.9.28.2zm-.2-.62l-.16-.45-.6 1.2.3.24zm-8.86-1.6l-.15-.45-1.68 3.38.16.47zM56.7 25.3l.17.45 1.67-3.4-.16-.44zm3.06 2.05l-.14.05.37-.75-.17-.46-.66 1.35-.17.05.78-1.57-.15-.45-1.08 2.18-.16.05 1.17-2.4-.15-.44-1.48 3-.16.06 1.58-3.22-.15-.45-1.66 3.4.1.3-1.25.44.84 2.52 5.06-1.72-.86-2.53-1.26.43-.14-.4zm-.8-3.78l-.17-.45-1.68 3.4.16.44zm-1.4-2.35l-.25-.23-1.2 2.46.14.45zm8.8-.3l-.16-.45-1.52 3.1.27.22zm-1.77 2.57l1.55-3.18-.15-.45-1.67 3.4v.02zm-8.77-.8l1-2.08-.24-.2-.92 1.83zm1.37-1.78l-.25-.2-1.07 2.12.16.45zm3.77-3.43l.1.3.76.38.32-.1zm4.6-3.07l-.1-.3-.3.1zm-4.3 3.94l.27-.1-.36-.17zm4.5-3.32l-.1-.33-.8-.4-.33.12zm-1.8-.38l-.1.2-.1-.07.07-.12-.5.17.04.02-.1.2-.1-.06.05-.1-.5.16.04.02-.1.2-.12-.06.08-.13-.52.17.06.02-.1.2-.12-.07.08-.13-.53.18.24.12.05.16.03-.12.12.06-.1.2-.64-.33-.32.1 1.06.54.06.17.04-.1.12.05-.1.17-1.45-.72-.2.06.05.13 1.7.84.05.17.05-.1.1.04-.08.2-1.72-.84.1.32 1.7.84.06.16.06-.1.1.04-.08.2-1.72-.85.1.32 1.58.77.1-.03.08.25.04-.1.12.03-.1.2-.02-.02.16.5.05-.1.12.05-.1.2-.03-.02.16.5.04-.13.13.06-.1.2-.02-.02.16.5.04-.12.12.06-.1.17h-.02l.16.48.1-.22.17-.05-.1-.04.1-.18.1.04-.3.63.15.44.5-1.04.16-.05-.1-.05.1-.2.12.05-.7 1.45.14.46.92-1.87.14-.06-.1-.04.1-.2.1.05-1.1 2.27.15.45 1.32-2.68.13-.06-.1-.05.1-.2.1.04-1.5 3.1.15.45 1.66-3.4-.15-.45-.06.08-.1-.05.1-.2-.16-.45-.04.1-.1-.06.1-.2-.17-.45-.04.1-.1-.07.1-.2v.03l-.16-.47-.05.1-.1-.04.1-.2-.06-.17.14-.06-.2-.1-.04-.15-.05.1-.1-.05.1-.2.6.3.3-.12-1-.5-.04-.13-.06.08-.1-.05.1-.2 1.4.7.22-.07-.04-.1-1.7-.85-.03-.1-.06.07-.1-.05.1-.2 1.68.84-.1-.32-1.7-.84-.04-.13-.05.1-.1-.06.1-.2 1.68.85-.1-.33-1.6-.78-.33.1zm-.58 5.04l.1-.2.1.07-.1.2zm-.22-.6l.1-.2.12.06-.1.2zm-.2-.62l.1-.2.1.07-.1.2zm-.2-.6l.1-.2.1.05-.1.2zm-.22-.6l.1-.2.1.03-.08.2zm-.2-.63l.1-.2.1.05-.1.2zm-.2-.6l.08-.2.12.05-.1.2zm1.64 3.86l.1-.2.12.07-.1.18zm-.2-.6l.1-.2.1.06-.1.2zm-.22-.62l.1-.2.12.07-.1.2zm-.2-.6l.1-.2.1.05-.08.2zm-.2-.6l.1-.2.1.03-.1.2zm-.2-.63l.08-.2.12.05-.1.2zm-.22-.6l.1-.2.1.05-.1.18zm-.2-.63l.1-.2.1.07-.1.18zM64 19.5l.1-.2.12.06-.1.2zm-.2-.62l.1-.2.1.07-.08.2zm-.2-.62l.08-.2.12.07-.1.2zm-.2-.6l.08-.2.12.05-.1.2zm-.22-.6l.1-.2.1.04-.1.2zm-.2-.62l.08-.2.12.04-.1.2zm-.22-.62l.1-.2.12.07-.1.18zm1.65 3.87l.1-.2.13.06-.1.17zm-.2-.62l.1-.2.12.06-.1.2zm-.2-.62l.1-.2.1.07-.08.2zm-.2-.6l.1-.2.1.05-.1.2zm-.2-.6l.08-.2.12.04-.1.2zm-.22-.63l.1-.2.1.05-.1.2zm-.2-.6l.1-.2.1.06-.1.16zm-.22-.62l.1-.2.12.07-.1.2zm1.66 3.88l.1-.2.1.06-.08.2zm-.2-.62l.08-.2.12.07-.1.2zm-.22-.6l.1-.2.12.05-.1.2zm-.2-.6l.1-.2.1.04-.1.2zm-.2-.63l.1-.2.1.05-.1.2zm-.22-.6l.1-.2.1.04-.08.2zm-.2-.62l.1-.2.1.07-.1.2zm1.65 3.88l.1-.2.1.07-.1.17zm-.2-.62l.08-.2.12.07-.1.2zm-.22-.6l.1-.2.1.06-.1.2zm-.2-.6l.1-.2.1.04-.1.2zm-.2-.63l.1-.2.1.06-.1.18zm-.2-.6l.1-.2.08.04-.1.2zm-.22-.63l.1-.2.1.08-.1.17zm-.2-.6l.1-.2.1.06-.1.2zm1.65 3.86l.1-.2.1.07-.1.2zm-.2-.6l.1-.2.1.06-.1.2zm-.22-.63l.1-.2.1.07-.08.2zm-.2-.6l.1-.2.1.06-.1.18zm-.2-.6l.1-.2.1.04-.1.2zm-.2-.63l.1-.2.1.06-.1.2zm-.2-.6l.08-.2.1.06-.1.2zm11.96 5.55l-.1-.32-3.3-1.83.1.33zm-.18-.6l-.1-.33-3.3-1.82.1.33zm.36 1.23l-.1-.33-3.3-1.82.1.33zm-.72-2.47l-.1-.32-3.3-1.82.1.33zm.18.63l-.1-.33-3.3-1.82.1.33zm-.36-1.24l-.1-.34-3.3-1.83.1.33zm-3.58-2.8l.1.34 3.3 1.82-.1-.33zm6.53 8.17l-.3.5.4-.1zm-.06-.17l-.13-.46-.7 1.3.45-.13zm-5.38-.62l-.33.1.1.32zm3.66-.05l.66-1.2-.46.13-.27.5-.1-.05.22-.4-.2.06-.05-.18-3.3-1.83.1.33 3.1 1.72-.1.03-.07.12-.12-.06h.02-.02l-2.73-1.52.1.33 2.3 1.28-.1.03-.07.13-.1-.07h-.02L73.3 21.3l.1.32 1.5.84-.1.03-.07.1-.1-.06-1.14-.62.1.33.7.4-.1.02-.07.12-.1-.08-.37-.2.08.28-.17.05-.78 1.42.13.46 1-1.8.1.07-.1.2-.07-.06.04.1-.9 1.65.12.45 1-1.8.1.07-.1.18-.07-.04.02.1-.9 1.65.05.23.24-.07.83-1.5.1.06-.1.2-.06-.04.03.1-.62 1.13.45-.12.38-.7.1.06-.1.2-.05-.03.03.1-.18.33.6-.18-.1-.05.1-.2.1.06-.1.2.62-.2-.1-.04.1-.2.1.06-.1.2.63-.2-.1-.04.1-.18.1.04-.1.2.62-.2-.1-.03.1-.2.1.05-.1.2.46-.14.83-1.5-.14-.47-.93 1.7-.12-.04 1-1.82-.14-.46-.93 1.7-.1-.04 1-1.82-.05-.15-.3.1-.72 1.3zm-1.9 1.5l.1-.2.1.06-.1.18zm-.17-.62l.1-.18.1.07-.1.16zm-.18-.62l.1-.18.1.07-.1.18zm.76 1.47l.1-.2.1.06-.1.2zm-.18-.62l.1-.2.1.06-.1.18zm-.18-.62l.1-.18.1.07-.1.18zm-.18-.62l.1-.2.1.08-.1.2zm.75 1.47l.1-.2.1.06-.1.2zm-.18-.62l.1-.2.1.08-.1.18zm-.18-.63l.1-.2.1.1-.1.17zm.75 1.47l.1-.2.1.06-.1.2zm-.18-.62l.1-.2.1.06-.1.2zm-.18-.62l.1-.2.1.08-.1.2zm-.2-.63l.1-.2.1.08-.1.2zm.77 1.47l.1-.18.1.03-.1.2zm-.18-.62l.08-.2.12.08-.1.17zm-.2-.63l.1-.18.1.06-.1.2zm.75 1.48l.1-.2.12.05-.1.2zm-.18-.63l.1-.2.12.06-.1.2zm-.18-.62l.1-.2.12.08-.1.18zm-.2-.62l.12-.2.12.07-.1.2zM76.4 24l.1-.2.1.05-.1.2zm-.18-.63l.1-.2.12.08-.1.17zm-.2-.62l.12-.2.12.07-.1.2zm-2.64.1l-.45.12-.33.62.13.45zm1.06-11.44l-.9 1.64-.1-.07.1-.2.1.08-.04-.16.68-1.24-.46.13-.46.82-.1-.05.1-.2.1.06-.04-.15.25-.45-.46.14-.04.03-.02-.02-.57.17v.02h-.05l-.57.16v.02h-.04l-.57.16v.03h-.04l-4.4 1.26 1.1 3.84 2.58-.74-.38-1.28 1.28-.38.1.32 3.3 1.82-.1-.33-3.28-1.8.28-.1 2.92 1.62-.1-.33-2.5-1.38.3-.08 2.12 1.17-.1-.33-1.7-.94.3-.08 1.32.73-.1-.33-.9-.5.3-.1.52.3-.1-.33-.1-.05.34-.1.73-1.32.05.16-.6 1.1.44-.12.3-.52.04.17-.17.3.23-.08.37 1.3 2.56-.76-1.1-3.85zm-3 3.37v-.02l.1.07-.07.1zm-.2-.62l.02-.03.1.07-.07.1zm-.18-.63l.02-.02.1.07-.07.12zm-.18-.62h.02l.1.05-.07.12zm.68 1.63l.1-.2.1.08-.1.2zm-.18-.62l.1-.18.1.07-.1.18zm-.18-.6l.1-.18.1.05-.1.2zm-.18-.6l.1-.2.1.05-.1.2zm.94 2.06l.08-.2.12.08-.1.2zm-.18-.62l.08-.2.12.08-.1.2zm-.18-.63l.08-.17.12.06-.1.18zm-.18-.6l.1-.18.1.05-.1.2zm.74 1.46l.1-.2.12.08-.1.2zm-.18-.62l.1-.2.12.07-.1.2zm-.18-.6l.1-.2.12.05-.1.18zm-.18-.63l.1-.18.12.05-.1.2zm.94 2.08l.1-.2.12.08-.1.2zm-.18-.62l.1-.2.12.08-.1.18zm-.18-.62l.1-.2.12.07-.1.2zm-.18-.6l.1-.2.12.05-.1.18zm.76 1.45l.1-.2.12.06-.1.2zm-.18-.64l.1-.2.12.08-.1.2zm-.17-.6l.1-.2.12.06-.1.18zm-.17-.63l.1-.18.1.04-.1.18zm.93 2.08l.1-.18.12.06-.1.2zm-.18-.62l.1-.2.12.08-.1.2zm-.18-.62l.1-.2.12.08-.1.2zm-.17-.6l.1-.2.1.05-.1.2zm.75 1.44l.1-.18.1.07-.08.17zm-.18-.62l.1-.2.1.08-.08.2zm-.17-.6l.1-.2.1.06-.1.18zm-.18-.63l.1-.2.1.07-.1.18zm1.03 2.15l-.1-.07.1-.2.1.06-.04-.16.9-1.65.06.15zm-.18-.63l-.1-.07.1-.2.1.07-.04-.15.9-1.66.06.17zm20.78.5l-.08-.33-2.2-1.4-.35.08zm-5.9-.9l-1.85 2.94.05.2.26-.05 1.8-2.87.05.16-1.7 2.68.47-.1L89 14.1l.03.16-1.2 1.9.47-.1.84-1.34.03.17-.7 1.13.46-.1.35-.56.04.17-.22.34 3.12-.7-.3-.2-.06-.3.66.42.33-.07-1.07-.68-.07-.3 1.45.9.34-.07-1.86-1.17-.07-.3 2.2 1.4.35-.07-2.63-1.65-.07-.3 2.98 1.88.18-.04-.04-.17-2.98-1.88zm5.76.3l-.08-.35-1.46-.9-.33.06zm-.3-1.28l-.05-.27-.27.06zm.15.63l-.08-.34-.7-.44-.32.08zm-7.9 1.4l.1.47.77-1.2-.46.1zm-.03-.16l.27-.44-.35.08zm.32 1.4l.1.47 1.72-2.74-.47.1zm-.15-.6l.1.46 1.25-2-.46.12zm23.52-11.32l-1.92 4.55-3.27-3.7-3.35.54-.53.75.08.46.8-1.12.1.1-.88 1.18.08.48 1-1.4.1.08-1.07 1.5.08.46 1.22-1.7.1.1-1.3 1.77.02.08.4-.06 1.1-1.54.07.1-1 1.4.46-.07.77-1.06.07.08-.67.96.1-.02.07.36.74-1.03.07.08-.78 1.1.08.46.95-1.3.07.1-1 1.37.08.48 1.15-1.6.08.1-1.2 1.67.08.47 1.36-1.9.07.1-1.4 1.97.08.46 1.57-2.17.1.07-1.63 2.26.07.47 1.77-2.47.1.1-1.83 2.54.08.47 1.96-2.76.1.1-2.04 2.8.08.48 2.17-3.02 3.35 3.78 2.02-4.77 2.95 2.13-.05-.34-2.8-2.02.08-.2 2.67 1.92-.06-.34-2.5-1.82.07-.2 2.38 1.7-.04-.32-2.23-1.6.1-.2 2.08 1.5-.05-.34-1.94-1.4.1-.2 1.8 1.3-.05-.32-1.64-1.2.1-.2 1.5 1.1-.05-.34-1.3-.93.3-.05.95.68-.05-.34-.55-.4.3-.05.2.15-.03-.17 1.32-.22-.44-2.63zm-2.2 11.18l-.3.05.35.25zm-1.42-.42l-.08-.46-.93 1.3.23-.05 2.56 1.84-.05-.32-2.2-1.58h-.06zm1.57 1.37l-.05-.33-.7-.5-.34.05zm-1.47-.72l-.07-.47-.4.54.2-.03 1.85 1.3-.06-.32-1.44-1.05-.08.02zm-3.92.77l2.9 2.1.34-.05-3.06-2.2-.2.02zm3.5-3.32l-.06-.47-2.2 3.07.05.38-.17.02 3.06 2.2.35-.04-3.06-2.2h-.08zm.1.63l-.06-.47-2 2.78.22-.04 3.05 2.2.34-.05-3.07-2.2h-.1zm-1.34 4.9l.33-.06-2.55-1.85.05.34zm1.45-4.26l-.08-.47-1.46 2.03.23-.03 3.06 2.2.2-.03-.02-.13-2.9-2.1h-.1zm-.18 4.05l.34-.06-3.05-2.2-.34.05zm7.96-6.05l-.06-.34-3.06-2.2.07.33zm-3.22-3.2l.06.35 3.06 2.2-.05-.33zm3.33 3.82l-.06-.35-3.06-2.2.07.33zm-10.9 5.88l-.35-.25.05.3zm.3-.05l.34-.05-1.1-.8.07.35zm10.7-5.2l-.05-.34-3.06-2.22.05.34zm-10.06 5.1l.34-.05-1.82-1.33.05.34zm10.17-4.46l-.06-.34-3.06-2.2.06.34zm-13.54-8.5l.07.47.4-.57-.46.08zm10.04 9.17l-.44.07.07.44zm5.18 1.38l-.08-.47-.78 1.1.47-.08zm-4.55-1.48l-.47.07-.5.7.08.48zm4.58 1.65l-.26.34.3-.05zm-1.55-1.2l.8-1.1-.48.1-.4.53-.02-.17.25-.35-.47.1-2.85-2.04.05.34 2.43 1.75-.26.04v.02l-2.1-1.52.04.34 1.7 1.22-.28.04v.02l-1.37-.98.06.34.93.68-.27.04v.02l-.63-.46.06.34.2.16-.26.04-1.04 1.45.08.47 1.1-1.53v.04l.08.05-1.15 1.57.08.47 1.1-1.53.02.08.06.05-1.15 1.58.03.14.34-.05.82-1.15v.07l.07.05-.73 1 .47-.1.3-.38v.06l.07.03-.2.26 3.02-.5.92-1.3-.08-.46-1.1 1.54-.03-.17 1.1-1.54-.06-.47-1.1 1.54-.03-.16 1.1-1.53-.03-.25-.2.03-.94 1.3zm-2.3 1.64l.13-.17.1.06-.12.17zm-.1-.64l.12-.17.1.08-.1.18zm-.1-.64l.12-.18.1.1-.12.16zm-.1-.64l.12-.16.1.07-.12.17zm.67 2.2l.13-.2.1.08-.14.17zm-.1-.65l.13-.18.1.08-.14.15zm-.1-.64l.12-.18.08.08-.12.18zm-.1-.64l.12-.2.08.1-.13.17zm.57 1.54l.13-.18.1.06-.14.18zm-.1-.64l.12-.18.1.08-.13.18zm-.1-.64l.12-.18.1.08-.14.18zm-.1-.64l.12-.16.1.06-.14.18zm.67 2.18l.14-.17.1.06-.14.17zm-.1-.64l.14-.17.1.07-.14.16zm-.1-.64l.13-.17.1.08-.13.18zm-.1-.64l.13-.17.1.1-.14.17zm.58 1.55l.13-.17.1.06-.13.18zm-.1-.64l.12-.18.1.08-.13.17zm-.1-.65l.12-.17.1.08-.14.17zm-.1-.64l.12-.14.1.06-.14.17zm.67 2.2l.13-.17.1.06-.14.16zm-.1-.64l.12-.17.1.07-.13.15zm-.1-.64l.12-.18.1.1-.13.16zm-.1-.64l.12-.18.1.1-.14.16zm.57 1.55l.13-.18.08.07-.12.17zm-.1-.64l.12-.2.1.1-.13.17zm-.1-.65l.12-.18.1.08-.14.18zm-.1-.64l.12-.15.1.06-.14.2zm.67 2.2l.1-.18.1.06-.12.18zm-.1-.64l.1-.18.1.08-.12.16zm-.12-.64l.1-.18.12.08-.13.18zm-.1-.64l.1-.18.12.08-.13.18zm-10.83-1.84l.07.47 2.2-3.05-.07-.47zm2.6-.67l-.1-.47-2.2 3.06.08.48zm-.22-1.28l-.08-.48-2.2 3.06.08.47zm.1.63l-.07-.47-2.2 3.06.07.47zm20.5-9.7l.28.24.05.3-.64-.5-.33.03 1.02.8.02.3-1.35-1.06-.34.03 1.73 1.38.03.3-2.07-1.64-.34.04 2.43 1.95.03.28-2.76-2.2-1.5.17.3 2.65 1.33-.15v.1l1.38 1.1-.3.02-1.02-.82.04.34.65.5-.28.04-.35-.26.04.34.05.05-.05.08.06.5.06.06-.05.08.06.53.07.06-.05.06.06.53.07.05-.05.06.06.54.06.05-.05.06.05.54.07.05-.05.05.05.52.07.06-.06.07.06.5.06.06-.05.08.07.5.06.07-.05.07v.02a1.3 1.3 0 0 1-.08.6l.54-.66h.02l.13-.17.08.06-1.8 2.26-.02-.18.54-.67a1.22 1.22 0 0 1-.6.22l-1.84.2a1.33 1.33 0 0 1-1.48-1.17v-.1l-.13.12h-.15l.25-.3-.06-.48-.68.85h-.17l.82-1.03-.05-.47-1.24 1.56-.17.02 1.4-1.75-.05-.48-1.8 2.28-.18.02 1.96-2.47-.05-.47-2.35 2.96v.04a3.88 3.88 0 0 0 .5 1.52 4 4 0 0 0 .98 1.17 4.1 4.1 0 0 0 1.37.7 3.88 3.88 0 0 0 1.6.13l1.84-.2.2-.03a1.3 1.3 0 0 0 .2-.04l3.16-3.97a.68.68 0 0 0 0-.2 1.44 1.44 0 0 1-.02-.2L127 5.26l-2.94-2.35-.04-.3 2.96 2.35-.04-.34L124 2.28l-.05-.3 2.95 2.35-.02-.17L128.2 4l-.3-2.65zm-1.15 9.3l-.08-.08.13-.17.1.07zm-.07-.66l-.07-.06.13-.16.1.07zm-.06-.62l-.1-.1.15-.16.07.08zm-.07-.65l-.1-.08.15-.17.08.1zm-.08-.64l-.1-.1.14-.14.1.07zm-.08-.64l-.08-.07.13-.17.1.07zm-.07-.65l-.1-.07.15-.17.08.07zm-.07-.64l-.1-.07.15-.17.08.06zm-.47-2.12l-.03-.3 2.1 1.67-.32.04zm2.48 5.47l-.1-.07.13-.16.12.08zm.2.48l-.12.16-.1-.05.13-.17zm-.27-1.1l-.1-.1.14-.16.1.08zm-.06-.65l-.1-.08.13-.17.1.08zm-.07-.64l-.1-.07.13-.18.1.07zm-.08-.65l-.1-.05.12-.17.1.06zm-.08-.63l-.1-.07.13-.17.1.07zm-.07-.65l-.1-.06.13-.17.1.05zm.15 4.2l-.1-.05.13-.17.1.06zm.2.5l-.13.15-.1-.06.13-.16zm-.27-1.1l-.1-.1.13-.17.1.1zm-.08-.66l-.1-.08.13-.17.1.1zm-.07-.64l-.1-.1.13-.14.12.07zm-.07-.65l-.1-.06.14-.16.1.06zm-.06-.64l-.1-.07.13-.17.1.06zm-.08-.65l-.1-.06.13-.17.1.06zm-.32-.52l.1.07-.14.17-.1-.07zm.07.65l.1.07-.12.17-.1-.06zm.08.65l.1.07-.13.17-.1-.08zm.07.65l.1.06-.13.17-.1-.06zm.08.62l.1.1-.13.16-.1-.1zm.07.65l.1.08-.13.17-.1-.08zm.07.64l.1.1-.13.15-.1-.07zm.07.66l.1.06-.13.17-.1-.07zm-.8-4.14l.1.07-.12.16-.1-.07zm.08.65l.1.06-.13.17-.1-.07zm.08.64l.1.08-.14.17-.08-.07zm.07.66l.1.06-.13.17-.1-.1zm.07.62l.1.1-.13.15-.08-.08zm.07.65l.12.08-.14.18-.08-.1zm.1.64l.1.07-.15.16-.08-.06zm.06.65l.1.06-.13.17-.1-.07zm-.85-4.8l.1.08-.14.17-.08-.07zm.08.66l.1.07-.15.16-.08-.05zm.08.64l.08.07-.13.16-.08-.07zm.07.65l.08.07-.12.16-.08-.06zm.07.62l.1.08-.15.17-.08-.1zm.07.64l.1.08-.14.17-.1-.1zm.08.64l.08.1-.13.14-.1-.07zm.02.88l-.08-.06.12-.17.08.06zm-1.54 3.2l2.15-2.7h.02-.02l.14-.16.1.07-2.37 2.97zm.08.66l2.73-3.42h.02-.02l.13-.17.1.06-2.93 3.7zm.1.8l-.02-.16 3.3-4.14.12-.17.1.07zm2.6-8.6l.1.07-.12.15-.1-.06zm-.2-.48l.14-.16.1.06-.13.17zm.28 1.12l.1.07-.13.17-.1-.07zm.08.65l.1.07-.14.17-.1-.08zm.07.64l.1.08-.13.17-.1-.1zm.07.64l.1.08-.13.17-.1-.08zm.07.64l.1.07-.13.16-.1-.07zm.08.65l.1.06-.14.17-.1-.06zm.25-.13l-.1-.06.13-.17.1.08zm-.07-.64l-.1-.07.13-.16.08.08zm-.07-.63l-.1-.08.13-.18.07.1zm-.08-.64l-.1-.08.13-.17.1.08zm-.07-.65l-.1-.06.14-.17.1.07zm-.06-.64l-.1-.07.13-.16.08.07zm-.08-.64l-.1-.07.14-.17.08.07zm.05-.82l-.1.17-.1-.06.12-.18zm-.1-.08l-.3.03-2.47-1.96-.03-.3zM119.96 7l-2.35 2.96.06.47L120 7.47zm-2.15 4.7l2.36-2.96-.06-.47-2.35 2.96zm2.1-5.34l-2.36 2.95.05.5 2.34-2.97zm.13 1.27l-2.35 2.95.05.48 2.35-2.96zm-2.95-2.34l.02-.03.17-.02-.17.2.05.5.6-.75.16-.02-.73.93.06.48 1.15-1.46h.16l-1.3 1.6.06.5 1.7-2.17.18-.02-1.86 2.35.05.47 2.28-2.87 1.4-.16-.3-2.65-5.3.6.3 2.65 1.33-.15v.02zm10.5 6.7a1.74 1.74 0 0 0 .05-.3l.03-.3-2.97 3.72c.1-.03.2-.07.3-.1a1.54 1.54 0 0 0 .28-.12zm-7.77-6.3l-2.34 2.97.06.47 2.35-2.96zm5.74 9.08a3.93 3.93 0 0 0 1.25-1.04 4.05 4.05 0 0 0 .72-1.45zm-5.8-9.7L117.4 8l.04.48 2.35-2.97zM131.1 6.7l.02.48 2.47-2.86-.04-.48zm.27 3.86l.03.48 2.47-2.86-.04-.47zm-.24-3.2l.04.46 2.47-2.85-.04-.48zm.1 1.26l.03.48 2.47-2.86-.03-.47zm.1 1.3l.02.47 2.47-2.86-.03-.48zm2.6-1.1l-.05-.46-2.47 2.85.05.5zm-2.66.45l.04.48 2.48-2.86-.04-.5zm-.1-1.27l.05.47 2.46-2.86-.03-.46zm8.2 2.12l-.03-.25-.25.02zm.03.65l-.02-.34-.6-.52-.33.04zm-5.3-9.9l-.35.03 1 .87-.03-.34zm.27 0l.33.27-.02-.3zm-4.9 2.06l.04.35.66.56.34-.02zm.08.96l.3-.04-.32-.28zm1.34.06l.15-.18h.1l-.07-.06.15-.17.1.1-.43.48.04.48.76-.87h.1l-.07-.06.14-.16.1.1-1.02 1.16.03.48 1.34-1.55.12-.02-.06-.06.14-.16.08.1L131 5.4l.03.48 1.94-2.24h.1l-.05-.06.14-.17.1.1-2.22 2.55.04.48 2.46-2.86V3.6h.17l-.17-.17-.02-.23-.1.12-.08-.1.14-.15.55.5.36-.03-.88-.76-.02-.23-.1.13-.08-.07.14-.16 1.24 1.08h.2v-.15l-1.43-1.23V1.9l-.12.13-.07-.07.14-.16 1.47 1.27-.03-.34-1.4-1.24-.03-.22-.1.1-.1-.07.15-.15 1.47 1.27-.03-.35-1.33-1.14-.4.03-.12.12-.08-.07.03-.03-.47.03-.1.12-.1-.07.03-.04-.48.05-.1.12-.1-.07.03-.04-.47.03-.1.12-.1-.07.03-.04-.4.04.17.16v.07l.04-.04.1.07-.12.14v.04l-.5-.42-.33.02.85.74v.1l.04-.04.1.07-.14.14v.03L129.6 1.2l-.24.02v.12l1.43 1.23v.1l.03-.04.1.07-.12.14v.04l-1.4-1.24V2l1.44 1.22v.1l.04-.06.1.1-.12.13v.03l-1.43-1.23.03.34 1.34 1.16h.08zm2.2-2.4l-.13.16-.1-.07.16-.16zm.05.65l-.14.17-.07-.07.14-.16zm.05.65l-.14.17-.08-.1.14-.14zm-.44-1.6l-.14.17-.08-.07.14-.16zm.05.66l-.13.17-.1-.07.16-.16zm.05.65l-.14.17-.07-.07.14-.17zm.05.65l-.14.16-.08-.08.14-.17zm-.44-1.6l-.12.17-.1-.07.14-.16zm.05.65l-.1.17-.12-.07.15-.17zm.05.65l-.12.16-.1-.1.14-.13zm-.42-1.6l-.14.16-.1-.06.13-.17zm.05.65l-.14.16-.1-.06.14-.16zm.05.65l-.14.16-.12-.07.15-.17zm.04.64l-.14.17-.1-.08.14-.17zm-.44-1.6l-.14.17-.1-.06.13-.16zm.05.66l-.14.16-.1-.07.14-.17zm.05.64l-.14.17-.12-.08.15-.15zm-.44-1.6l-.15.17-.1-.06.14-.16zm.03.66l-.14.16-.1-.07.13-.17zm.05.64l-.14.17-.1-.06.14-.17zm.05.65l-.14.15-.12-.1.14-.15zm-.44-1.6l-.15.16-.1-.07.14-.17zm.03.64l-.14.17-.1-.06.13-.17zm.05.65l-.14.15-.1-.1.14-.13zm7.94 8.22l-.14.16-.08-.07.07-.07h-.15L137.5 10l-.35.03 1.45 1.23-.14.16-.1-.06.07-.1-.16.02-1.42-1.23h-.17v.18l1.27 1.08-.14.17-.1-.07.08-.08h-.13l-.94-.8.04.34.57.5-.14.16-.08-.07.05-.08H137l-.24-.2v.23l-2.65.2v-.03.02h-.18l.18-.2-.03-.47-.62.7-.17.02.77-.9-.03-.47-1.22 1.4-.17.02 1.38-1.6-.03-.47-1.8 2.1H132l1.96-2.25-.03-.48-2.4 2.78-1.4.1.18 2.66 6.97-.5v-.02l.12-.16.1.1-.08.07.5-.04-.03-.03.14-.16.1.1-.1.08.52-.03-.02-.02.14-.16.1.08-.1.1.53-.05v-.02l.13-.16.08.1-.06.07.3-.03-.04-.3-.03.05-.08-.1.1-.1-.04-.48-.04.04-.08-.1.1-.1-.03-.5-.02.05-.08-.07.1-.12-.03-.48-.04.02-.08-.07.1-.1-.03-.43-1.28-1.1h-.34zm-2.28 2.53v-.05l.12-.15.1.1-.16.16zm-.04-.64v-.05l.12-.14.08.1-.14.16zm-.05-.64v-.06l.12-.12.08.07-.14.16zm-.05-.65v-.04l.12-.12.1.07-.16.17zm.42 1.57l.12-.16.1.1-.14.16zm-.05-.65l.13-.14.1.07-.14.16zm-.04-.63l.12-.17.1.07-.14.16zm.42 1.57l.14-.16.1.1-.15.16zm-.05-.65l.14-.16.1.1-.14.15zm-.04-.62l.14-.17.1.07-.14.16zm-.05-.65l.15-.16.1.05-.14.17zm.45 1.57l.14-.16.1.1-.15.15zm-.05-.64l.14-.15.1.07-.14.17zm-.04-.63l.14-.16.1.05-.14.17zm.43 1.57l.14-.16.1.1-.14.15zm-.05-.64l.14-.17.1.1-.15.17zm-.05-.63l.14-.16.1.06-.14.16zm-.04-.65l.14-.16.1.07-.14.17zm.43 1.58l.14-.17.1.1-.14.17zm-.05-.65l.14-.14.1.06-.15.16zm-.05-.63l.14-.16.1.07-.14.17zm.44 1.58l.14-.17.08.1-.12.17zm-.05-.65l.14-.16.08.1-.12.15zm-.05-.63l.14-.16.07.07-.12.17zm-.05-.64l.14-.17.1.06-.14.16zm.44 1.57l.14-.16.08.1-.14.15zm-.05-.65l.14-.14.08.07-.14.17zm-.05-.62l.14-.17.07.06-.14.17zm6.2-2.16l-.02-.34-2.78-2.56.02.34zm-.04-.62v-.35l-2.77-2.56v.34zm.07 1.27l-.02-.34-2.77-2.55v.34zm-.1-2.57l-.02-.34-2.77-2.57v.35zm.02.65l-.03-.34-2.77-2.57.02.34zm-.06-1.3l-.02-.34-2.77-2.57v.34zm-2.82-3.55l.02.34 2.77 2.56v-.34zm4.4 9.48l-.4.42.4-.02zm-.02-.17l-.02-.48-1 1.1.47-.03zm-5.07-1.9h-.34v.35zm3.56.82l.92-1h-.47l-.4.45-.08-.1.33-.33h-.2l-.02-.2-2.77-2.55.02.34 2.6 2.4h-.1l-.1.1-.1-.08-2.3-2.12.03.34 1.94 1.8h-.13l-.1.1-.07-.1h-.02l-1.62-1.5v.34l1.28 1.17h-.1l-.1.1-.1-.1-.96-.88.02.35.6.55h-.12l-.1.1-.07-.1-.3-.27.02.28h-.2l-1.1 1.2.03.48 1.4-1.5.07.1-.14.15-.04-.05v.1l-1.28 1.38.02.48 1.4-1.5.07.08-.15.16-.04-.05v.1l-1.27 1.38v.23h.24l1.15-1.23.07.07-.14.16-.04-.03v.1l-.9.95.5-.02.52-.58.08.08-.15.16-.04-.04.02.1-.26.27.63-.02-.1-.08.16-.16.08.07-.15.16.64-.03-.08-.07.14-.16.08.07-.14.16.64-.03-.07-.07.13-.16.1.08-.15.15.65-.02-.1-.07.15-.16.1.07-.15.15.48-.02 1.18-1.27-.02-.48-1.32 1.43-.1-.06 1.4-1.53v-.47l-1.32 1.43-.1-.07 1.4-1.54v-.16h-.33l-1 1.12zm-2.22 1.06l.15-.15.08.07-.14.16zm-.02-.64l.15-.16.1.1-.16.13zm-.03-.65l.15-.17.08.1-.15.15zm.4 1.6l.14-.16.08.07-.15.17zm-.03-.65l.14-.16.08.06-.15.16zm-.03-.65l.15-.16.08.1-.15.15zm-.03-.65l.15-.16.07.1-.15.14zm.4 1.6l.14-.15.08.07-.15.16zm-.03-.64l.15-.15.08.1-.14.13zm-.02-.64l.15-.16.08.1-.14.15zm.4 1.6l.13-.15.1.08-.15.16zm-.04-.64l.15-.16.07.08-.15.15zm-.02-.65l.14-.16.08.1-.14.17zm-.03-.64l.14-.16.08.1-.15.15zm.38 1.6l.13-.16.1.08-.14.16zm-.03-.65l.13-.15.1.1-.15.13zm-.02-.64l.12-.16.1.1-.14.15zm.37 1.6l.14-.15.1.06-.14.16zm-.03-.64l.15-.16.1.07-.15.17zm-.03-.65l.15-.16.1.08-.16.16zm-.02-.65l.14-.16.1.1-.14.15zm.4 1.6l.13-.15.1.07-.14.16zm-.04-.64l.15-.16.1.1-.15.13zm-.02-.65l.14-.15.1.1-.15.15zm-2.6-.53l-.48.02-.47.5.03.48zM146.02.22l-1.26 1.37-.08-.1.14-.16.08.1v-.18l.95-1.03-.48.02-.64.7-.08-.08.15-.16.08.08V.63l.34-.38-.48.02-.03.02V.27l-.6.02-.02.02-.04-.02-.6.03v.02l-.03-.02-.6.02-.02.02-.02-.02-4.57.2.16 4 2.66-.12-.05-1.33 1.33-.06v.33l2.78 2.56v-.35l-2.76-2.54h.28l2.46 2.26v-.34l-2.1-1.94.3-.02 1.77 1.65V4.3L143.58 3l.3-.02L145 4v-.34l-.76-.7h.3l.44.4V3l-.1-.06.35-.02 1.02-1.1v.16l-.85.93h.48l.4-.44v.17l-.23.26.25-.02.05 1.33 2.67-.1-.17-4zm-3.73 2.54v-.02l.1.1-.1.1v-.18zm-.04-.65h.02l.08.08-.1.1zm-.02-.64v-.02l.1.1-.1.1v-.18zM142.2.8h.03l.08.1-.08.1zm.27 1.76l.15-.16.08.1-.15.15zm-.03-.65l.15-.15.07.1-.15.15zm-.02-.62l.15-.16.07.08-.14.16zm-.03-.64l.14-.16.08.07-.15.16zm.4 2.23l.13-.16.1.1-.14.16zm-.02-.65l.13-.15.1.1-.14.15zm-.02-.64l.12-.16.1.1-.14.15zm-.03-.63l.13-.16.1.06-.15.16zm.37 1.6l.14-.17.1.1-.14.15zm-.03-.66l.15-.17.1.1-.15.15zm-.02-.64l.14-.16.1.07-.15.16zm-.03-.65l.15-.15.1.07-.15.16zm.42 2.25l.14-.16.1.08-.15.16zm-.03-.65l.16-.16.1.1-.15.15zm-.02-.65l.15-.16.1.08-.15.16zm-.02-.63l.14-.16.1.07-.14.16zm.4 1.6l.13-.17.1.1-.16.15zm-.04-.66l.15-.16.1.1-.15.15zm-.03-.63l.14-.16.1.08-.15.15zm-.03-.65l.14-.16.1.08-.13.16zm.4 2.24l.16-.16.1.1-.15.15zm0-.65l.13-.16.1.1-.14.16zm-.04-.65l.15-.15.1.1-.15.15zM144 .9l.15-.16.1.07-.15.17zm.4 1.58l.14-.16.08.1-.13.15zm-.03-.65l.14-.15.1.1-.13.15zm-.03-.62l.15-.15.07.07-.13.16zm-.02-.64l.14-.16.08.07-.13.16zm.5 2.33l-.1-.1.16-.16.08.07v-.14l1.27-1.4v.18zm-.04-.66l-.08-.1.15-.15.08.06V1.9L146.2.53V.7zm6.1 11.2h.34l-.9-.86.02.34zm-.3 0l-.24-.24v.25zm5.07-2.35v-.35l-.02-.02h-.34zm0 .64v-.34l-.67-.66h-.34zm-1.33-1.08v-.47l-.6.6-.03-.05h-.1l.7-.73v-.48l-1.22 1.25-.04-.05h-.1l1.37-1.38V8.9l-1.87 1.9-.04-.04h-.1l2-2.04v-.48l-2.52 2.56v-.04h-.13l2.64-2.7V7.6l-2.65 2.7v.46h-.23l.23.23v.3l-.53-.53h-.35l.9.87v.3l-1.2-1.17h-.15v.2l1.34 1.3v.32l-1.34-1.33v.34l1.35 1.33v.3l-1.34-1.3v.33l1.2 1.17 2.93-.03-.16-.13.04-.04V13l.4.4h.35l-.8-.77.03-.04v-.24l1.06 1.04h.28v-.06l-1.4-1.36.05-.03v-.22l1.34 1.32v-.34l-1.38-1.35.02-.04v-.22l1.35 1.33v-.34l-1.33-1.3h-.1zm-2.6 2.64l.16-.15.08.07-.15.16zm0-.65l.16-.15.07.08-.15.15zm0-.64l.15-.15.08.1-.15.13zm0-.64l.14-.16.08.1-.15.15zm.33 1.62l.15-.16.08.08-.15.15zm0-.65l.15-.16.07.08-.15.15zm0-.65l.14-.16.07.1-.15.16zm-.02-.65l.16-.15.06.1-.15.14zm.35 2.27l.15-.16.08.08-.14.15zm0-.65l.14-.16.08.07-.15.15zm0-.65l.14-.15.08.1-.16.12zm-.02-.65l.15-.15.1.1-.16.15zm.34 1.62l.15-.15.08.07-.15.14zm0-.65l.15-.15.07.07-.15.16zm0-.65l.14-.15.08.1-.15.15zm-.02-.65l.15-.15.08.1-.14.15zm.35 2.27l.15-.16.07.07-.15.17zm0-.66l.14-.15.08.06-.15.16zM153 12l.17-.16.07.1-.15.13zm0-.66l.16-.15.08.1-.15.14zm.35 1.62l.13-.15.1.08-.16.16zm0-.65l.12-.14.1.08-.15.15zm0-.63l.12-.16.1.1-.16.16zm-.02-.65l.13-.16.1.1-.15.15zm.33 2.26l.15-.15.1.08-.15.16zm0-.64l.14-.16.1.08-.15.15zm-.02-.65l.15-.17.1.1-.16.14zm0-.66l.15-.16.08.1-.15.16zm.34 1.62l.15-.16.1.08-.16.15zm0-.65l.14-.15.1.08-.15.15zm-.02-.64l.16-.15.1.1-.16.15zm0-.65l.15-.14.1.1-.15.15zm1.6-10.96h-.25l-1.07 1.1V.97l.9-.92h-.47l-.44.44V.3l.27-.27-3.06.03-1.2 1.23v.5l1.32-1.36v.2l-1.32 1.34v.48l1.32-1.35v.18l-1.32 1.35v.15h.33l1-1.02v.15l-.85.88h.48l.37-.4v.2l-.2.2h.2l.03 2.86.2-.2h.15l-.34.35v.47l.82-.83h.17l-1 1 .02.48 1.45-1.48h.17l-1.62 1.65v.47l2.1-2.14h.17l-2.28 2.3v.5l2.65-2.7-.03-2.78h.2l1.13-1.15v-.48l-1.33 1.35V2.3l1.32-1.35V.47l-1.32 1.35v-.17L155.55.3zm0 2.16v-.48l-.97 1h.46zM150.24.67v.47l1.04-1.06h-.48zm0-.18l.4-.4h-.4v.4zm1.4 7.86v.48l2.65-2.7v-.48zm2.65-1.57v-.47l-2.64 2.7v.48zm1.3-4.43l-.34.35h.34v-.34zm-1.3 5.05v-.48l-2.64 2.7v.48zm12.03-5.87l-.1-.1-.13-.13-1.93 1.85.12.1a.67.67 0 0 1 .12.13zm-.33-.3a2.32 2.32 0 0 0-.26-.22l-1.97 1.9a2.38 2.38 0 0 1 .32.16zm-4.42 7.4l5.68-5.44a1.78 1.78 0 0 1-.07-.17.73.73 0 0 0-.06-.2l-6.03 5.8zm4.07-7.7c-.05-.05-.1-.08-.14-.12s-.1-.06-.14-.1L163.2 2.8a1.48 1.48 0 0 1 .4.06zm1.23 1.35a.9.9 0 0 0-.1-.14c-.03-.05-.06-.1-.1-.15l-2 1.94c.03.1.05.22.08.4zm.2.43a1.4 1.4 0 0 0-.08-.17c-.02-.04-.04-.1-.07-.16l-2.18 2.13a2.08 2.08 0 0 1-.18.63zm-.46-.8a2.5 2.5 0 0 0-.22-.3l-1.94 1.86a1.4 1.4 0 0 1 .16.3zm-4.88 6.7l.47.02 5.13-4.92q0-.1-.03-.2c0-.07-.03-.14-.04-.2zm5.43-2.85c.04-.1.07-.2.1-.3s.04-.2.07-.32l-3.62 3.47c.1-.02.22-.04.32-.06a1.64 1.64 0 0 0 .3-.08zm-4.78 2.88h.47l4.55-4.36a1.67 1.67 0 0 1-.02-.22 1.67 1.67 0 0 0 0-.22zm3.97-1.44a4.52 4.52 0 0 0 .7-1.17L164.6 8.4a4.75 4.75 0 0 0 1.2-.66zm-4.73 3.7l-.06-.1.06-.04h-.48l-.16.12-.07-.08.05-.06h-.23l.05-2.13h.13l2.9-2.78a1.5 1.5 0 0 1-.63.15l-2.4 2.28v-.15L163 6h-.48l-1.73 1.65v-.17l1.55-1.5h-.48L160.8 7v-.17l.9-.86h-.48l-.4.38v-.17l.23-.22h-.23l.07-3.2h.22-.02l.16-.15.1.1-.1.06h.5l.14-.14.08.08-.08.08h.5l.15-.14.08.08-.08.07h.5L165.2.7a1.68 1.68 0 0 0-.3-.17l-1.8 1.7-.06-.08L164.8.47l-.35-.12-1.3 1.23-.08-.07 1.25-1.2a1.18 1.18 0 0 0-.2-.05c-.07 0-.14-.03-.2-.04l-.76.75-.07-.1.7-.67c-.1 0-.17-.02-.24-.03s-.15 0-.2-.02l-.2.17-.06-.1.08-.07h-.5l-.15.16-.08-.1.08-.1h-.5v.02l-.15.15-.07-.1.08-.08-.5-.02.03.02-.15.15-.1-.1.1-.07h-.5l.2.2v.08l.03-.04.1.1-.14.1V.6l-.5-.54h-.35l.83.87v.1l.04-.04.1.07-.14.13v.06l-1.14-1.2h-.35l1.47 1.54v.08l.03-.04.1.08-.14.13v.06L159.15.07h-.34l2.1 2.2v.07l.04-.04.1.07-.14.13v.04l-2.4-2.5h-.33l2.6 2.72h-.3l-2.6-2.73h-.35l2.6 2.72h-.3L157.23 0h-.27V.1l2.53 2.65h-.3L156.94.4v.33l1.9 2-.3-.02-1.6-1.66-.02.34 1.27 1.33h.03l-.18 8.02h-.15l-.15.13-.08-.08.06-.06h-.48l-.15.13-.08-.07.06-.06h-.36v.35l.13-.13.07.08-.15.15-.06-.06v.6l.13-.13.08.08-.15.15-.05-.06-.02.6.14-.12.07.08-.16.15-.06-.08v.6l.13-.12.08.1-.16.15-.05-.08v.35h.33l-.03-.04.15-.15.08.1-.1.1h.55l-.03-.03.15-.15.07.1-.1.1h.54l-.02-.03.16-.15.07.1-.1.1h.53l-.04-.04.15-.14.1.1-.1.1h.53l-.04-.04.15-.15.1.1-.13.1h.55l-.03-.03.14-.15.08.1-.1.1h.55l-.04-.03.16-.15.06.1-.1.08h.56l-.04-.03.16-.15.07.1-.1.1h.4v-.38l-.1.12-.1-.1.17-.15.03.04.02-.57-.12.1-.07-.1.15-.12.04.04v-.58l-.1.1-.08-.06.16-.15.03.05.02-.58-.12.1-.08-.06.16-.14.05.04v-.27h-.28zM162.94.36l.07.1-.16.15-.07-.1zm-.02.65l.1.07-.17.14-.07-.07zm0 .64l.07.08-.15.15-.08-.1zm-.02.65l.08.1-.16.14-.07-.08zm-.3-1.62l.1.1-.17.15-.06-.1zm0 .65l.07.08-.15.16-.08-.08zm0 .65l.06.08-.15.15-.1-.07zm-.3-1.63l.07.1-.15.15-.08-.1zm-.02.65l.08.08-.16.15-.07-.08zm0 .65l.06.08-.15.15-.08-.08zm-.02.65l.07.08-.15.15-.07-.08zm-.3-1.63l.08.1-.15.15-.08-.1zm0 .65l.07.08-.15.15-.07-.08zm-.02.65l.07.08-.16.14-.08-.08zm-.3-1.63l.08.1-.13.15-.1-.1zm0 .65l.07.07-.15.15-.1-.08zm-.02.64l.08.07-.14.16-.1-.07zm0 .65l.06.06-.13.15-.1-.07zm-.3-1.64l.1.1-.16.15-.1-.1zm0 .65l.08.08-.16.15-.1-.08zm-.03.65l.1.08-.16.15-.08-.08zm-4.2 10.8l-.1-.1.17-.14.07.1zm0-.64l-.07-.07.15-.15.08.08zm0-.64l-.06-.08.16-.14.08.07zm.3 1.63l-.07-.1.15-.16.08.1zm.02-.66l-.1-.1.17-.13.07.1zm0-.65l-.07-.08.15-.15.08.07zm0-.65l-.06-.08.16-.15.07.08zm.3 1.62l-.07-.1.15-.15.08.1zm.02-.64l-.08-.08.16-.15.07.08zm0-.65l-.06-.08.15-.15.1.08zm.3 1.62l-.07-.1.15-.14.08.1zm0-.64l-.06-.1.16-.13.07.07zm.03-.65l-.08-.07.16-.15.07.08zm0-.64l-.06-.08.14-.15.08.08zm.33-.45h.15l-.14.14-.08-.08zm-.03 2.1l-.07-.1.15-.16.08.1zm0-.66l-.06-.08.15-.15.07.1zm.03-.65l-.08-.1.16-.14.07.08zm.3 1.62l-.1-.1.15-.15.1.1zm0-.65l-.07-.1.14-.13.1.08zm.02-.65l-.08-.08.14-.15.1.07zm0-.65l-.06-.07.13-.15.1.07zm.3-.45h.18l-.14.13-.1-.08zm0 2.08l-.1-.1.16-.15.1.1zm0-.65l-.08-.08.15-.14.1.07zm.03-.65l-.1-.07.16-.15.08.08zm.3 1.63l-.1-.1.15-.15.1.1zm0-.65l-.1-.1.16-.13.08.08zm0-.64l-.08-.08.16-.15.1.1zm.03-.65l-.1-.1.16-.14.1.08zm.3-.46h.16l-.13.13-.1-.08zm0 2.08l-.1-.1.15-.15.1.1zm0-.65l-.1-.08.16-.16.1.08zm0-.65l-.08-.08.16-.15.1.07zm.3 1.63l-.1-.1.17-.15.1.1zm.02-.65l-.1-.1.16-.13.1.08zm0-.65l-.08-.08.15-.15.1.08zm.02-.65l-.1-.08.17-.15.1.08zm.3-.45h.17l-.13.13-.1-.08zm0 2.08l-.1-.1.16-.15.07.1zm0-.65l-.1-.08.17-.15.07.08zm.02-.65l-.1-.08.16-.15.08.08zm.27 1.63l-.08-.1.15-.15.08.1zm0-.65l-.07-.1.16-.12.06.08zm.02-.64l-.08-.07.16-.16.07.07zm0-.65l-.06-.06.15-.15.1.07zm.3 1.64l-.07-.1.15-.15.08.1zm.02-.65l-.08-.08.16-.15.07.08zm0-.65l-.06-.08.15-.15.08.08zm.3 1.62l-.08-.1.16-.14.07.1zm0-.64l-.06-.1.15-.13.08.07zm.03-.65l-.08-.08.15-.15.07.08zm0-.65l-.06-.08.16-.15.08.08zm.3 1.63l-.07-.1.15-.15.08.1zm0-.65l-.06-.07.16-.15.08.08zm.03-.64l-.08-.08.16-.15.07.08zm5.8-7.1l-4.4 4.2h.03c.1 0 .17 0 .25 0s.15 0 .23 0L167.37 5a1.75 1.75 0 0 1 .02-.23c0-.08 0-.16 0-.25zm-10.15-1.8l-.35-.36V2.66zm.63.02l-.97-1v.35l.64.66zm21.9-1.74l.23.3v.3l-.54-.62-.34-.02.85.97-.02.3-1.13-1.3-.35-.02 1.46 1.67-.02.3-1.73-2h-.34l2.06 2.34-.03.3-2.33-2.67-1.5-.1-.17 2.66 1.33.08v.1l1.15 1.32-.3-.02-.88-1-.02.35.55.62-.28-.02-.3-.32v.34l.04.06-.06.07-.03.52.05.06-.06.05-.03.53.05.07-.06.06-.04.53.06.06-.06.05-.04.54.06.07-.07.05-.03.53.05.07-.06.05-.04.5.05.1-.05.05-.03.5.05.07-.06.06-.02.52.05.06-.06.05v.03a1.3 1.3 0 0 1-.2.6l.65-.57h.02l.16-.14.08.08-2.17 1.9.02-.17.65-.57a1.22 1.22 0 0 1-.62.1l-1.86-.1a1.28 1.28 0 0 1-.93-.46 1.32 1.32 0 0 1-.33-.97v-.1l-.13.1-.14-.02.3-.26.03-.47-.82.7h-.17l1-.88.03-.48-1.5 1.32h-.16l1.68-1.5.03-.47-2.2 1.92-.16-.02 2.37-2.08.02-.48-2.84 2.5v.04a4.14 4.14 0 0 0 .2 1.58 4.08 4.08 0 0 0 2 2.26 3.84 3.84 0 0 0 1.54.4l1.86.13.2.02a1.03 1.03 0 0 0 .2 0l3.8-3.36a1.23 1.23 0 0 0 .04-.2 1.3 1.3 0 0 1 0-.2l.37-5.55-2.5-2.84.02-.3 2.5 2.85V4.1l-2.48-2.83.02-.3 2.5 2.83v-.17l1.33.1.16-2.68zM177 9.88l-.06-.08.16-.14.07.08zm.05-.64l-.07-.1.16-.13.08.1zm.04-.63l-.08-.1.17-.13.06.1zm.04-.64l-.07-.1.16-.14.07.1zm.04-.65l-.07-.1.17-.1.07.07zm.04-.63l-.07-.1.16-.13.08.08zm.04-.65l-.07-.08.15-.15.07.08zm.04-.65l-.07-.08.16-.15.07.08zm-.1-2.17l.03-.3 1.76 2h-.3zm1.5 5.82l-.1-.1.16-.13.1.1zm.1.5l-.15.14-.1-.08.17-.14zm-.07-1.14l-.1-.1.17-.14.1.1zm.04-.64l-.1-.1.18-.14.08.1zm.04-.65l-.08-.1.17-.13.08.08zm.06-.66l-.1-.08.17-.14.1.08zm.04-.64l-.1-.1.17-.13.1.08zm.04-.65l-.1-.08.17-.15.1.1zm-.6 4.17l-.08-.1.16-.13.1.07zm.13.5l-.17.14-.1-.08.18-.15zm-.08-1.14l-.1-.1.16-.14.1.1zm.03-.64l-.1-.1.17-.15.1.1zm.04-.65l-.1-.1.17-.14.1.1zm.04-.66l-.08-.08.16-.14.1.08zm.05-.65l-.1-.1.18-.13.1.08zm.05-.65l-.1-.1.17-.13.1.08zm-.23-.57l.1.08-.18.14-.1-.08zm-.05.64l.1.1-.17.13-.1-.08zm-.04.65l.1.08-.17.15-.08-.1zm-.04.65l.1.08-.17.14-.1-.08zm-.04.63l.1.1-.17.14-.1-.1zm-.04.64l.1.1-.18.14-.08-.1zm-.04.64l.08.1-.16.13-.1-.1zm-.05.65l.1.07-.17.14-.1-.07zm-.05-4.22l.1.08-.17.14-.07-.08zm-.04.65l.1.08-.17.15-.06-.08zm-.04.64l.1.1-.17.13-.08-.08zm-.04.65l.1.08-.18.15-.07-.1zm-.04.63l.08.1-.16.14-.07-.1zm-.05.65l.1.1-.16.14-.07-.1zm-.03.64l.1.1-.17.13-.07-.08zm-.04.65l.1.07-.17.15-.07-.08zm0-4.86l.08.08-.15.14-.07-.08zm-.03.64l.07.08-.16.15-.07-.07zm-.05.65l.08.08-.17.15-.07-.08zm-.04.65l.08.08-.16.14-.07-.08zm-.03.63l.07.1-.16.15-.07-.1zm-.04.65l.07.1-.16.15-.07-.1zm-.04.65l.06.1-.16.12-.07-.08zm-.14.87l-.08-.08.17-.15.07.08zm-2.08 2.9l2.6-2.3.15-.13.1.08-2.86 2.5zm-.04.64l3.28-2.88.16-.14.1.08-3.55 3.12zm-.06.82l.02-.17 3.96-3.5.16-.13.08.08zm4.1-8l.08.07-.16.13-.1-.08zm-.13-.5l.16-.15.1.08-.16.14zm.08 1.14l.1.08-.17.15-.1-.1zm-.04.65l.08.1-.16.13-.1-.1zm-.05.64l.1.1-.18.14-.08-.1zm-.04.65l.1.1-.17.13-.1-.1zm-.04.63l.1.1-.17.13-.1-.08zm-.04.65l.1.08-.17.15-.1-.08zm.27-.08l-.1-.08.17-.14.07.08zm.04-.65l-.1-.08.17-.14.08.1zm.04-.62l-.1-.1.17-.15.07.1zm.04-.65l-.1-.1.17-.14.06.1zm.04-.65l-.1-.08.17-.14.07.1zm.04-.65l-.1-.08.17-.14.08.08zm.04-.64l-.1-.1.18-.13.07.1zm.2-.8l-.15.15-.1-.1.16-.13zm-.1-.1h-.3l-2.08-2.38.02-.3zm-7.1.25l-2.83 2.5-.02.46 2.83-2.5zm-2.95 4.24l2.83-2.5.03-.47-2.83 2.5zm2.98-4.9l-2.83 2.5-.03.48 2.83-2.5zm-.08 1.28l-2.83 2.5-.03.47 2.83-2.5zM170 3h.2l-.2.17-.03.48.7-.62h.18l-.9.8-.02.47 1.4-1.23h.15l-1.56 1.38-.03.48 2.05-1.82.17.02-2.24 1.98-.04.47 2.76-2.42 1.4.1.18-2.67-5.33-.35-.17 2.67 1.33.08V3zm9.16 8.47a1.74 1.74 0 0 0 .1-.3c.03-.1.06-.2.1-.3l-3.6 3.16c.1-.02.22-.04.32-.05a2.16 2.16 0 0 0 .3-.07zm-6.53-7.57l-2.84 2.5-.04.47 2.83-2.5zm4.03 9.94a3.94 3.94 0 0 0 1.42-.8 4 4 0 0 0 .97-1.3zm-4-10.6l-2.83 2.5-.03.48 2.84-2.5zm19.68 9.7l-.06-.1-.12.1-.16-.03.24-.2-.14-.3-.57.46h-.17l.7-.57-.14-.33-1.03.82-.18-.03 1.15-.92-.15-.33-1.48 1.2-.17-.02 1.6-1.28-.14-.32-1.93 1.55-.17-.02 2.06-1.65-.15-.32-2.16 1.73.08.22-1.08-.12-.3 2.65 5.3.6.3-2.67zm-10.86.9l.52.65.34.03-.83-1.03zm-.07.6l.3.02-.26-.32zm4.64-2.2l.86 1.1.04-.35-.56-.7zm-2.55-8.33l-.82-1-.03.34.5.63zm-.9-.36l-.02.27.27.04zm4.37 9.14l.04-.32-.32-.04zm1.64-2.3a.28.28 0 0 1 .1-.02.2.2 0 0 0 .1 0l-.36.3.14.32.86-.7a.68.68 0 0 0 .25-.06l-1.08.88.14.3 2.06-1.65a4.13 4.13 0 0 0 1.4-1.32 4.18 4.18 0 0 0 .66-1.87 4.33 4.33 0 0 0-.15-1.7 4.27 4.27 0 0 0-2-2.5 4.22 4.22 0 0 0-1.62-.52l-.03.28-.25-.3-.34-.05.56.7-.03.28-.8-1-.34-.05 1.1 1.4-.03.3-1.38-1.74-.34-.03 1.7 2.1-.04.3-1.95-2.44-.33-.05.03.04-.17.13-.08-.1.12-.1-.55-.05.04.04-.17.14-.07-.1.1-.1-.55-.05.03.06-.15.13-.07-.1.1-.1-.54-.05.03.04-.17.12-.06-.1.1-.08-.53-.06.18.2-.02.16.1-.07.05.1-.15.14-.44-.56-.33-.03.74.93v.15l.08-.06.06.1-.17.13-1-1.28-.2-.02v.15l1.17 1.47-.02.16.1-.07.05.1-.16.1-1.17-1.46-.04.34 1.17 1.47-.02.17.08-.07.07.08-.17.14-1.17-1.48-.04.34 1.08 1.35.1.02-.02.26.44-.34.07.08-.54.44-.05.48 1.16-.93.07.08-1.24 1-.06.5L185.6 4l.08.1-1.96 1.56-.05.47 2.56-2.06.1.1-2.68 2.13-.05.48 2.94-2.37.02-.16.13.02-.13-.15.02-.16-.1.07-.08-.08.17-.13.4.5.34.03-.7-.86.02-.17-.08.06-.1-.08.18-.14.98 1.22.34.04-1.26-1.58.02-.17-.1.1-.07-.12.16-.13 1.55 1.94.34.03-1.83-2.3v-.15l-.08.07-.08-.12.16-.13 2.03 2.52-.02.12a1.6 1.6 0 0 1 .84 2.83 1.54 1.54 0 0 1-1.18.34l-2.25-.24.04-.3-.32.26-.17-.03.5-.4.06-.47-1.02.83-.15-.02 1.2-.95.05-.47-1.73 1.38-.17-.02 1.92-1.54.05-.47L184 7.2l-.16-.03 2.63-2.1.05-.48-2.94 2.35-.34 3.03.2-.17.18.03-.4.32-.05.48.93-.75.17.02-1.12.9-.05.47 1.64-1.32.17.02-1.82 1.47-.05.48 2.35-1.9.17.03-2.37 1.88-.34-.04.17.2-.03.3-.43-.54-.34-.04.74.93-.03.28-1-1.24-.2-.04v.14l1.17 1.47-.04.3-1.17-1.47-.04.34L182.8 14l-.04.3-1.18-1.46-.03.34 1.1 1.37 2.9.32-.16-.2.04-.27.4.5.34.04-.72-.9h.02l.03-.3.98 1.23.23.03.02-.1-1.2-1.5h.03l.03-.3 1.18 1.48.04-.35-1.2-1.47.02-.02.03-.28 1.18 1.47.04-.34-1.1-1.4-.18-.02.1-.08.04-.48-.63.5h-.16l.82-.67.05-.47-1.33 1.08-.17-.02 1.53-1.23.05-.47-2.06 1.66-.15-.03 2.23-1.8v-.1l2.32.25h.08l.1.2zm-4.3-6.94l-.08-.08.17-.14.06.1zm.06-.63l-.06-.1.16-.12.07.1zm.07-.63l-.06-.1.16-.14.07.1zm.15 1.63l-.07-.1.18-.12.07.08zm.07-.65l-.07-.08.17-.14.06.1zm.07-.62l-.07-.1.17-.14.07.1zm.07-.65l-.08-.1.17-.13.06.1zm.14 1.63l-.07-.07.17-.14.06.08zm.06-.6l-.06-.1.17-.15.07.1zm.08-.66l-.07-.1.18-.13.06.1zm.14 1.63l-.07-.08.17-.15.07.08zm.07-.65l-.07-.08.16-.13.06.1zm.06-.62l-.06-.1.16-.14.07.1zm.07-.65l-.06-.1.17-.13.06.1zm.15 1.63l-.07-.08.18-.14.07.1zm.07-.62l-.07-.1.17-.14.07.1zm.07-.65l-.07-.1.17-.12.07.1zm.15 1.64l-.07-.08.15-.14.08.1zm.07-.64l-.07-.1.15-.13.08.1zm.07-.63l-.06-.1.15-.14.07.1zm.08-.64l-.07-.1.16-.14.08.1zm.14 1.62l-.08-.08.16-.14.1.1zm.07-.62l-.1-.1.18-.14.08.1zm.06-.65l-.08-.1.17-.14.08.1zm-.88 9.9l.1.1-.18.13-.1-.08zm-.07.65l.1.08-.17.15-.1-.1zm-.06.62l.08.1-.16.14-.1-.1zm-.07.65l.08.1-.17.13-.08-.1zm-.15-1.63l.1.1-.18.12-.07-.1zm-.07.63l.1.1-.18.14-.07-.1zm-.07.64l.1.1-.18.14-.07-.1zm-.07.65l.1.1-.17.13-.07-.1zm-.04-2.3l.06.1-.17.13-.06-.08zm-.08.66l.07.08-.17.14-.06-.1zm-.07.63l.08.1-.17.12-.05-.1zm-.06.63l.07.1-.16.14-.06-.1zm-.14-1.6l.06.1-.16.12-.07-.08zm-.07.63l.06.1-.17.13-.07-.1zm-.07.64l.06.1-.17.14-.06-.1zm-.07.65l.05.1-.17.13-.06-.1zm-.1-2.28l.08.1-.17.12-.06-.1zm-.06.65l.07.08-.16.14-.07-.1zm-.07.62l.07.1-.17.14-.07-.1zm-.07.65l.06.1-.16.12-.07-.1zm-.15-1.64l.07.08-.17.14-.06-.1zm-.07.63l.07.1-.17.12-.06-.1zm-.07.63l.08.1-.17.14-.05-.1zm-.06.65l.07.1-.16.13-.07-.1zm-.74.16l-.07-.1.17-.13.06.1zm.07-.64l-.07-.1.17-.14.06.1zm.07-.65l-.07-.1.17-.13.07.1zm.07-.64l-.06-.08.17-.13.08.07zm.15 1.66l-.06-.1.16-.14.06.1zm.07-.65l-.06-.1.17-.12.06.1zm.08-.63l-.07-.1.17-.12.06.08zm.07-.65l-.07-.08.17-.14.06.1zm5.33-.77l.16.32 2.15-1.74-.13-.32zm2.5-.97l-.15-.33L189 12l.14.3zm13.9-5.15a1.15 1.15 0 0 0-.1-.13c-.05-.05-.08-.1-.12-.13l-2.15 1.58c.04.04.07.1.1.13a1.15 1.15 0 0 1 .1.13zm-.3-.35c-.08-.1-.15-.17-.23-.25l-2.22 1.63a1.93 1.93 0 0 1 .3.2zm-5.35 6.76l6.34-4.64a1.5 1.5 0 0 1-.05-.2 1.53 1.53 0 0 0-.04-.18l-6.72 4.95zm5.04-7.1c-.06-.04-.1-.1-.14-.12a.93.93 0 0 0-.13-.1l-2.4 1.75a1.56 1.56 0 0 1 .42.12zm1.03 1.5a.53.53 0 0 0-.08-.14.84.84 0 0 1-.07-.16l-2.23 1.65c0 .08 0 .2 0 .4zm.14.46c-.02-.07-.03-.12-.05-.17a.72.72 0 0 1-.05-.17l-2.44 1.8a1.92 1.92 0 0 1-.26.6zm-.35-.86a2.3 2.3 0 0 0-.17-.3L203.1 7.1a2.35 2.35 0 0 1 .1.34zm-5.7 6.03l.47.07 5.72-4.2a1.44 1.44 0 0 0 0-.2v-.2zm5.76-2.13a3.1 3.1 0 0 0 .13-.3c.04-.1.08-.2.12-.3l-4.04 2.97c.12 0 .23 0 .34 0a1.96 1.96 0 0 0 .3-.04zm-5.12 2.23l.47.07 5.08-3.74a1.57 1.57 0 0 1 .02-.22.78.78 0 0 0 .02-.22zm4.13-.9a4.53 4.53 0 0 0 .84-1.08l-2.73 2a4.6 4.6 0 0 0 1.28-.5zm-5.18 3.04l-.07-.08.07-.05-.47-.07-.17.1-.07-.08.08-.05-.23-.03.33-2.1h.13l3.24-2.37a1.46 1.46 0 0 1-.64.07l-2.67 1.95.02-.16 2.48-1.83-.47-.06-1.94 1.42.03-.17 1.74-1.28-.48-.08-1.2.88.03-.17 1-.73-.47-.07-.46.33.03-.17.26-.18-.22-.03.5-3.18.2.03.17-.13.08.1-.1.06.48.07.2-.13.05.1-.1.05.5.08.18-.13.06.1-.1.05.5.08 2.43-1.8a1.9 1.9 0 0 0-.28-.2l-2 1.44-.06-.1 1.93-1.44-.32-.16-1.45 1.05-.06-.1 1.38-1a1.1 1.1 0 0 0-.2-.1c-.06-.02-.12-.04-.18-.07l-.85.65-.06-.1.77-.6c-.07 0-.15-.03-.22-.05s-.15-.03-.2-.04l-.2.14-.06-.1.07-.07-.5-.06v.02l-.16.13-.05-.12.08-.06-.5-.08v.02l-.16.13-.06-.12.1-.06-.5-.08.02.02-.18.13-.08-.12.1-.06-.5-.08.18.24v.08l.03-.03.08.1-.15.1v.06l-.44-.6-.34-.05.72.98v.07l.03-.03.08.1-.15.1v.06l-.98-1.33-.34-.05 1.26 1.72v.07l.03-.03.1.1-.17.1v.07L198.28 3l-.34-.05 1.8 2.46v.08l.04-.03.08.1-.15.1v.04l-2.04-2.8-.34-.05 2.23 3.05-.3-.05-2.23-3.04-.34-.04 2.23 3.04-.3-.05-2.22-3.04-.27-.03v.07l2.17 2.96-.3-.04-1.9-2.6-.06.33 1.63 2.2-.3-.04-1.37-1.87-.05.33L197 5.5h.03l-1.2 7.93-.16-.02-.17.12-.07-.1.07-.04-.47-.07-.17.12-.07-.1.06-.03-.36-.07-.06.36.16-.12.06.08-.17.13-.06-.07-.1.6.16-.12.06.1-.17.13-.06-.07-.1.6.16-.1.06.08-.17.13-.05-.1-.1.6.15-.1.07.1-.18.14-.05-.08-.06.34.33.05-.03-.03.18-.13.06.1-.1.1.53.07-.03-.03.18-.13.06.1-.1.1.52.07-.02-.03.18-.13.06.1-.1.08.52.1-.04-.06.18-.13.08.1-.1.1.52.07-.04-.04.18-.13.08.1-.13.1.55.07-.04-.04.18-.13.06.1-.1.1.54.07-.04-.04.18-.13.06.1-.1.08.54.1-.04-.05.18-.12.06.1-.1.08.37.07.06-.38-.14.1-.07-.1.18-.14.04.06.08-.56-.13.1-.07-.1.17-.12.03.05.1-.58-.14.1-.07-.1.17-.12.03.05.1-.57-.14.1-.07-.08.17-.13.03.04.04-.25-.28-.05zM202 3.83l.05.1-.17.13-.06-.1zm-.1.64l.06.1-.18.12-.06-.1zm-.1.64l.06.1-.18.12-.06-.1zm-.1.65l.06.08-.17.13-.08-.1zm-.08-1.66l.06.1-.17.13-.05-.1zm-.1.63l.07.1-.2.12-.05-.1zm-.1.65l.07.08-.2.13-.05-.1zm-.07-1.66l.06.1-.16.14-.06-.1zm-.1.65l.07.08-.18.13-.06-.1zm-.1.64l.07.1-.18.12-.06-.1zm-.1.65l.07.08-.17.13-.07-.08zM201 4l.06.1-.17.13-.06-.1zm-.1.64l.07.08-.18.13-.06-.1zm-.1.64l.07.08-.18.13-.06-.1zm-.07-1.65l.07.1-.15.13-.08-.1zm-.1.64l.08.08-.16.13-.08-.1zm-.1.64l.08.1-.16.13-.08-.1zm-.08.65l.06.1-.16.12-.08-.1zm-.08-1.65l.08.1-.17.13-.08-.1zm-.1.64l.08.1-.17.12-.08-.1zm-.1.64l.1.1-.2.12-.07-.1zm-5.58 10.16l-.06-.1.17-.13.06.12zm.1-.64l-.06-.08.17-.13.06.08zm.1-.64l-.07-.1.17-.1.06.07zm.07 1.65l-.06-.1.17-.12.07.1zm.1-.63l-.06-.1.17-.1.06.08zm.1-.64l-.07-.1.18-.1.06.07zm.1-.64l-.07-.1.18-.12.06.08zm.07 1.64l-.06-.1.17-.13.07.1zm.1-.64l-.06-.1.17-.1.07.07zm.1-.64l-.07-.1.18-.1.07.07zm.07 1.65l-.06-.1.2-.12.05.1zm.1-.63l-.06-.1.18-.1.06.07zm.1-.64l-.07-.1.18-.1.06.07zm.1-.64l-.07-.1.18-.13.06.1zm.37-.42l.15.03-.16.12-.07-.1zm-.3 2.06l-.06-.1.17-.13.07.1zm.1-.64l-.06-.1.17-.12.06.1zm.1-.64l-.07-.1.18-.12.06.1zm.07 1.65l-.05-.1.16-.13.1.1zm.1-.63l-.05-.1.15-.12.08.1zm.1-.64l-.06-.1.16-.12.08.1zm.1-.64l-.06-.1.16-.13.08.1zm.36-.42l.17.02-.15.12-.1-.1zm-.28 2.06l-.08-.1.18-.14.08.1zm.1-.64l-.08-.1.17-.12.08.1zm.1-.64l-.08-.1.17-.12.08.1zm.07 1.65l-.08-.1.18-.13.08.1zm.1-.63l-.08-.1.17-.12.08.1zm.1-.64l-.08-.1.17-.12.08.1zm.1-.64l-.1-.1.2-.13.07.1zm.35-.42l.17.02-.15.1-.1-.08zm-.28 2.06l-.08-.1.18-.14.08.1zm.1-.64l-.08-.1.17-.12.1.1zm.1-.65l-.08-.08.17-.13.1.1zm.07 1.66l-.1-.1.2-.13.07.1zm.1-.63l-.1-.1.18-.12.08.1zm.1-.65l-.1-.1.18-.1.08.08zm.1-.64l-.1-.1.18-.1.08.08zm.34-.4l.17.02-.14.1-.1-.08zm-.28 2.06l-.08-.1.18-.14.06.1zm.1-.65l-.08-.1.17-.12.07.08zm.1-.65l-.08-.1.17-.1.06.07zm.05 1.65l-.05-.1.18-.13.06.1zm.1-.64l-.05-.1.17-.1.07.07zm.1-.64l-.05-.1.17-.1.06.07zm.1-.64l-.06-.1.18-.12.06.1zm.08 1.65l-.06-.1.18-.13.06.1zm.1-.64l-.06-.1.17-.12.06.08zm.1-.65l-.06-.1.17-.12.05.1zm.07 1.65l-.06-.1.17-.13.06.1zm.1-.64l-.06-.1.16-.12.07.1zm.1-.64l-.06-.1.16-.12.06.1zm.1-.64l-.06-.1.16-.12.06.1zm.07 1.65l-.06-.1.18-.13.06.1zm.1-.64l-.06-.1.17-.13.07.1zm.1-.65l-.06-.1.17-.12.06.1zm6.66-6.28l-4.88 3.6h.02c.08 0 .17.02.24.02s.16 0 .23.02l4.3-3.16c0-.08.02-.15.03-.23a1.67 1.67 0 0 0 .05-.24v-.03zm-9.8-3.1l-.3-.42-.07.34h.03zm.6.1l-.82-1.14-.05.34.55.74zm20.88 4.98c0-.08.03-.15.04-.23a1.65 1.65 0 0 0 .02-.2l-.53.34-.18-.03.7-.47v-.2a.72.72 0 0 0 0-.2l-1.17.78-.17-.03 1.34-.88c0-.07-.02-.13-.03-.2s-.03-.1-.04-.18l-1.72 1.18-.17-.03 1.85-1.3a.77.77 0 0 0-.04-.16.75.75 0 0 1-.04-.17L215.2 10l-.17-.04 2.37-1.6c-.02-.05-.04-.1-.06-.16s-.05-.1-.07-.16l-2.3 1.56c0 .06 0 .12 0 .17a1.13 1.13 0 0 1-.03.17l-1.02 5.25.22.03 1.54 2.26a1.3 1.3 0 0 0 .16-.2l-1.36-2 .3.05 1.2 1.77a1.1 1.1 0 0 1 .05-.12c.02-.04.05-.08.08-.12l-.98-1.46.3.06.8 1.18.1-.27-.57-.86.3.06.36.56a1.47 1.47 0 0 1 .07-.16c0-.04.03-.1.04-.15l-.1-.18.14.03zM217 7.52l-.1-.13a1.74 1.74 0 0 0-.1-.15l-2.2 1.5a1.58 1.58 0 0 1 .1.13l.1.14zm-.28-.36c-.07-.1-.15-.18-.22-.26l-2.32 1.57a1.24 1.24 0 0 1 .3.2zm.5.77c-.06-.1-.1-.2-.16-.3l-2.22 1.5a2.84 2.84 0 0 1 .1.34zm-7.58 1.3l-1.73-2.58-.14.2 1.82 2.7zm2.72 7l-2.62-.5a1.35 1.35 0 0 1-1.06-1.57l-.13-.02-2-2.98-.07.34 1.74 2.57-.3-.06-1.5-2.2-.06.34 1.22 1.8-.3-.05-.98-1.46-.06.33.7 1.06-.3-.06-.46-.7-.07.34.2.3-.23-.05a3.73 3.73 0 0 0 0 1.6 3.93 3.93 0 0 0 .6 1.4 3.9 3.9 0 0 0 1.1 1.1 3.83 3.83 0 0 0 1.46.6l2.62.52.1.02-.08-.15.06-.3.3.47a.6.6 0 0 1 .16 0 .57.57 0 0 0 .13.02l-.54-.82.05-.28.74 1.1a1.6 1.6 0 0 0 .28-.02l-.97-1.42.07-.3 1.13 1.68a.52.52 0 0 1 .14-.02.27.27 0 0 0 .12-.03l-1.32-1.96.05-.3 1.47 2.2.25-.08-1.64-2.45zm-3.58-2.57l-2.1-3.13-.07.33 2.12 3.14zm.13-.64l-2.1-3.13-.07.33 2.1 3.13zm.13-.62l-2.1-3.13-.08.34 2.1 3.14zm5.18 6.2l.13-.05a.94.94 0 0 1 .1-.06l-1.5-2.27c-.1 0-.18.02-.3.03zm1.17-.76a.44.44 0 0 0 .08-.08.74.74 0 0 1 .1-.1l-1.64-2.42a.8.8 0 0 1-.1.3zm-.35.3a.79.79 0 0 0 .1-.07 1.23 1.23 0 0 0 .08-.1l-1.52-2.25c-.07.1-.13.16-.17.2zm-.4.25c.05-.04.13-.08.22-.14l-1.5-2.22a1.5 1.5 0 0 1-.2.12zM209.7 8.9a2.32 2.32 0 0 1 .1-.3l-1.57-2.32a.8.8 0 0 0-.17.18l1.64 2.46v-.02zm-.76-3.18l-.2.14 1.5 2.2a.77.77 0 0 1 .2-.1zm.2 6.03l-2.1-3.14-.07.34 2.1 3.13zm.2-6.24a.4.4 0 0 1-.1.05.38.38 0 0 0-.1.06l1.52 2.26a.62.62 0 0 1 .26-.05zm1.93 2.33l.26.05.15-.1.08.1-.06.05.46.1.16-.12.08.1-.07.04.47.1.16-.1.06.08-.05.05.46.1.16-.12.05.1-.07.04.3.05a.67.67 0 0 1 .17.05l2.37-1.6a.5.5 0 0 1-.12-.12.82.82 0 0 0-.15-.12l-2.3 1.55-.06-.1.17-.1 2.1-1.42a1.13 1.13 0 0 1-.15-.1c-.05-.04-.1-.07-.16-.1l-1.78 1.2-.06-.1.17-.1 1.56-1.07a1.6 1.6 0 0 0-.17-.1 1.83 1.83 0 0 1-.18-.08l-1.22.83-.06-.1.18-.13.96-.65a.74.74 0 0 0-.2-.08 1.7 1.7 0 0 1-.18-.07l-.58.4-.06-.12.18-.12.3-.2-.25-.05-.27-.05v.04l-.17.12-.05-.1.12-.08-.53-.1v.04l-.15.12-.08-.1.1-.08-.5-.1.02.04-.2.12-.06-.1.13-.08-.55-.1.03.04-.18.12-.07-.1.13-.08-.36-.07-.18-.04.14.24-.03.17.1-.07.07.1-.18.13-.38-.58c-.06 0-.12 0-.16 0s-.1 0-.15 0l.6.9-.02.17.1-.08.07.1-.18.13-.8-1.2a.67.67 0 0 1-.14 0 .53.53 0 0 0-.15 0l1 1.5-.02.16.1-.06.07.1-.18.1-1.2-1.75a.44.44 0 0 1-.12.03.4.4 0 0 0-.13.03l1.37 2.03-.03.17.1-.06.07.1-.17.1-1.54-2.27a.8.8 0 0 0-.24.1l1.6 2.38zm2.7-1.6l.05.12-.18.12-.06-.1zm-.13.65l.06.1-.18.12-.06-.1zm-.13.64l.07.1-.17.1-.06-.08zm0-1.65l.06.1-.18.12-.05-.1zm-.12.63l.06.1-.18.13-.06-.1zm-.12.63l.06.1-.18.1-.06-.08zm-.13.64l.07.1-.18.1-.06-.08zm0-1.65l.05.1-.16.13-.07-.1zm-.13.63l.06.1-.16.12-.08-.1zm-.12.64l.06.1-.16.1-.08-.08zm0-1.65l.07.1-.18.13-.08-.1zm-.13.63l.07.1-.18.14-.07-.12zm-.13.64l.08.1-.18.1-.08-.08zm-.12.64l.08.1-.18.1-.08-.08zm0-1.66l.07.1-.18.14-.1-.12zm-.13.64l.08.1-.18.1-.08-.08zm-.13.64l.08.1-.18.1-.08-.08zm0-1.66l.07.1-.17.13-.07-.1zm-.13.64l.1.1-.2.13-.07-.1zm-.1.64l.07.1-.18.1-.1-.08zm-.14.63l.08.1-.18.12-.08-.1zm0-1.65l.07.1-.18.13-.07-.1zm-.13.64l.08.1-.17.1-.08-.08zm-.12.63l.1.1-.2.12-.07-.1zM208.6 6c-.03.02-.06.05-.1.08s-.07.05-.1.07l1.54 2.27c.02-.04.04-.07.06-.1a.47.47 0 0 1 .1-.08zm.7 5.13l-2.1-3.1a.63.63 0 0 0-.05.15c0 .04-.02.1-.03.16l2.1 3.13zm.12-.64l-2.02-3-.1.26 2.05 3.07zm.12-.64l-1.9-2.82a.5.5 0 0 0-.07.12.5.5 0 0 1-.07.12l1.97 2.9zm12.45 5.6c.2.1.4.17.6.24q.34.14.68.3a3.65 3.65 0 0 1 .65.4 1.13 1.13 0 0 0 .12.1l2.34-1.47-.24-.23-2.15 1.3.04-.13 2.03-1.27a1.5 1.5 0 0 1-.26-.22l-1.65 1.02.04-.17 1.5-.93c-.05-.04-.1-.08-.14-.1s-.1-.07-.16-.1l-1.1.68.04-.17.97-.6a1.06 1.06 0 0 0-.17-.1 1.52 1.52 0 0 1-.16-.1l-.53.34.05-.17.37-.23a.48.48 0 0 0-.13-.08.93.93 0 0 1-.16-.08c-.15-.07-.3-.15-.47-.23s-.34-.15-.52-.22a7.58 7.58 0 0 1-1.46-.77 1.43 1.43 0 0 1-.77-1.44 1.12 1.12 0 0 1 .62-.7 1.78 1.78 0 0 1 1.27-.1 4.34 4.34 0 0 1 .92.32 3.3 3.3 0 0 1 .67.45 3.12 3.12 0 0 1 .53.58 8.72 8.72 0 0 1 .47.77l.22.05 2.95-1.83.1-.47-3.2 2 .05-.18 3.2-1.98.1-.45-3.2 1.98.04-.17 3.2-1.98.07-.26-.2-.04-2.96 1.83.04-.17 2.76-1.7-.47-.1-2.18 1.34.04-.17 1.97-1.22-.47-.1-1.4.86.05-.18 1.2-.74-.47-.1-.62.38V9a5.78 5.78 0 0 0-1.16-.8 7.05 7.05 0 0 0-1.6-.57 4.7 4.7 0 0 0-1.72-.1 4.4 4.4 0 0 0-1.53.5 3.9 3.9 0 0 0-1.2.97 3.5 3.5 0 0 0-.66 1.4 4.26 4.26 0 0 0-.1 1 3.3 3.3 0 0 0 .26 1.23 4.42 4.42 0 0 0 .86 1.3 6.32 6.32 0 0 0 1.7 1.25c.15.1.33.18.5.27zm6.82-4.1l-1.98 1.23.46.1 1.4-.87zm.14-.62l-2.75 1.7.45.1 2.18-1.34zm-12.27 9.06l.14.04-.1-.2zm11.97-7.8l-1.2.74.47.1.63-.38zm-1.9-3.55l-.1.34.43-.27zm-2.62 8.13a1.58 1.58 0 0 1 .25.24l2.28-1.43a.87.87 0 0 0-.1-.14c-.04-.04-.07-.08-.1-.13zm4.37-3.95l-.42.26.33.07zm-11.73 6.73l.34.55.35.08-.6-.96zm10.14-3.6a.98.98 0 0 1-.07-.13 1.77 1.77 0 0 0-.1-.14l-2.28 1.4a1.6 1.6 0 0 1 .1.14c.04.04.06.1.1.13zm.23.4a.8.8 0 0 1-.08-.14q-.04-.08-.1-.15l-2.25 1.4a2.67 2.67 0 0 1 .07.36zm.15.46a1.14 1.14 0 0 0-.05-.17 1.3 1.3 0 0 0-.07-.18l-2.38 1.48a.9.9 0 0 1-.02.25.6.6 0 0 1-.1.23zm-10.07.86l1.78 2.86.28.07.02-.05-2-3.2zm3.15 3.03a2.04 2.04 0 0 0 .33.2l3.24-2a1.8 1.8 0 0 1-.68.02zm.47.26a.76.76 0 0 0 .2.1c.05 0 .12.04.18.06l6.2-3.84a1.07 1.07 0 0 0-.04-.17 1 1 0 0 1-.05-.18zm.52.22c.06.02.13.05.2.07s.14.05.2.06l5.7-3.52a1.28 1.28 0 0 0-.02-.38zm1.54-2.32l-.3-.07-2.67 1.63c.07.04.12.07.17.1a1.86 1.86 0 0 1 .16.1l2.82-1.73zm-3.35 1.28c.05.04.1.08.14.1a1.14 1.14 0 0 0 .14.13l2.64-1.64a1.32 1.32 0 0 0-.2-.07.5.5 0 0 1-.2-.08zm-.22-.4l-.05-.1.2-.1.04.1.03-.18 1.93-1.2a.72.72 0 0 1-.14-.1c-.04-.04-.1-.07-.14-.1l-1.72 1.05-.06-.08.2-.1.04.08.04-.15 1.42-.88a1.12 1.12 0 0 1-.24-.25l-1.25.76-.05-.1.18-.1.06.1.03-.16.96-.6a.77.77 0 0 1-.22-.27l-.83.5-.05-.1.18-.1.06.08.03-.15.53-.32a.98.98 0 0 1-.08-.14.71.71 0 0 1-.08-.16l-.44.27-.05-.1.18-.12.05.12.04-.17.14-.08a1.06 1.06 0 0 0-.08-.16l-2.6-.6-.08.33v-.02l.08.13-.1.07-.12.46v-.02l.07.12h-.02a.8.8 0 0 1 .08.16.82.82 0 0 0 .08.14l.04-.03.07.12-.06.02c.04.05.06.1.1.15a1.58 1.58 0 0 1 .07.15l.07-.05.08.1-.1.06a.98.98 0 0 0 .1.14.71.71 0 0 1 .07.15l.08-.05.08.1-.1.06c.04.04.06.1.1.14s.04.1.07.15l.1-.06.05.1-.07.07.1.13a1.4 1.4 0 0 1 .1.14l.07-.04.05.1-.05.04a.93.93 0 0 1 .1.12c.04.05.07.1.1.15h.04l.06.08.03.05.45.73.05-.22.03.03 2.47-1.53a.98.98 0 0 0-.16-.1.98.98 0 0 1-.16-.1zm-1.58-3.45l.07.1.17-.1-.07-.12zm-.08.73l-.07-.1.18-.12.07.12zm.24.4l-.07-.12.2-.1.06.1zm.15-.64l-.07-.12.18-.1.07.1zm.1 1l-.08-.1.18-.12.07.1zm.14-.62l-.07-.1.18-.13.07.12zm.33-.74l-.07-.12-.18.1.07.13zm-.23 1.74l-.08-.1.17-.1.06.08zm.14-.6l-.06-.12.18-.12.05.1zm.16-.64l-.07-.12.17-.1.05.1zm-.07 1.63l-.07-.1.18-.1.07.1zm.14-.63l-.06-.1.18-.1.06.1zm.14-.62l-.05-.1.18-.12.06.1zm.33-.74l-.04-.1-.18.1.05.1zm-.37 2.38l-.06-.1.2-.1.04.1zm.15-.63l-.06-.1.18-.1.06.08zm.14-.62l-.05-.1.18-.1.05.1zm.15-.62l-.05-.1.18-.12.05.1zm-.2 2.27l-.06-.1.2-.1.05.1zm.15-.63l-.06-.1.18-.1.06.08zm.15-.63l-.06-.1.2-.12.05.1zm.14-.63l-.04-.1.18-.12.05.1zm.34-.74l-.05-.1-.2.1.06.1zm6.24 4.04a3.3 3.3 0 0 0 .83-.9l-2.7 1.7a4.72 4.72 0 0 0 1.25-.4zm-9-2.48l1.3 2.1.3.07-1.54-2.5zm5.43 3.2c.12.03.2.04.3.05s.16.02.25.03l4.26-2.64a1.1 1.1 0 0 0 .06-.13.8.8 0 0 0 .02-.15 1.33 1.33 0 0 1 .04-.17zm4.54-1.86c.05-.1.1-.18.13-.26s.06-.18.1-.27l-4 2.5c.1 0 .2 0 .3 0s.23 0 .34 0zm-5.13 1.7a.98.98 0 0 0 .2.07l.17.06h.08l5.08-3.14c0-.06 0-.13.02-.2a.77.77 0 0 0 0-.2zm-4.98-2.42l.82 1.33.34.08L217 18.4zm10.6 2.96l.47.82.32.1-.7-1.26zm.18-.63l.92 1.62.33.1-1.16-2.05zm-.34 1.25v.02l.34.1-.25-.45zm1.25-2.4l1.87 3.3.33.08-1.86-3.3zm-.73.53l1.37 2.42.33.1-1.6-2.85zm.2-.68l-.03.07 1.8 3.2.34.08-1.87-3.28zm6.32-3.8l1.1 1.92.08-.33-.85-1.5zm-.63-.17l1.54 2.72.1-.33-1.3-2.3zm2.13.58l-.26-.07.2.32zm-.88-.24l.64 1.13.1-.33-.4-.7zm-4.13-6.68l-.1.37.45-.26zm.5.14l-.66.4-.13.46 1.26-.73zm-.32 2.7l3.28-1.88-.46-.13-3.28 1.87zm.95-2.52l-1.46.82-.12.46 2.04-1.16zm.62.17l-2.25 1.28-.12.47 2.83-1.62zm1.9 11.38l1.37-.77-.46-.13-.8.45zm.16-.6l.62-.34-.46-.13-.03.02zm-.97-10.47l-.45-.13-3.05 1.73-.05.2.28.06zm6.16 1.7l-2.9-.8-3.28 1.86-.16-.05 3.28-1.87-.46-.13-3.28 1.87-.16-.04 3.27-1.87-.45-.12-3.27 1.87-.17-.05 3.3-1.86-.47-.13-3.28 1.88-.15-.04 3.28-1.87-.46-.13-3.27 1.87.22.07-.74 2.67 1.8 3.17-.3-.08-1.58-2.8-.1.34 1.36 2.37-.3-.08-1.12-2-.1.34.9 1.56-.27-.07-.7-1.23-.08.33.46.8-.3-.08-.24-.43-.8 2.9-.1-.03 1.86 3.28.33.1-1.87-3.3.3.1 1.86 3.28.33.1-1.86-3.3.28.08 1.87 3.3.33.1-1.87-3.3.3.1 1.87 3.27.33.1-1.86-3.3.27.08 1.88 3.3.55.14.04-.04.03.05.53.16.07-.03.03.05.53.15.06-.02.03.05.53.15.05-.03.04.05.28.08.06-.2-.1.05-.06-.1.2-.1.14-.48-.1.06-.07-.1.2-.1h.02l.13-.5-.1.07-.07-.1.2-.1.14-.47-.1.06-.06-.13.18-.1.02.02.13-.5-.15.1-.17-.06.35-.2.13-.46-.94.54-.16-.05 1.15-.65.1-.4h-.06l-1.64.92-.17-.04 1.64-.93-.46-.13-1.63.93-.16-.04 1.65-.94-.46-.13-1.6.9v.04l-.3-.07.2.36-.03.13.1-.05.04.1-.16.12-.42-.75-.33-.1.64 1.16-.04.16.1-.05.05.1-.17.1-.9-1.52-.32-.1 1.1 1.96-.03.14.1-.05.04.1-.17.1-1.33-2.32-.33-.08 1.56 2.74-.05.15.1-.04.05.1-.17.1-1.8-3.12-.12-.04.72-2.57.24.06L231 15l.3.1 1.85 3.27.34.1-1.88-3.3.3.1 1.86 3.28.33.1-1.85-3.3.3.08 1.85 3.3.33.08-1.86-3.28.28.08 1.86 3.28.2.06.03-.15-1.75-3.1-.15-.05.7-2.58.15.04 3.1-1.75-.05.17-2.88 1.64.46.12 2.3-1.3-.04.16-2.1 1.2.47.12 1.5-.86-.04.17-1.32.73.46.12.72-.4-.04.16-.52.3.4.1-.35 1.3 2.58.7zm-3.18 10.24l.06.12-.18.1-.05-.1zm-.17.63l.06.12-.18.1-.04-.1zm-.18.62l.07.1-.18.1-.06-.08zm-.17.63l.07.1-.18.1-.07-.1zm.14-1.64l.05.12-.2.1-.05-.1zm-.17.63l.05.1-.2.1-.04-.1zm-.18.63l.05.1-.2.1-.04-.1zm-.18.62l.06.1-.2.1-.05-.1zm.3-2.27l.04.12-.2.1-.04-.1zm-.18.63l.05.1-.2.12-.05-.1zm-.17.63l.05.1-.2.1-.04-.1zm-.17.62l.05.1-.2.1-.04-.1zm.1-1.65l.06.12-.2.1-.03-.1zm-.16.63l.05.1-.2.1-.05-.1zm-.17.62l.05.1-.2.1-.04-.1zm-.17.63l.05.1-.2.1-.04-.08zm.3-2.27l.03.12-.18.1-.05-.1zm-.2.63l.06.1-.18.12-.05-.1zm-.16.63l.06.08-.2.1-.04-.1zm-.17.6l.05.1-.18.1-.06-.08zm.12-1.64l.04.1-.2.12-.04-.1zm-.18.63l.05.08-.2.1-.04-.1zm-.18.6l.06.1-.2.1-.04-.08zm-.17.64l.06.1-.2.1-.04-.1zm.3-2.28l.04.1-.18.12-.05-.1zm-.18.63l.04.1-.2.1-.04-.1zm-.18.6l.05.1-.2.1-.04-.08zm-.17.64l.05.1-.2.1-.04-.1zm12.3-1.65l.1-.33-1.22-2.32-.33-.1zM242 18.14l-3.08 1.6-.06.2.25.1 3.02-1.6-.05.18-2.8 1.47.46.14 2.2-1.16-.05.17-1.98 1.04.45.13 1.38-.73-.05.17-1.17.6.47.15.57-.3-.05.17-.37.18 3.06.95-.17-.3.1-.3.35.7.33.1-.58-1.13.1-.3.78 1.5.32.1-1-1.92.08-.3 1.22 2.32.32.1-1.44-2.75.1-.3 1.63 3.14.17.04.05-.16-1.64-3.13zm4.83 3.14l.1-.33-.8-1.53-.33-.1zm.38-1.25l.1-.25-.26-.08zm-.18.62l.1-.32-.37-.72-.33-.1zm-7.53-2.75l-.15.46 1.27-.66-.46-.15zm.05-.16l.45-.24-.35-.1zm-.44 1.38l-.13.46 2.87-1.5-.46-.14zm.2-.6l-.14.46 2.08-1.1-.46-.13zm20.2 10.03l.12-.32-1.56-3.44-.12.33zm.22-.6l.12-.3-1.55-3.45-.14.32zm-.45 1.2l.12-.3-1.57-3.45-.12.32zm.9-2.4l.13-.32-1.56-3.44-.12.33zm-.22.6l.12-.3-1.56-3.45-.1.32zm.45-1.2l.12-.32-1.55-3.45-.12.32zm-1.2-4.37l-.12.32 1.55 3.44.12-.32zm.34 10.44l-.52.24.38.14zm.06-.16l.17-.44-1.35.6.44.18zm-3.93-3.73l-.32-.12-.12.32zm2.95 2.16l1.26-.56-.45-.16-.52.25-.05-.13.44-.18-.2-.07.06-.18-1.55-3.44-.12.32 1.47 3.24-.1-.05-.13.06-.06-.1h.02-.02l-1.28-2.87-.12.33 1.08 2.4-.1-.04-.13.06-.02-.12h-.02l-.9-2.02-.13.32.7 1.58-.1-.04-.12.05-.03-.1-.02-.02-.53-1.18-.12.32.33.74-.1-.03-.13.05-.04-.1-.16-.38-.1.27-.18-.06-1.47.66-.17.45 1.86-.84.04.12-.2.1v-.08l-.04.1-1.72.77-.17.46 1.87-.85.03.13-.2.1v-.08l-.04.1-1.7.77-.1.2.24.1 1.55-.7.03.1-.2.1-.02-.06-.02.1-1.18.52.45.17.7-.32.05.1-.2.1-.02-.06-.03.1-.34.14.6.24-.05-.1.2-.1.04.1-.2.1.6.23-.04-.1.2-.1.04.1-.2.1.6.23-.04-.1.18-.1.06.1-.2.1.6.22-.05-.1.2-.1.06.1-.2.1.46.17 1.57-.72.17-.45-1.77.8-.06-.1 1.9-.86.16-.45-1.77.8-.06-.1 1.9-.85.04-.15-.3-.1-1.36.62zm-2.44.13l.2-.1.04.1-.2.1zm.23-.6l.2-.1.04.12-.2.07zm.24-.62l.2-.08.03.12-.2.1zm-.27 1.64l.2-.08.04.1-.2.1zm.23-.6l.2-.1.04.1-.2.1zm.22-.6l.2-.1.04.12-.2.1zm.23-.62l.2-.08.04.1-.2.1zm-.27 1.64l.2-.1.05.1-.2.1zm.23-.6l.2-.1.05.12-.2.07zm.24-.62l.2-.1.04.13-.2.1zm-.27 1.63l.2-.08.04.1-.18.07zm.23-.6l.2-.1.04.1-.2.1zm.23-.6l.2-.1.03.12-.2.08zm.23-.62l.2-.1.03.13-.2.1zm-.27 1.64l.17-.1.06.1-.2.08zm.22-.62l.18-.1.05.12-.2.07zm.23-.6l.18-.1.05.1-.2.1zm-.3 1.62l.2-.1.07.1-.2.1zm.24-.6l.2-.1.05.1-.2.1zm.22-.62l.2-.1.05.14-.2.1zm.23-.6l.2-.1.05.13-.2.1zm-.27 1.63l.2-.08.06.1-.2.1zm.23-.6l.2-.1.06.13-.2.08zm.24-.6l.2-.1.05.13-.2.1zm-2.18-1.52l-.45-.17-.63.3-.16.44zm7.7-8.52l-1.7.77-.05-.12.2-.08.05.12.06-.16 1.3-.58-.46-.17-.86.4-.04-.1.2-.1.04.1.05-.14.47-.22-.45-.17h-.04l-.55-.22h-.03l-.03-.02-.56-.2h-.03v-.03l-.57-.2h-.02v-.02l-4.28-1.6-1.4 3.74 2.48.94.47-1.25 1.25.47-.1.3 1.54 3.45.12-.33-1.54-3.4.27.1 1.38 3.04.12-.33-1.17-2.6.28.1 1 2.22.13-.32-.8-1.77.3.1.6 1.38.13-.32-.42-.93.28.1.25.53.12-.32-.05-.1.32.13 1.37-.62-.06.17-1.15.52.44.16.54-.24-.05.16-.32.14.23.1-.47 1.24 2.5.94 1.4-3.75zm-4.44.88h.03l.03.1-.12.06zm.23-.6l.03-.02.03.12-.1.05zm.23-.6l.02-.03.04.13-.12.06zm.23-.62h.03l.04.1-.12.06zm-.43 1.7l.2-.08.03.12-.2.08zm.23-.6l.2-.1.03.13-.2.1zm.22-.6l.2-.08.04.1-.2.1zm.23-.6l.2-.08.04.1-.2.1zm-.5 2.23l.2-.1.04.12-.2.1zm.24-.6l.16-.1.06.1-.2.1zm.2-.62l.2-.1.05.13-.2.08zm.24-.6l.17-.1.08.1-.2.1zm-.28 1.62l.2-.1.05.13-.2.1zm.22-.6l.2-.1.06.13-.2.1zm.23-.6l.2-.08.07.1-.2.08zm.24-.6l.2-.1.05.1-.2.1zm-.5 2.22l.2-.1.06.13-.2.1zm.23-.6l.2-.1.06.13-.2.08zm.23-.62l.2-.08.05.12-.2.08zm.22-.58l.2-.1.06.1-.2.1zm-.26 1.6l.2-.08.05.1-.18.1zm.23-.6l.2-.1.04.14-.2.1zm.2-.6l.2-.08.07.1-.2.1zm.24-.6l.2-.08.06.1-.2.08zm-.5 2.23l.2-.1.06.13-.2.1zm.24-.6l.2-.1.05.12-.2.1zm.23-.62l.2-.1.06.14-.2.1zm.23-.6l.2-.07.06.1-.2.1zm-.26 1.63l.2-.08.03.12-.18.1zm.23-.6l.2-.1.03.13-.18.1zm.22-.6l.2-.08.04.1-.18.1zm.23-.6l.2-.08.04.1-.2.1zm-.46 2.34l-.04-.1.2-.1.04.1.05-.15 1.72-.78-.06.16zm.22-.6l-.03-.12.18-.1.05.1.05-.13 1.72-.8-.06.17zm5.84 13.95l.2-.45-1.43.57.43.2zm-3.6-.9l.44.2 3.5-1.4-.44-.2zm3.54 1.05l-.58.23.4.17zm-4.22-3.72l-.2.44 1.26-.5-.44-.18zm10.14-7.13l-.18.44 1.42-.57-.44-.2zm-10.07 6.98l.4-.16-.28-.12zm4.72 2.52l.2-.44-3.14 1.25.44.2zm-.25.6l.18-.44-2.27.9.44.2zm10.56-8.64l-1.55.62-.06-.1 1.45-.6-.42-.17-.73.3-.05-.12.62-.24-.58-.24.04.1-.2.08-.03-.12.17-.07-.57-.26.04.1-.2.08-.03-.12.18-.07-.58-.24.04.1-.2.07-.02-.12.17-.07-.56-.24.02.1-.2.07-.04-.1.18-.08-.44-.18-1.65.66-.2.44 1.9-.76.02.12-.2.1v-.06l-.03.05-1.75.7-.2.43 1.88-.75.04.1-.18.08-.03-.03-.02.05-1.74.7-.04.1.33.15 1.4-.56.04.1-.2.1-.02-.05-.02.06-1.05.42.45.2.55-.23.04.1-.2.08v-.03l-.04.05-.2.08.14.06-.05.14 1.33 3.33-.27-.1-1.18-2.97-.14.32 1 2.5-.27-.12-.85-2.1-.13.3.65 1.66-.28-.12-.5-1.25-.13.3.32.8-.28-.1-.16-.4-.12.27-3.56-1.52 1.05-2.46.18.07-1.4-3.5-.32-.14 1.4 3.5-.26-.1-1.4-3.5-.32-.14 1.4 3.5-.27-.13-1.4-3.5-.25-.1-.03.07 1.37 3.4-.3-.12-1.2-3-.13.32 1.02 2.55-.3-.13-.85-2.15-.13.32.68 1.7h.03L265 31.93l-.22-.1-1.45.6-.2.43 2.1-.83.15.06-2.3.93-.2.45 2.94-1.18.15.07-3.15 1.27-.1.25.2.08 3.5-1.4.15.06-3.5 1.4.44.2 3.5-1.42.16.07-3.5 1.4.44.2 3.5-1.4-.15-.08 1.04-2.46 3.6 1.56 1.38 3.43.13-.33-1.18-2.98.28.1 1.03 2.6.14-.33-.86-2.13.28.12.7 1.75.13-.3-.5-1.3.27.1.36.9.14-.3-.18-.45.27.12.02.05 1.13-2.7-1.3-3.22.1.05.14-.05.04.1.02.02 1.13 2.83.14-.3-.97-2.4.1.04.13-.05.04.1h-.02l.03.03.8 1.97.14-.3-.6-1.54.07.05.16-.04.04.1-.03.02h.04l.46 1.14.13-.32-.28-.67.1.03.12-.05.05.1-.03.02.03.02.1.26.1-.2.2.1 1.46-.6.18-.42-1.82.73-.06-.1 1.95-.8.2-.43-1.83.73-.06-.1 1.96-.8.1-.23zm-4.06.52l.2-.08.04.1-.2.08zm.25-.6l.2-.08.04.1-.2.08zm.26-.6l.2-.08.03.12-.2.08zm-.34 1.62l.2-.08.03.1-.2.08zm.25-.6l.2-.08.04.1-.2.08zm.25-.6l.2-.08.03.12-.2.06zm.25-.6l.2-.08.04.12-.2.08zm-.33 1.62l.2-.08.04.1-.2.08zm.25-.6l.2-.08.04.1-.2.08zm.25-.6l.2-.08.04.12-.2.08zm-.33 1.62l.2-.08.03.1-.2.08zm.24-.6l.2-.08.04.1-.2.08zm.26-.6l.2-.08.03.12-.2.06zm.25-.6l.2-.08.03.12-.2.08zm-.34 1.62l.2-.08.05.1-.2.08zm.27-.6l.2-.08.04.1-.2.08zm.25-.6l.2-.08.03.12-.2.08zm-.34 1.62l.2-.08.04.1-.2.08zm.26-.6l.2-.08.04.1-.2.08zm.25-.6l.2-.08.02.1-.2.08zm.24-.6l.2-.08.04.1-.2.1zm-.33 1.62l.2-.1.05.12-.2.08zm.26-.6l.18-.1.06.12-.2.08zm.26-.6l.18-.1.05.13-.2.08zm1 2.17l-.36.16.26.1zm.08-.15l.2-.44-1.24.5.44.18zm-12.72 6.67l3.35-1.36.04-.1-.33-.14-3.5 1.4zm8.5-10.4l.6-.24-.42-.18zm-1.43-1.1l-.3-.14.46 1.18.14-.32zm.26.1l.16.36.1-.25zm-.84-.36l-.32-.14.8 2.03.15-.3zm-4.46-.08l-.14.3.34.87.32.13zm-.26.6l-.13.3.32.15zm4.78 8.87l1.1 2.72-.3-.1-.92-2.34-.14.32.76 1.88-.28-.12-.6-1.48-.13.32.42 1.03-.28-.12-.25-.63-.15.32.07.17-1.34-.6-1.05 2.47 4.9 2.1 1.05-2.46-1.45-.6-1.28-3.2zm.06-6.62l-1.32-3.27-.3-.13 1.4 3.5.15.07zm-.72-3l-.32-.15 1.16 2.88.13-.3zm-1.2-.52l-.3-.14 1.4 3.5.3.14zm4.8 15.87l.3.9.32.13-.47-1.34zm.28-.6l.62 1.76.3.16-.78-2.2zm-.56 1.18v.03l.32.14-.17-.48zm1.65-2.15l1.27 3.56.3.15-1.26-3.57zm-.82.4l.94 2.6.3.16-1.08-3.08zm.32-.64l-.04.07 1.23 3.46.32.15-1.26-3.55zm6.9-2.63l.74 2.1.15-.32-.57-1.62zm-.6-.27l1.06 2.95.15-.3-.9-2.5zm2 .95l-.23-.1.12.34zm-.82-.4l.44 1.23.14-.3-.27-.77zm-2.9-7.3l-.16.35.5-.18zm.48.24l-.72.27-.2.42 1.35-.5zm-.78 2.58l3.55-1.26-.43-.2-3.55 1.26zm1.37-2.3l-1.58.56-.2.43 2.2-.8zm.58.27l-2.44.87-.2.43 3.08-1.1zm-.12 11.55l1.5-.54-.43-.2-.87.3zm.27-.57l.66-.24-.43-.2-.03.02zm.87-10.5l-.43-.2-3.3 1.18-.1.17.27.13zm5.76 2.75l-2.7-1.28-3.56 1.26-.15-.07 3.55-1.26-.43-.2-3.55 1.27-.17-.07 3.56-1.26-.44-.2-3.56 1.26-.15-.07 3.55-1.26-.43-.2-3.55 1.26-.14-.06 3.56-1.27-.43-.2-3.55 1.26.2.1-1.18 2.5 1.22 3.42-.3-.13-1.06-3.03-.15.3.9 2.57-.27-.13-.77-2.15-.14.3.6 1.7-.26-.1-.47-1.33-.15.3.3.87-.27-.14-.17-.46-1.28 2.72-.1-.04 1.26 3.56.3.14-1.25-3.56.27.13 1.27 3.56.3.16-1.26-3.56.3.13 1.25 3.56.3.14-1.25-3.56.27.13 1.27 3.57.3.15-1.26-3.56.26.12 1.26 3.56.52.25.05-.03.02.05.5.24h.05l.02.04.5.24h.07l.02.04.5.24.05-.02.04.06.26.12.1-.2-.1.05-.06-.1.2-.1.02.02.2-.45-.1.04-.05-.1.22-.08.23-.44-.1.03-.06-.1.2-.08v.03l.22-.45-.1.04-.05-.14.2-.07.23-.44-.16.06-.15-.08.37-.13.2-.42-1 .36-.17-.07 1.25-.45.17-.36-.07-.03-1.78.63-.15-.07 1.78-.65-.43-.2-1.78.64-.17-.1 1.78-.62-.42-.2-1.73.6v.05l-.27-.12.14.4-.07.13.1-.04.03.1-.2.1-.28-.83-.3-.14.44 1.24-.07.14.1-.03.04.1-.18.1-.6-1.68-.3-.15.74 2.1-.07.14.1-.04.03.1-.18.08-.9-2.5-.32-.16 1.05 2.98-.06.14.1-.04.03.1-.18.08-1.22-3.4-.12-.05 1.15-2.42.22.1-1.26-3.55.27.13 1.27 3.56.3.15-1.25-3.56.28.14 1.26 3.56.3.15-1.25-3.56.28.12 1.26 3.56.3.14-1.25-3.56.25.13 1.26 3.55.18.08.07-.14-1.2-3.37-.13-.06 1.15-2.4.13.05 3.36-1.2-.08.17-3.12 1.1.43.2 2.48-.9-.08.17-2.26.8.43.2 1.63-.58-.07.14-1.42.5.44.2.78-.27-.06.14-.56.2.38.2-.58 1.2 2.4 1.14zm-4.9 9.54l.04.13-.2.07-.04-.12zm-.3.6l.06.1-.22.08-.02-.1zm-.27.57l.06.12-.2.07-.04-.1zm-.27.6l.04.1-.2.08-.04-.1zm.4-1.6l.03.12-.2.07-.03-.13zm-.27.58l.03.1-.2.08-.04-.1zm-.28.6l.04.1-.22.06-.03-.1zm-.28.57l.04.1-.2.08-.03-.1zm.68-2.2l.03.13-.2.08-.03-.12zm-.28.6l.03.12-.2.07-.03-.12zm-.27.6l.03.1-.2.06-.04-.1zm-.28.57l.03.1-.2.07-.04-.1zm.4-1.6l.03.12-.2.07-.03-.1zm-.28.6l.04.1-.2.06-.04-.1zm-.28.57l.04.1-.2.07-.04-.1zm-.27.58l.02.1-.2.07-.04-.1zm.67-2.2l.03.13-.2.08-.04-.12zm-.28.6l.02.1-.2.1-.03-.13zm-.3.58l.05.1-.2.07-.04-.1zm-.27.6l.04.1-.2.06-.04-.1zm.4-1.6l.03.1-.2.08-.03-.12zm-.27.57l.03.1-.2.07-.04-.1zm-.28.6l.04.1-.2.06-.04-.1zm-.28.57l.04.1-.2.08-.04-.1zm.68-2.2l.03.13-.2.08-.02-.1zm-.28.6l.03.12-.2.07-.03-.13zm-.27.6l.03.1-.2.06-.04-.1zm-.28.57l.03.1-.2.07-.03-.1zm17.05-5.5l-4.27 2.46-.37-4.92-3-1.58-.87.27-.24.4 1.32-.4v.14l-1.4.42-.22.42 1.65-.5.03.12-1.75.53-.22.43 1.98-.6.02.1-2.08.65-.04.07.35.2 1.8-.56v.14l-1.65.5.42.23 1.26-.4V34l-1.1.35.1.05-.18.32 1.2-.37.02.1-1.3.4-.2.43 1.52-.46v.1l-1.62.5-.23.43 1.88-.57v.15l-1.96.6-.22.42 2.2-.68.02.1-2.3.74-.22.43 2.55-.8.02.13-2.65.82-.23.42 2.9-.9v.14l-2.98.92-.22.42 3.23-1v.13l-3.3 1-.22.43 3.55-1.1.4 5.06 4.48-2.6 1.07 3.48.16-.3-1-3.3.2-.1.96 3.14.16-.3-.9-2.97.17-.1.86 2.8.16-.3-.82-2.62.2-.1.76 2.44.16-.3-.7-2.27.2-.1.64 2.12.16-.3-.6-1.95.2-.1.54 1.8.16-.3-.47-1.54.27.15.34 1.1.16-.3-.2-.64.28.14.07.24.08-.16 1.17.63 1.25-2.37zm-8.5 7.6l-.26-.16.13.43zm-.87-1.2l.23-.43-1.52.46.2.1.93 3.03.15-.3-.8-2.57-.06-.03zm.43 2.03l.16-.3-.25-.83-.3-.16zm-.73-1.47l.22-.42-.64.2.2.1.66 2.18.16-.3-.52-1.7-.07-.04zm-3.6-1.76L286 44.4l.3.16-1.12-3.6-.18-.1zm4.8-.52l.23-.42-3.6 1.1-.2.35-.14-.08 1.1 3.6.3.17-1.1-3.6-.06-.05zm-.3.56l.23-.4-3.27 1 .2.1 1.1 3.6.3.17-1.1-3.6-.1-.05zm-4.02 3.1l.32.16-.93-3.02-.17.3zm3.74-2.52l.22-.42-2.4.74.2.1 1.12 3.62.18.1.06-.12-1.05-3.43-.08-.05zm-2.58 3.13l.3.17-1.1-3.6-.3-.17zm10 0l.15-.3-1.1-3.62-.16.3zm-.66-4.5l-.16.3 1.1 3.62.17-.3zm.35 5.05l.16-.3-1.1-3.6-.16.3zm-12.23-1.9l-.13-.4-.15.26zm.27.18l.3.16-.4-1.3-.17.3zm11.65 2.32l.16-.3-1.1-3.6-.16.3zm-11.1-2l.3.15-.65-2.17-.16.3zm10.8 2.58l.16-.3-1.1-3.6-.16.3zm-5.67-14.97l-.22.42.65-.2-.4-.23zm2.47 13.38l-.38-.2-.2.4zm3.3 4.24l.23-.43-1.3.4.43.23zm-2.72-3.93l-.43-.23-.82.26-.22.42zm2.64 4.08l-.4.12.26.15zm-.5-1.88l1.27-.4-.42-.22-.64.2.08-.15.4-.13-.4-.22h-.04l-1.03-3.35-.17.3.88 2.87-.22-.13h-.03l-.76-2.47-.17.3.6 2-.22-.14-.02.02-.5-1.6-.15.3.34 1.1-.24-.1h-.02l-.2-.74-.17.3.08.25-.22-.12-1.7.53-.23.42 1.8-.55-.02.05.02.08-1.87.56-.22.4 1.8-.54-.03.06.02.08-1.87.56-.06.12.3.16 1.34-.4-.04.06.03.07-1.18.35.42.22.46-.14-.04.07.03.06-.3.1 2.7 1.42 1.5-.46.23-.44-1.8.56.08-.15 1.8-.56.22-.4-1.8.55.07-.14 1.8-.54.13-.24-.2-.1-1.5.47zm-2.83-.1l.2-.05.03.1-.18.07zm.3-.56l.2-.07.03.12-.2.07zm.3-.58l.2-.07.03.12-.2.08zm.3-.58l.2-.04.04.1-.2.07zm-.77 2.16l.2-.06.04.1-.2.06zm.3-.57l.2-.07.03.12-.2.05zm.3-.58l.2-.06.04.1-.2.08zm.3-.57l.22-.06v.12l-.2.06zm-.46 1.6l.22-.08.03.1-.2.07zm.3-.6l.22-.05.02.12-.2.06zm.32-.56l.2-.06.02.12-.2.06zm.3-.57l.2-.05.03.1-.2.06zm-.78 2.16l.2-.06.04.1-.2.07zm.3-.57l.2-.06.04.12-.2.04zm.3-.57l.22-.06.02.12-.2.06zm.3-.57l.22-.08.02.12-.2.07zm-.46 1.57l.2-.06.04.1-.2.07zm.3-.57l.2-.07.03.12-.2.07zm.3-.58l.2-.06.04.12-.2.06zm.3-.57l.2-.05.04.1-.2.07zm-.76 2.16l.2-.05.03.1-.2.06zm.3-.56l.2-.07.03.12-.2.04zm.3-.58l.2-.06.03.12-.2.06zm.3-.57l.2-.07.03.12-.2.06zm-.47 1.57l.2-.06.04.1-.2.07zm.3-.57l.2-.06.04.12-.22.06zm.3-.57l.22-.07.02.12-.22.07zm.3-.58l.2-.04.04.1-.2.07zm-.76 2.16l.18-.06.05.1-.2.08zm.3-.56l.18-.07.04.13-.2.04zm.3-.57l.18-.08.04.12-.2.07zm.3-.58l.2-.08.03.13-.2.06zm-7.53-8.02l-.23.42 3.6-1.1.23-.43zm2.47 1.03l.22-.4-3.6 1.1-.23.42zm.6-1.14l.23-.42-3.6 1.1-.23.43zm-.3.58l.22-.42-3.6 1.1-.22.43zm6.3 10.04l.24.9.3.18-.36-1.38zm.33-.56l.47 1.8.3.17-.6-2.28zm-.65 1.12v.02l.3.18-.13-.5zm1.83-2l.95 3.65.3.16-.95-3.65zm-.85.32l.7 2.68.3.18-.83-3.16zm.36-.6l-.04.05.92 3.56.3.18-.95-3.66zm7.1-2.04l.56 2.14.17-.3-.44-1.67zm-.56-.32l.8 3.02.16-.3-.66-2.55zm1.9 1.12l-.22-.14.1.37zm-.78-.47l.32 1.26.18-.3-.2-.78zm-2.27-7.52l-.2.33.53-.14zm.46.27l-.73.2-.24.42 1.4-.38zm-1 2.5l3.66-.95-.4-.24-3.66.96zm1.57-2.17l-1.6.42-.26.4 2.28-.58zm.56.33l-2.5.65-.24.42 3.14-.82zm-1.1 11.48l1.52-.4-.4-.24-.9.23zm.3-.54l.68-.18-.4-.24h-.03zm1.77-10.38l-.4-.24-3.4.9-.1.15.25.15zm5.5 3.24l-2.57-1.52-3.65.96-.15-.1 3.65-.94-.4-.25-3.66.97-.15-.1 3.65-.94-.4-.24-3.66.94-.15-.1 3.66-.94-.4-.24-3.66.95-.13-.07 3.65-.95-.4-.24-3.66.95.2.1-1.4 2.4.92 3.52-.27-.15-.8-3.1-.17.3.7 2.63-.28-.16-.57-2.22-.18.3.46 1.75-.25-.14-.34-1.36-.18.3.24.9-.27-.17-.12-.47-1.52 2.6-.1-.06.96 3.66.3.17-.96-3.65.27.15.95 3.66.3.17-.96-3.65.27.15.95 3.66.3.16-.96-3.66.27.16.94 3.65.3.2-.96-3.67.25.15.95 3.65.5.3.04-.02.02.06.47.28h.08l.02.05.47.27h.07l.02.06.47.28h.05l.03.05.26.15.1-.18-.1.02-.04-.1.2-.06h.02l.25-.42-.1.02-.05-.1.2-.06h.02l.25-.42-.1.03-.05-.12.2-.04.02.02.24-.43-.1.03-.04-.13.2-.05.02.02.25-.42-.16.04-.14-.1.4-.1.24-.4-1.05.27-.15-.08 1.28-.33.2-.36-.06-.03-1.83.48-.15-.08 1.82-.48-.4-.24-1.83.47-.15-.08 1.8-.48-.4-.25-1.77.46-.02.05-.24-.15.1.4-.07.12.1-.02v.12l-.18.06-.22-.83-.3-.18.34 1.28-.08.13.1-.02.03.1-.2.07-.46-1.7-.3-.2.57 2.18-.07.14.1-.02.03.1-.2.06-.68-2.6-.3-.17.8 3.07-.08.13.1-.03.04.1-.2.07-.92-3.5-.1-.05 1.34-2.3.2.1-.94-3.64.26.15.95 3.67.3.17-.95-3.66.26.16.95 3.65.3.17-.96-3.66.26.17.95 3.65.3.18-.95-3.66.24.15.95 3.64.16.1.08-.13-.9-3.44-.13-.07 1.36-2.3.13.06 3.43-.9-.1.15-3.2.85.42.24 2.55-.68-.1.15-2.3.6.4.25 1.67-.44-.08.15-1.46.36.4.24.8-.2-.07.13-.58.15.36.2-.68 1.17 2.3 1.34zm-5.7 9.07l.03.13-.2.06-.03-.12zm-.33.56l.03.12-.2.06-.02-.12zm-.33.55l.04.12-.2.05-.03-.1zm-.33.56l.06.13-.2.05-.04-.1zm.57-1.54l.02.12-.22.05-.02-.12zm-.33.56l.03.1-.2.05-.04-.1zm-.33.56l.04.1-.2.05-.04-.1zm-.3.56v.1l-.2.05-.02-.1zm.85-2.12l.02.12-.2.05-.03-.13zm-.33.56l.02.12-.2.05-.02-.12zm-.32.55l.02.1-.2.06-.03-.1zm-.33.56l.03.1-.2.05-.04-.1zm.54-1.57l.03.12-.2.06-.03-.1zm-.32.56l.03.1-.2.05-.03-.1zm-.33.55l.03.1-.2.06-.03-.1zm-.32.56l.02.1-.2.07-.03-.1zm.86-2.1v.1l-.2.06v-.12zm-.33.55v.12l-.2.05v-.12zm-.33.56l.03.1-.2.07-.04-.1zm-.33.57l.04.1-.2.05-.04-.1zm.55-1.57l.02.12-.2.06-.03-.12zm-.33.56l.03.1-.2.06-.04-.1zm-.32.56l.02.1-.2.06-.03-.1zm-.33.56l.03.1-.2.06-.04-.1zm.87-2.12v.12l-.2.05v-.12zm-.33.56l.02.12-.2.05-.02-.13zm-.32.56l.03.1-.2.06-.03-.1zm-.33.56l.03.1-.2.05-.04-.1z" class="cls-1"/></svg>