<svg xmlns="http://www.w3.org/2000/svg" width="381" height="120.219"><defs><style>.cls-1 { fill: #fff; fill-rule: evenodd; }</style></defs><path d="M360.43 62.04l-31.2 31.25a229.36 229.36 0 0 0-277.45 0l-31.2-31.26C13.4 67.74 6.53 73.74 0 80.1l32.2 10.15 5.06 29.97a218.48 218.48 0 0 1 306.3-.15l5.08-29.82L381 80.1c-6.54-6.36-13.42-12.37-20.57-18.06zM190.5 0A272.83 272.83 0 0 0 22.67 56.96l1.96 1.96L52.26 86.6a234.44 234.44 0 0 1 276.48 0l27.63-27.68 1.96-1.96A272.8 272.8 0 0 0 190.5 0z" class="cls-1"/></svg>