<svg xmlns="http://www.w3.org/2000/svg" width="96.72" height="14.438"><defs><style>.cls-1 { fill: #fff; fill-rule: evenodd; }</style></defs><path d="M1.4 1.4l4.84 1.64L10.34 0l-.08 5.1 4.17 2.95-4.88 1.5-1.5 4.9-2.95-4.17-5.1.06 3.05-4.1z" class="cls-1"/><path id="Shape_3_copy" d="M21.22 1.4l4.83 1.64L30.15 0l-.08 5.1 4.17 2.95-4.87 1.5-1.52 4.9-2.94-4.17-5.1.06 3.06-4.1z" class="cls-1"/><path id="Shape_3_copy_3" d="M42.56 1.4l4.83 1.64L51.47 0l-.07 5.1 4.17 2.95-4.87 1.5-1.5 4.9-2.96-4.17-5.1.06 3.05-4.1z" class="cls-1"/><path id="Shape_3_copy_3-2" d="M62.37 1.4l4.83 1.64L71.3 0l-.08 5.1 4.17 2.95-4.9 1.5-1.5 4.9-2.94-4.17-5.1.06L64 6.24z" class="cls-1"/><path id="Shape_3_copy_4" d="M83.7 1.4l4.83 1.64L92.63 0l-.07 5.1 4.16 2.95-4.87 1.5-1.5 4.9-2.96-4.17-5.1.06 3.04-4.1z" class="cls-1"/></svg>